<?xml version="1.0" encoding="utf-8" standalone="no"?>
<!DOCTYPE svg PUBLIC "-//W3C//DTD SVG 1.1//EN"
  "http://www.w3.org/Graphics/SVG/1.1/DTD/svg11.dtd">
<!-- Created with matplotlib (http://matplotlib.org/) -->
<svg height="432pt" version="1.1" viewBox="0 0 432 432" width="432pt" xmlns="http://www.w3.org/2000/svg" xmlns:xlink="http://www.w3.org/1999/xlink">
 <defs>
  <style type="text/css">
*{stroke-linecap:butt;stroke-linejoin:round;}
  </style>
 </defs>
 <g id="figure_1">
  <g id="patch_1">
   <path d="M 0 432 
L 432 432 
L 432 0 
L 0 0 
z
" style="fill:#ffffff;"/>
  </g>
  <g id="patch_2">
   <path d="M 54 384.48 
L 388.8 384.48 
L 388.8 51.84 
L 54 51.84 
z
" style="fill:#ffffff;"/>
  </g>
  <g id="pane3d_1">
   <g id="patch_3">
    <path d="M 356.848241 303.1903 
L 215.17155 280.755958 
L 215.011499 107.870016 
L 358.926165 119.201129 
" style="fill:#f2f2f2;opacity:0.5;stroke:#f2f2f2;stroke-linejoin:miter;"/>
   </g>
  </g>
  <g id="pane3d_2">
   <g id="patch_4">
    <path d="M 93.341624 307.830909 
L 215.17155 280.755958 
L 215.011499 107.870016 
L 91.210284 121.547753 
" style="fill:#e6e6e6;opacity:0.5;stroke:#e6e6e6;stroke-linejoin:miter;"/>
   </g>
  </g>
  <g id="pane3d_3">
   <g id="patch_5">
    <path d="M 238.344449 334.072286 
L 356.848241 303.1903 
L 215.17155 280.755958 
L 93.341624 307.830909 
" style="fill:#ececec;opacity:0.5;stroke:#ececec;stroke-linejoin:miter;"/>
   </g>
  </g>
  <g id="axis3d_1">
   <g id="line2d_1">
    <path d="M 356.848241 303.1903 
L 238.344449 334.072286 
" style="fill:none;stroke:#000000;stroke-linecap:square;stroke-width:0.8;"/>
   </g>
   <g id="text_1">
    <!-- |omega| -->
    <defs>
     <path d="M 21 76.421875 
L 21 -23.578125 
L 12.703125 -23.578125 
L 12.703125 76.421875 
z
" id="DejaVuSans-7c"/>
     <path d="M 30.609375 48.390625 
Q 23.390625 48.390625 19.1875 42.75 
Q 14.984375 37.109375 14.984375 27.296875 
Q 14.984375 17.484375 19.15625 11.84375 
Q 23.34375 6.203125 30.609375 6.203125 
Q 37.796875 6.203125 41.984375 11.859375 
Q 46.1875 17.53125 46.1875 27.296875 
Q 46.1875 37.015625 41.984375 42.703125 
Q 37.796875 48.390625 30.609375 48.390625 
z
M 30.609375 56 
Q 42.328125 56 49.015625 48.375 
Q 55.71875 40.765625 55.71875 27.296875 
Q 55.71875 13.875 49.015625 6.21875 
Q 42.328125 -1.421875 30.609375 -1.421875 
Q 18.84375 -1.421875 12.171875 6.21875 
Q 5.515625 13.875 5.515625 27.296875 
Q 5.515625 40.765625 12.171875 48.375 
Q 18.84375 56 30.609375 56 
z
" id="DejaVuSans-6f"/>
     <path d="M 52 44.1875 
Q 55.375 50.25 60.0625 53.125 
Q 64.75 56 71.09375 56 
Q 79.640625 56 84.28125 50.015625 
Q 88.921875 44.046875 88.921875 33.015625 
L 88.921875 0 
L 79.890625 0 
L 79.890625 32.71875 
Q 79.890625 40.578125 77.09375 44.375 
Q 74.3125 48.1875 68.609375 48.1875 
Q 61.625 48.1875 57.5625 43.546875 
Q 53.515625 38.921875 53.515625 30.90625 
L 53.515625 0 
L 44.484375 0 
L 44.484375 32.71875 
Q 44.484375 40.625 41.703125 44.40625 
Q 38.921875 48.1875 33.109375 48.1875 
Q 26.21875 48.1875 22.15625 43.53125 
Q 18.109375 38.875 18.109375 30.90625 
L 18.109375 0 
L 9.078125 0 
L 9.078125 54.6875 
L 18.109375 54.6875 
L 18.109375 46.1875 
Q 21.1875 51.21875 25.484375 53.609375 
Q 29.78125 56 35.6875 56 
Q 41.65625 56 45.828125 52.96875 
Q 50 49.953125 52 44.1875 
z
" id="DejaVuSans-6d"/>
     <path d="M 56.203125 29.59375 
L 56.203125 25.203125 
L 14.890625 25.203125 
Q 15.484375 15.921875 20.484375 11.0625 
Q 25.484375 6.203125 34.421875 6.203125 
Q 39.59375 6.203125 44.453125 7.46875 
Q 49.3125 8.734375 54.109375 11.28125 
L 54.109375 2.78125 
Q 49.265625 0.734375 44.1875 -0.34375 
Q 39.109375 -1.421875 33.890625 -1.421875 
Q 20.796875 -1.421875 13.15625 6.1875 
Q 5.515625 13.8125 5.515625 26.8125 
Q 5.515625 40.234375 12.765625 48.109375 
Q 20.015625 56 32.328125 56 
Q 43.359375 56 49.78125 48.890625 
Q 56.203125 41.796875 56.203125 29.59375 
z
M 47.21875 32.234375 
Q 47.125 39.59375 43.09375 43.984375 
Q 39.0625 48.390625 32.421875 48.390625 
Q 24.90625 48.390625 20.390625 44.140625 
Q 15.875 39.890625 15.1875 32.171875 
z
" id="DejaVuSans-65"/>
     <path d="M 45.40625 27.984375 
Q 45.40625 37.75 41.375 43.109375 
Q 37.359375 48.484375 30.078125 48.484375 
Q 22.859375 48.484375 18.828125 43.109375 
Q 14.796875 37.75 14.796875 27.984375 
Q 14.796875 18.265625 18.828125 12.890625 
Q 22.859375 7.515625 30.078125 7.515625 
Q 37.359375 7.515625 41.375 12.890625 
Q 45.40625 18.265625 45.40625 27.984375 
z
M 54.390625 6.78125 
Q 54.390625 -7.171875 48.1875 -13.984375 
Q 42 -20.796875 29.203125 -20.796875 
Q 24.46875 -20.796875 20.265625 -20.09375 
Q 16.0625 -19.390625 12.109375 -17.921875 
L 12.109375 -9.1875 
Q 16.0625 -11.328125 19.921875 -12.34375 
Q 23.78125 -13.375 27.78125 -13.375 
Q 36.625 -13.375 41.015625 -8.765625 
Q 45.40625 -4.15625 45.40625 5.171875 
L 45.40625 9.625 
Q 42.625 4.78125 38.28125 2.390625 
Q 33.9375 0 27.875 0 
Q 17.828125 0 11.671875 7.65625 
Q 5.515625 15.328125 5.515625 27.984375 
Q 5.515625 40.671875 11.671875 48.328125 
Q 17.828125 56 27.875 56 
Q 33.9375 56 38.28125 53.609375 
Q 42.625 51.21875 45.40625 46.390625 
L 45.40625 54.6875 
L 54.390625 54.6875 
z
" id="DejaVuSans-67"/>
     <path d="M 34.28125 27.484375 
Q 23.390625 27.484375 19.1875 25 
Q 14.984375 22.515625 14.984375 16.5 
Q 14.984375 11.71875 18.140625 8.90625 
Q 21.296875 6.109375 26.703125 6.109375 
Q 34.1875 6.109375 38.703125 11.40625 
Q 43.21875 16.703125 43.21875 25.484375 
L 43.21875 27.484375 
z
M 52.203125 31.203125 
L 52.203125 0 
L 43.21875 0 
L 43.21875 8.296875 
Q 40.140625 3.328125 35.546875 0.953125 
Q 30.953125 -1.421875 24.3125 -1.421875 
Q 15.921875 -1.421875 10.953125 3.296875 
Q 6 8.015625 6 15.921875 
Q 6 25.140625 12.171875 29.828125 
Q 18.359375 34.515625 30.609375 34.515625 
L 43.21875 34.515625 
L 43.21875 35.40625 
Q 43.21875 41.609375 39.140625 45 
Q 35.0625 48.390625 27.6875 48.390625 
Q 23 48.390625 18.546875 47.265625 
Q 14.109375 46.140625 10.015625 43.890625 
L 10.015625 52.203125 
Q 14.9375 54.109375 19.578125 55.046875 
Q 24.21875 56 28.609375 56 
Q 40.484375 56 46.34375 49.84375 
Q 52.203125 43.703125 52.203125 31.203125 
z
" id="DejaVuSans-61"/>
    </defs>
    <g transform="translate(302.733106 356.782524)rotate(-14.606366)scale(0.1 -0.1)">
     <use xlink:href="#DejaVuSans-7c"/>
     <use x="33.691406" xlink:href="#DejaVuSans-6f"/>
     <use x="94.873047" xlink:href="#DejaVuSans-6d"/>
     <use x="192.285156" xlink:href="#DejaVuSans-65"/>
     <use x="253.808594" xlink:href="#DejaVuSans-67"/>
     <use x="317.285156" xlink:href="#DejaVuSans-61"/>
     <use x="378.564453" xlink:href="#DejaVuSans-7c"/>
    </g>
   </g>
   <g id="Line3DCollection_1">
    <path d="M 246.477786 331.952745 
L 101.66322 305.981554 
L 99.675774 120.612473 
" style="fill:none;stroke:#b0b0b0;stroke-width:0.8;"/>
    <path d="M 264.746213 327.192009 
L 120.375918 301.822925 
L 118.707087 118.509866 
" style="fill:none;stroke:#b0b0b0;stroke-width:0.8;"/>
    <path d="M 282.579561 322.544654 
L 138.671602 297.756972 
L 137.307658 116.454849 
" style="fill:none;stroke:#b0b0b0;stroke-width:0.8;"/>
    <path d="M 299.993191 318.006677 
L 156.564061 293.780631 
L 155.491946 114.445822 
" style="fill:none;stroke:#b0b0b0;stroke-width:0.8;"/>
    <path d="M 317.001747 313.574262 
L 174.066478 289.89097 
L 173.273772 112.48126 
" style="fill:none;stroke:#b0b0b0;stroke-width:0.8;"/>
    <path d="M 333.619202 309.243768 
L 191.191471 286.085186 
L 190.666351 110.559703 
" style="fill:none;stroke:#b0b0b0;stroke-width:0.8;"/>
   </g>
   <g id="xtick_1">
    <g id="line2d_2">
     <path d="M 245.238442 331.73048 
L 248.960666 332.398027 
" style="fill:none;stroke:#000000;stroke-linecap:square;stroke-width:0.8;"/>
    </g>
    <g id="text_2">
     <!-- 5 -->
     <defs>
      <path d="M 10.796875 72.90625 
L 49.515625 72.90625 
L 49.515625 64.59375 
L 19.828125 64.59375 
L 19.828125 46.734375 
Q 21.96875 47.46875 24.109375 47.828125 
Q 26.265625 48.1875 28.421875 48.1875 
Q 40.625 48.1875 47.75 41.5 
Q 54.890625 34.8125 54.890625 23.390625 
Q 54.890625 11.625 47.5625 5.09375 
Q 40.234375 -1.421875 26.90625 -1.421875 
Q 22.3125 -1.421875 17.546875 -0.640625 
Q 12.796875 0.140625 7.71875 1.703125 
L 7.71875 11.625 
Q 12.109375 9.234375 16.796875 8.0625 
Q 21.484375 6.890625 26.703125 6.890625 
Q 35.15625 6.890625 40.078125 11.328125 
Q 45.015625 15.765625 45.015625 23.390625 
Q 45.015625 31 40.078125 35.4375 
Q 35.15625 39.890625 26.703125 39.890625 
Q 22.75 39.890625 18.8125 39.015625 
Q 14.890625 38.140625 10.796875 36.28125 
z
" id="DejaVuSans-35"/>
     </defs>
     <g transform="translate(253.565636 354.334865)scale(0.1 -0.1)">
      <use xlink:href="#DejaVuSans-35"/>
     </g>
    </g>
   </g>
   <g id="xtick_2">
    <g id="line2d_3">
     <path d="M 263.511641 326.975067 
L 267.21948 327.626617 
" style="fill:none;stroke:#000000;stroke-linecap:square;stroke-width:0.8;"/>
    </g>
    <g id="text_3">
     <!-- 6 -->
     <defs>
      <path d="M 33.015625 40.375 
Q 26.375 40.375 22.484375 35.828125 
Q 18.609375 31.296875 18.609375 23.390625 
Q 18.609375 15.53125 22.484375 10.953125 
Q 26.375 6.390625 33.015625 6.390625 
Q 39.65625 6.390625 43.53125 10.953125 
Q 47.40625 15.53125 47.40625 23.390625 
Q 47.40625 31.296875 43.53125 35.828125 
Q 39.65625 40.375 33.015625 40.375 
z
M 52.59375 71.296875 
L 52.59375 62.3125 
Q 48.875 64.0625 45.09375 64.984375 
Q 41.3125 65.921875 37.59375 65.921875 
Q 27.828125 65.921875 22.671875 59.328125 
Q 17.53125 52.734375 16.796875 39.40625 
Q 19.671875 43.65625 24.015625 45.921875 
Q 28.375 48.1875 33.59375 48.1875 
Q 44.578125 48.1875 50.953125 41.515625 
Q 57.328125 34.859375 57.328125 23.390625 
Q 57.328125 12.15625 50.6875 5.359375 
Q 44.046875 -1.421875 33.015625 -1.421875 
Q 20.359375 -1.421875 13.671875 8.265625 
Q 6.984375 17.96875 6.984375 36.375 
Q 6.984375 53.65625 15.1875 63.9375 
Q 23.390625 74.21875 37.203125 74.21875 
Q 40.921875 74.21875 44.703125 73.484375 
Q 48.484375 72.75 52.59375 71.296875 
z
" id="DejaVuSans-36"/>
     </defs>
     <g transform="translate(271.774005 349.378626)scale(0.1 -0.1)">
      <use xlink:href="#DejaVuSans-36"/>
     </g>
    </g>
   </g>
   <g id="xtick_3">
    <g id="line2d_4">
     <path d="M 281.349887 322.332847 
L 285.042967 322.968968 
" style="fill:none;stroke:#000000;stroke-linecap:square;stroke-width:0.8;"/>
    </g>
    <g id="text_4">
     <!-- 7 -->
     <defs>
      <path d="M 8.203125 72.90625 
L 55.078125 72.90625 
L 55.078125 68.703125 
L 28.609375 0 
L 18.3125 0 
L 43.21875 64.59375 
L 8.203125 64.59375 
z
" id="DejaVuSans-37"/>
     </defs>
     <g transform="translate(289.547223 344.540833)scale(0.1 -0.1)">
      <use xlink:href="#DejaVuSans-37"/>
     </g>
    </g>
   </g>
   <g id="xtick_4">
    <g id="line2d_5">
     <path d="M 298.768528 317.799824 
L 302.446511 318.421058 
" style="fill:none;stroke:#000000;stroke-linecap:square;stroke-width:0.8;"/>
    </g>
    <g id="text_5">
     <!-- 8 -->
     <defs>
      <path d="M 31.78125 34.625 
Q 24.75 34.625 20.71875 30.859375 
Q 16.703125 27.09375 16.703125 20.515625 
Q 16.703125 13.921875 20.71875 10.15625 
Q 24.75 6.390625 31.78125 6.390625 
Q 38.8125 6.390625 42.859375 10.171875 
Q 46.921875 13.96875 46.921875 20.515625 
Q 46.921875 27.09375 42.890625 30.859375 
Q 38.875 34.625 31.78125 34.625 
z
M 21.921875 38.8125 
Q 15.578125 40.375 12.03125 44.71875 
Q 8.5 49.078125 8.5 55.328125 
Q 8.5 64.0625 14.71875 69.140625 
Q 20.953125 74.21875 31.78125 74.21875 
Q 42.671875 74.21875 48.875 69.140625 
Q 55.078125 64.0625 55.078125 55.328125 
Q 55.078125 49.078125 51.53125 44.71875 
Q 48 40.375 41.703125 38.8125 
Q 48.828125 37.15625 52.796875 32.3125 
Q 56.78125 27.484375 56.78125 20.515625 
Q 56.78125 9.90625 50.3125 4.234375 
Q 43.84375 -1.421875 31.78125 -1.421875 
Q 19.734375 -1.421875 13.25 4.234375 
Q 6.78125 9.90625 6.78125 20.515625 
Q 6.78125 27.484375 10.78125 32.3125 
Q 14.796875 37.15625 21.921875 38.8125 
z
M 18.3125 54.390625 
Q 18.3125 48.734375 21.84375 45.5625 
Q 25.390625 42.390625 31.78125 42.390625 
Q 38.140625 42.390625 41.71875 45.5625 
Q 45.3125 48.734375 45.3125 54.390625 
Q 45.3125 60.0625 41.71875 63.234375 
Q 38.140625 66.40625 31.78125 66.40625 
Q 25.390625 66.40625 21.84375 63.234375 
Q 18.3125 60.0625 18.3125 54.390625 
z
" id="DejaVuSans-38"/>
     </defs>
     <g transform="translate(306.900703 339.81729)scale(0.1 -0.1)">
      <use xlink:href="#DejaVuSans-38"/>
     </g>
    </g>
   </g>
   <g id="xtick_5">
    <g id="line2d_6">
     <path d="M 315.782196 313.372192 
L 319.444782 313.979054 
" style="fill:none;stroke:#000000;stroke-linecap:square;stroke-width:0.8;"/>
    </g>
    <g id="text_6">
     <!-- 9 -->
     <defs>
      <path d="M 10.984375 1.515625 
L 10.984375 10.5 
Q 14.703125 8.734375 18.5 7.8125 
Q 22.3125 6.890625 25.984375 6.890625 
Q 35.75 6.890625 40.890625 13.453125 
Q 46.046875 20.015625 46.78125 33.40625 
Q 43.953125 29.203125 39.59375 26.953125 
Q 35.25 24.703125 29.984375 24.703125 
Q 19.046875 24.703125 12.671875 31.3125 
Q 6.296875 37.9375 6.296875 49.421875 
Q 6.296875 60.640625 12.9375 67.421875 
Q 19.578125 74.21875 30.609375 74.21875 
Q 43.265625 74.21875 49.921875 64.515625 
Q 56.59375 54.828125 56.59375 36.375 
Q 56.59375 19.140625 48.40625 8.859375 
Q 40.234375 -1.421875 26.421875 -1.421875 
Q 22.703125 -1.421875 18.890625 -0.6875 
Q 15.09375 0.046875 10.984375 1.515625 
z
M 30.609375 32.421875 
Q 37.25 32.421875 41.125 36.953125 
Q 45.015625 41.5 45.015625 49.421875 
Q 45.015625 57.28125 41.125 61.84375 
Q 37.25 66.40625 30.609375 66.40625 
Q 23.96875 66.40625 20.09375 61.84375 
Q 16.21875 57.28125 16.21875 49.421875 
Q 16.21875 41.5 20.09375 36.953125 
Q 23.96875 32.421875 30.609375 32.421875 
z
" id="DejaVuSans-39"/>
     </defs>
     <g transform="translate(323.849141 335.203998)scale(0.1 -0.1)">
      <use xlink:href="#DejaVuSans-39"/>
     </g>
    </g>
   </g>
   <g id="xtick_6">
    <g id="line2d_7">
     <path d="M 332.404852 309.046316 
L 336.051772 309.639301 
" style="fill:none;stroke:#000000;stroke-linecap:square;stroke-width:0.8;"/>
    </g>
    <g id="text_7">
     <!-- 10 -->
     <defs>
      <path d="M 12.40625 8.296875 
L 28.515625 8.296875 
L 28.515625 63.921875 
L 10.984375 60.40625 
L 10.984375 69.390625 
L 28.421875 72.90625 
L 38.28125 72.90625 
L 38.28125 8.296875 
L 54.390625 8.296875 
L 54.390625 0 
L 12.40625 0 
z
" id="DejaVuSans-31"/>
      <path d="M 31.78125 66.40625 
Q 24.171875 66.40625 20.328125 58.90625 
Q 16.5 51.421875 16.5 36.375 
Q 16.5 21.390625 20.328125 13.890625 
Q 24.171875 6.390625 31.78125 6.390625 
Q 39.453125 6.390625 43.28125 13.890625 
Q 47.125 21.390625 47.125 36.375 
Q 47.125 51.421875 43.28125 58.90625 
Q 39.453125 66.40625 31.78125 66.40625 
z
M 31.78125 74.21875 
Q 44.046875 74.21875 50.515625 64.515625 
Q 56.984375 54.828125 56.984375 36.375 
Q 56.984375 17.96875 50.515625 8.265625 
Q 44.046875 -1.421875 31.78125 -1.421875 
Q 19.53125 -1.421875 13.0625 8.265625 
Q 6.59375 17.96875 6.59375 36.375 
Q 6.59375 54.828125 13.0625 64.515625 
Q 19.53125 74.21875 31.78125 74.21875 
z
" id="DejaVuSans-30"/>
     </defs>
     <g transform="translate(337.225305 330.697142)scale(0.1 -0.1)">
      <use xlink:href="#DejaVuSans-31"/>
      <use x="63.623047" xlink:href="#DejaVuSans-30"/>
     </g>
    </g>
   </g>
  </g>
  <g id="axis3d_2">
   <g id="line2d_8">
    <path d="M 93.341624 307.830909 
L 238.344449 334.072286 
" style="fill:none;stroke:#000000;stroke-linecap:square;stroke-width:0.8;"/>
   </g>
   <g id="text_8">
    <!-- |lins| -->
    <defs>
     <path d="M 9.421875 75.984375 
L 18.40625 75.984375 
L 18.40625 0 
L 9.421875 0 
z
" id="DejaVuSans-6c"/>
     <path d="M 9.421875 54.6875 
L 18.40625 54.6875 
L 18.40625 0 
L 9.421875 0 
z
M 9.421875 75.984375 
L 18.40625 75.984375 
L 18.40625 64.59375 
L 9.421875 64.59375 
z
" id="DejaVuSans-69"/>
     <path d="M 54.890625 33.015625 
L 54.890625 0 
L 45.90625 0 
L 45.90625 32.71875 
Q 45.90625 40.484375 42.875 44.328125 
Q 39.84375 48.1875 33.796875 48.1875 
Q 26.515625 48.1875 22.3125 43.546875 
Q 18.109375 38.921875 18.109375 30.90625 
L 18.109375 0 
L 9.078125 0 
L 9.078125 54.6875 
L 18.109375 54.6875 
L 18.109375 46.1875 
Q 21.34375 51.125 25.703125 53.5625 
Q 30.078125 56 35.796875 56 
Q 45.21875 56 50.046875 50.171875 
Q 54.890625 44.34375 54.890625 33.015625 
z
" id="DejaVuSans-6e"/>
     <path d="M 44.28125 53.078125 
L 44.28125 44.578125 
Q 40.484375 46.53125 36.375 47.5 
Q 32.28125 48.484375 27.875 48.484375 
Q 21.1875 48.484375 17.84375 46.4375 
Q 14.5 44.390625 14.5 40.28125 
Q 14.5 37.15625 16.890625 35.375 
Q 19.28125 33.59375 26.515625 31.984375 
L 29.59375 31.296875 
Q 39.15625 29.25 43.1875 25.515625 
Q 47.21875 21.78125 47.21875 15.09375 
Q 47.21875 7.46875 41.1875 3.015625 
Q 35.15625 -1.421875 24.609375 -1.421875 
Q 20.21875 -1.421875 15.453125 -0.5625 
Q 10.6875 0.296875 5.421875 2 
L 5.421875 11.28125 
Q 10.40625 8.6875 15.234375 7.390625 
Q 20.0625 6.109375 24.8125 6.109375 
Q 31.15625 6.109375 34.5625 8.28125 
Q 37.984375 10.453125 37.984375 14.40625 
Q 37.984375 18.0625 35.515625 20.015625 
Q 33.0625 21.96875 24.703125 23.78125 
L 21.578125 24.515625 
Q 13.234375 26.265625 9.515625 29.90625 
Q 5.8125 33.546875 5.8125 39.890625 
Q 5.8125 47.609375 11.28125 51.796875 
Q 16.75 56 26.8125 56 
Q 31.78125 56 36.171875 55.265625 
Q 40.578125 54.546875 44.28125 53.078125 
z
" id="DejaVuSans-73"/>
    </defs>
    <g transform="translate(132.408699 353.014119)rotate(-349.74212)scale(0.1 -0.1)">
     <use xlink:href="#DejaVuSans-7c"/>
     <use x="33.691406" xlink:href="#DejaVuSans-6c"/>
     <use x="61.474609" xlink:href="#DejaVuSans-69"/>
     <use x="89.257812" xlink:href="#DejaVuSans-6e"/>
     <use x="152.636719" xlink:href="#DejaVuSans-73"/>
     <use x="204.736328" xlink:href="#DejaVuSans-7c"/>
    </g>
   </g>
   <g id="Line3DCollection_2">
    <path d="M 340.931689 117.784335 
L 339.148646 300.387589 
L 220.14751 330.779159 
" style="fill:none;stroke:#b0b0b0;stroke-width:0.8;"/>
    <path d="M 324.56791 116.495934 
L 323.049293 297.838275 
L 203.616146 327.787453 
" style="fill:none;stroke:#b0b0b0;stroke-width:0.8;"/>
    <path d="M 308.435616 115.225758 
L 307.174204 295.324473 
L 187.334027 324.840854 
" style="fill:none;stroke:#b0b0b0;stroke-width:0.8;"/>
    <path d="M 292.529931 113.973425 
L 291.518723 292.845446 
L 171.295559 321.938349 
" style="fill:none;stroke:#b0b0b0;stroke-width:0.8;"/>
    <path d="M 276.846112 112.738561 
L 276.078327 290.400477 
L 155.495314 319.078955 
" style="fill:none;stroke:#b0b0b0;stroke-width:0.8;"/>
    <path d="M 261.37955 111.520802 
L 260.848613 287.988869 
L 139.928024 316.261719 
" style="fill:none;stroke:#b0b0b0;stroke-width:0.8;"/>
    <path d="M 246.125761 110.319796 
L 245.825298 285.609944 
L 124.588573 313.485716 
" style="fill:none;stroke:#b0b0b0;stroke-width:0.8;"/>
    <path d="M 231.080386 109.135199 
L 231.004214 283.263042 
L 109.471997 310.750047 
" style="fill:none;stroke:#b0b0b0;stroke-width:0.8;"/>
   </g>
   <g id="xtick_7">
    <g id="line2d_9">
     <path d="M 221.178432 330.515873 
L 218.081523 331.306789 
" style="fill:none;stroke:#000000;stroke-linecap:square;stroke-width:0.8;"/>
    </g>
    <g id="text_9">
     <!-- 30 -->
     <defs>
      <path d="M 40.578125 39.3125 
Q 47.65625 37.796875 51.625 33 
Q 55.609375 28.21875 55.609375 21.1875 
Q 55.609375 10.40625 48.1875 4.484375 
Q 40.765625 -1.421875 27.09375 -1.421875 
Q 22.515625 -1.421875 17.65625 -0.515625 
Q 12.796875 0.390625 7.625 2.203125 
L 7.625 11.71875 
Q 11.71875 9.328125 16.59375 8.109375 
Q 21.484375 6.890625 26.8125 6.890625 
Q 36.078125 6.890625 40.9375 10.546875 
Q 45.796875 14.203125 45.796875 21.1875 
Q 45.796875 27.640625 41.28125 31.265625 
Q 36.765625 34.90625 28.71875 34.90625 
L 20.21875 34.90625 
L 20.21875 43.015625 
L 29.109375 43.015625 
Q 36.375 43.015625 40.234375 45.921875 
Q 44.09375 48.828125 44.09375 54.296875 
Q 44.09375 59.90625 40.109375 62.90625 
Q 36.140625 65.921875 28.71875 65.921875 
Q 24.65625 65.921875 20.015625 65.03125 
Q 15.375 64.15625 9.8125 62.3125 
L 9.8125 71.09375 
Q 15.4375 72.65625 20.34375 73.4375 
Q 25.25 74.21875 29.59375 74.21875 
Q 40.828125 74.21875 47.359375 69.109375 
Q 53.90625 64.015625 53.90625 55.328125 
Q 53.90625 49.265625 50.4375 45.09375 
Q 46.96875 40.921875 40.578125 39.3125 
z
" id="DejaVuSans-33"/>
     </defs>
     <g transform="translate(205.22173 353.478369)scale(0.1 -0.1)">
      <use xlink:href="#DejaVuSans-33"/>
      <use x="63.623047" xlink:href="#DejaVuSans-30"/>
     </g>
    </g>
   </g>
   <g id="xtick_8">
    <g id="line2d_10">
     <path d="M 204.650209 327.528151 
L 201.543895 328.307093 
" style="fill:none;stroke:#000000;stroke-linecap:square;stroke-width:0.8;"/>
    </g>
    <g id="text_10">
     <!-- 40 -->
     <defs>
      <path d="M 37.796875 64.3125 
L 12.890625 25.390625 
L 37.796875 25.390625 
z
M 35.203125 72.90625 
L 47.609375 72.90625 
L 47.609375 25.390625 
L 58.015625 25.390625 
L 58.015625 17.1875 
L 47.609375 17.1875 
L 47.609375 0 
L 37.796875 0 
L 37.796875 17.1875 
L 4.890625 17.1875 
L 4.890625 26.703125 
z
" id="DejaVuSans-34"/>
     </defs>
     <g transform="translate(188.682852 350.358272)scale(0.1 -0.1)">
      <use xlink:href="#DejaVuSans-34"/>
      <use x="63.623047" xlink:href="#DejaVuSans-30"/>
     </g>
    </g>
   </g>
   <g id="xtick_9">
    <g id="line2d_11">
     <path d="M 188.37102 324.585445 
L 185.255936 325.352683 
" style="fill:none;stroke:#000000;stroke-linecap:square;stroke-width:0.8;"/>
    </g>
    <g id="text_11">
     <!-- 50 -->
     <g transform="translate(172.394425 347.285423)scale(0.1 -0.1)">
      <use xlink:href="#DejaVuSans-35"/>
      <use x="63.623047" xlink:href="#DejaVuSans-30"/>
     </g>
    </g>
   </g>
   <g id="xtick_10">
    <g id="line2d_12">
     <path d="M 172.335279 321.686746 
L 169.212035 322.442543 
" style="fill:none;stroke:#000000;stroke-linecap:square;stroke-width:0.8;"/>
    </g>
    <g id="text_12">
     <!-- 60 -->
     <g transform="translate(156.3508 344.258757)scale(0.1 -0.1)">
      <use xlink:href="#DejaVuSans-36"/>
      <use x="63.623047" xlink:href="#DejaVuSans-30"/>
     </g>
    </g>
   </g>
   <g id="xtick_11">
    <g id="line2d_13">
     <path d="M 156.537566 318.831074 
L 153.406746 319.575683 
" style="fill:none;stroke:#000000;stroke-linecap:square;stroke-width:0.8;"/>
    </g>
    <g id="text_13">
     <!-- 70 -->
     <g transform="translate(140.546502 341.27724)scale(0.1 -0.1)">
      <use xlink:href="#DejaVuSans-37"/>
      <use x="63.623047" xlink:href="#DejaVuSans-30"/>
     </g>
    </g>
   </g>
   <g id="xtick_12">
    <g id="line2d_14">
     <path d="M 140.97262 316.017478 
L 137.834787 316.751146 
" style="fill:none;stroke:#000000;stroke-linecap:square;stroke-width:0.8;"/>
    </g>
    <g id="text_14">
     <!-- 80 -->
     <g transform="translate(124.976214 338.33987)scale(0.1 -0.1)">
      <use xlink:href="#DejaVuSans-38"/>
      <use x="63.623047" xlink:href="#DejaVuSans-30"/>
     </g>
    </g>
   </g>
   <g id="xtick_13">
    <g id="line2d_15">
     <path d="M 125.635334 313.245036 
L 122.491029 313.968001 
" style="fill:none;stroke:#000000;stroke-linecap:square;stroke-width:0.8;"/>
    </g>
    <g id="text_15">
     <!-- 90 -->
     <g transform="translate(109.634777 335.445673)scale(0.1 -0.1)">
      <use xlink:href="#DejaVuSans-39"/>
      <use x="63.623047" xlink:href="#DejaVuSans-30"/>
     </g>
    </g>
   </g>
   <g id="xtick_14">
    <g id="line2d_16">
     <path d="M 110.52075 310.512849 
L 107.37049 311.225345 
" style="fill:none;stroke:#000000;stroke-linecap:square;stroke-width:0.8;"/>
    </g>
    <g id="text_16">
     <!-- 100 -->
     <g transform="translate(91.335932 332.593704)scale(0.1 -0.1)">
      <use xlink:href="#DejaVuSans-31"/>
      <use x="63.623047" xlink:href="#DejaVuSans-30"/>
      <use x="127.246094" xlink:href="#DejaVuSans-30"/>
     </g>
    </g>
   </g>
  </g>
  <g id="axis3d_3">
   <g id="line2d_17">
    <path d="M 93.341624 307.830909 
L 91.210284 121.547753 
" style="fill:none;stroke:#000000;stroke-linecap:square;stroke-width:0.8;"/>
   </g>
   <g id="text_17">
    <!-- #timeout -->
    <defs>
     <path d="M 51.125 44 
L 36.921875 44 
L 32.8125 27.6875 
L 47.125 27.6875 
z
M 43.796875 71.78125 
L 38.71875 51.515625 
L 52.984375 51.515625 
L 58.109375 71.78125 
L 65.921875 71.78125 
L 60.890625 51.515625 
L 76.125 51.515625 
L 76.125 44 
L 58.984375 44 
L 54.984375 27.6875 
L 70.515625 27.6875 
L 70.515625 20.21875 
L 53.078125 20.21875 
L 48 0 
L 40.1875 0 
L 45.21875 20.21875 
L 30.90625 20.21875 
L 25.875 0 
L 18.015625 0 
L 23.09375 20.21875 
L 7.71875 20.21875 
L 7.71875 27.6875 
L 24.90625 27.6875 
L 29 44 
L 13.28125 44 
L 13.28125 51.515625 
L 30.90625 51.515625 
L 35.890625 71.78125 
z
" id="DejaVuSans-23"/>
     <path d="M 18.3125 70.21875 
L 18.3125 54.6875 
L 36.8125 54.6875 
L 36.8125 47.703125 
L 18.3125 47.703125 
L 18.3125 18.015625 
Q 18.3125 11.328125 20.140625 9.421875 
Q 21.96875 7.515625 27.59375 7.515625 
L 36.8125 7.515625 
L 36.8125 0 
L 27.59375 0 
Q 17.1875 0 13.234375 3.875 
Q 9.28125 7.765625 9.28125 18.015625 
L 9.28125 47.703125 
L 2.6875 47.703125 
L 2.6875 54.6875 
L 9.28125 54.6875 
L 9.28125 70.21875 
z
" id="DejaVuSans-74"/>
     <path d="M 8.5 21.578125 
L 8.5 54.6875 
L 17.484375 54.6875 
L 17.484375 21.921875 
Q 17.484375 14.15625 20.5 10.265625 
Q 23.53125 6.390625 29.59375 6.390625 
Q 36.859375 6.390625 41.078125 11.03125 
Q 45.3125 15.671875 45.3125 23.6875 
L 45.3125 54.6875 
L 54.296875 54.6875 
L 54.296875 0 
L 45.3125 0 
L 45.3125 8.40625 
Q 42.046875 3.421875 37.71875 1 
Q 33.40625 -1.421875 27.6875 -1.421875 
Q 18.265625 -1.421875 13.375 4.4375 
Q 8.5 10.296875 8.5 21.578125 
z
M 31.109375 56 
z
" id="DejaVuSans-75"/>
    </defs>
    <g transform="translate(50.494042 192.303449)rotate(-270.655515)scale(0.1 -0.1)">
     <use xlink:href="#DejaVuSans-23"/>
     <use x="83.789062" xlink:href="#DejaVuSans-74"/>
     <use x="122.998047" xlink:href="#DejaVuSans-69"/>
     <use x="150.78125" xlink:href="#DejaVuSans-6d"/>
     <use x="248.193359" xlink:href="#DejaVuSans-65"/>
     <use x="309.716797" xlink:href="#DejaVuSans-6f"/>
     <use x="370.898438" xlink:href="#DejaVuSans-75"/>
     <use x="434.277344" xlink:href="#DejaVuSans-74"/>
    </g>
   </g>
   <g id="Line3DCollection_3">
    <path d="M 93.299658 304.16303 
L 215.168395 277.347952 
L 356.889163 299.566875 
" style="fill:none;stroke:#b0b0b0;stroke-width:0.8;"/>
    <path d="M 93.097852 286.524839 
L 215.153225 260.961643 
L 357.085945 282.142855 
" style="fill:none;stroke:#b0b0b0;stroke-width:0.8;"/>
    <path d="M 92.895432 268.832889 
L 215.138013 244.529047 
L 357.28332 264.666396 
" style="fill:none;stroke:#b0b0b0;stroke-width:0.8;"/>
    <path d="M 92.692393 251.086933 
L 215.122757 228.049969 
L 357.481289 247.13726 
" style="fill:none;stroke:#b0b0b0;stroke-width:0.8;"/>
    <path d="M 92.488734 233.286724 
L 215.107458 211.524209 
L 357.679856 229.555208 
" style="fill:none;stroke:#b0b0b0;stroke-width:0.8;"/>
    <path d="M 92.284451 215.432013 
L 215.092116 194.951571 
L 357.879023 211.920001 
" style="fill:none;stroke:#b0b0b0;stroke-width:0.8;"/>
    <path d="M 92.079542 197.522548 
L 215.07673 178.331853 
L 358.078794 194.231396 
" style="fill:none;stroke:#b0b0b0;stroke-width:0.8;"/>
    <path d="M 91.874003 179.558078 
L 215.0613 161.664856 
L 358.27917 176.489152 
" style="fill:none;stroke:#b0b0b0;stroke-width:0.8;"/>
    <path d="M 91.667832 161.53835 
L 215.045827 144.950376 
L 358.480155 158.693023 
" style="fill:none;stroke:#b0b0b0;stroke-width:0.8;"/>
    <path d="M 91.461026 143.463106 
L 215.030309 128.188212 
L 358.681751 140.842765 
" style="fill:none;stroke:#b0b0b0;stroke-width:0.8;"/>
    <path d="M 91.253582 125.332091 
L 215.014747 111.378157 
L 358.883961 122.938129 
" style="fill:none;stroke:#b0b0b0;stroke-width:0.8;"/>
   </g>
   <g id="xtick_15">
    <g id="line2d_18">
     <path d="M 94.350741 303.931757 
L 91.193514 304.62645 
" style="fill:none;stroke:#000000;stroke-linecap:square;stroke-width:0.8;"/>
    </g>
    <g id="text_18">
     <!-- 0 -->
     <g transform="translate(72.442617 312.069676)scale(0.1 -0.1)">
      <use xlink:href="#DejaVuSans-30"/>
     </g>
    </g>
   </g>
   <g id="xtick_16">
    <g id="line2d_19">
     <path d="M 94.150661 286.304339 
L 90.988244 286.966674 
" style="fill:none;stroke:#000000;stroke-linecap:square;stroke-width:0.8;"/>
    </g>
    <g id="text_19">
     <!-- 10 -->
     <g transform="translate(69.032473 294.417129)scale(0.1 -0.1)">
      <use xlink:href="#DejaVuSans-31"/>
      <use x="63.623047" xlink:href="#DejaVuSans-30"/>
     </g>
    </g>
   </g>
   <g id="xtick_17">
    <g id="line2d_20">
     <path d="M 93.949971 268.623229 
L 90.782348 269.253004 
" style="fill:none;stroke:#000000;stroke-linecap:square;stroke-width:0.8;"/>
    </g>
    <g id="text_20">
     <!-- 20 -->
     <defs>
      <path d="M 19.1875 8.296875 
L 53.609375 8.296875 
L 53.609375 0 
L 7.328125 0 
L 7.328125 8.296875 
Q 12.9375 14.109375 22.625 23.890625 
Q 32.328125 33.6875 34.8125 36.53125 
Q 39.546875 41.84375 41.421875 45.53125 
Q 43.3125 49.21875 43.3125 52.78125 
Q 43.3125 58.59375 39.234375 62.25 
Q 35.15625 65.921875 28.609375 65.921875 
Q 23.96875 65.921875 18.8125 64.3125 
Q 13.671875 62.703125 7.8125 59.421875 
L 7.8125 69.390625 
Q 13.765625 71.78125 18.9375 73 
Q 24.125 74.21875 28.421875 74.21875 
Q 39.75 74.21875 46.484375 68.546875 
Q 53.21875 62.890625 53.21875 53.421875 
Q 53.21875 48.921875 51.53125 44.890625 
Q 49.859375 40.875 45.40625 35.40625 
Q 44.1875 33.984375 37.640625 27.21875 
Q 31.109375 20.453125 19.1875 8.296875 
z
" id="DejaVuSans-32"/>
     </defs>
     <g transform="translate(68.802881 276.710734)scale(0.1 -0.1)">
      <use xlink:href="#DejaVuSans-32"/>
      <use x="63.623047" xlink:href="#DejaVuSans-30"/>
     </g>
    </g>
   </g>
   <g id="xtick_18">
    <g id="line2d_21">
     <path d="M 93.74867 250.88818 
L 90.575823 251.485195 
" style="fill:none;stroke:#000000;stroke-linecap:square;stroke-width:0.8;"/>
    </g>
    <g id="text_21">
     <!-- 30 -->
     <g transform="translate(68.572587 258.950244)scale(0.1 -0.1)">
      <use xlink:href="#DejaVuSans-33"/>
      <use x="63.623047" xlink:href="#DejaVuSans-30"/>
     </g>
    </g>
   </g>
   <g id="xtick_19">
    <g id="line2d_22">
     <path d="M 93.546753 233.098945 
L 90.368666 233.662996 
" style="fill:none;stroke:#000000;stroke-linecap:square;stroke-width:0.8;"/>
    </g>
    <g id="text_22">
     <!-- 40 -->
     <g transform="translate(68.341589 241.13541)scale(0.1 -0.1)">
      <use xlink:href="#DejaVuSans-34"/>
      <use x="63.623047" xlink:href="#DejaVuSans-30"/>
     </g>
    </g>
   </g>
   <g id="xtick_20">
    <g id="line2d_23">
     <path d="M 93.344219 215.255277 
L 90.160873 215.786158 
" style="fill:none;stroke:#000000;stroke-linecap:square;stroke-width:0.8;"/>
    </g>
    <g id="text_23">
     <!-- 50 -->
     <g transform="translate(68.109883 223.265983)scale(0.1 -0.1)">
      <use xlink:href="#DejaVuSans-35"/>
      <use x="63.623047" xlink:href="#DejaVuSans-30"/>
     </g>
    </g>
   </g>
   <g id="xtick_21">
    <g id="line2d_24">
     <path d="M 93.141063 197.356924 
L 89.952443 197.85443 
" style="fill:none;stroke:#000000;stroke-linecap:square;stroke-width:0.8;"/>
    </g>
    <g id="text_24">
     <!-- 60 -->
     <g transform="translate(67.877466 205.341711)scale(0.1 -0.1)">
      <use xlink:href="#DejaVuSans-36"/>
      <use x="63.623047" xlink:href="#DejaVuSans-30"/>
     </g>
    </g>
   </g>
   <g id="xtick_22">
    <g id="line2d_25">
     <path d="M 92.937285 179.403634 
L 89.743371 179.867557 
" style="fill:none;stroke:#000000;stroke-linecap:square;stroke-width:0.8;"/>
    </g>
    <g id="text_25">
     <!-- 70 -->
     <g transform="translate(67.644334 187.362342)scale(0.1 -0.1)">
      <use xlink:href="#DejaVuSans-37"/>
      <use x="63.623047" xlink:href="#DejaVuSans-30"/>
     </g>
    </g>
   </g>
   <g id="xtick_23">
    <g id="line2d_26">
     <path d="M 92.732879 161.395156 
L 89.533656 161.825286 
" style="fill:none;stroke:#000000;stroke-linecap:square;stroke-width:0.8;"/>
    </g>
    <g id="text_26">
     <!-- 80 -->
     <g transform="translate(67.410485 169.32762)scale(0.1 -0.1)">
      <use xlink:href="#DejaVuSans-38"/>
      <use x="63.623047" xlink:href="#DejaVuSans-30"/>
     </g>
    </g>
   </g>
   <g id="xtick_24">
    <g id="line2d_27">
     <path d="M 92.527845 143.331232 
L 89.323294 143.72736 
" style="fill:none;stroke:#000000;stroke-linecap:square;stroke-width:0.8;"/>
    </g>
    <g id="text_27">
     <!-- 90 -->
     <g transform="translate(67.175915 151.237291)scale(0.1 -0.1)">
      <use xlink:href="#DejaVuSans-39"/>
      <use x="63.623047" xlink:href="#DejaVuSans-30"/>
     </g>
    </g>
   </g>
   <g id="xtick_25">
    <g id="line2d_28">
     <path d="M 92.322178 125.211608 
L 89.112281 125.573521 
" style="fill:none;stroke:#000000;stroke-linecap:square;stroke-width:0.8;"/>
    </g>
    <g id="text_28">
     <!-- 100 -->
     <g transform="translate(63.75937 133.091096)scale(0.1 -0.1)">
      <use xlink:href="#DejaVuSans-31"/>
      <use x="63.623047" xlink:href="#DejaVuSans-30"/>
      <use x="127.246094" xlink:href="#DejaVuSans-30"/>
     </g>
    </g>
   </g>
  </g>
  <g id="axes_1">
   <g id="Poly3DCollection_1">
    <path clip-path="url(#p9b15564fb2)" d="M 214.509558 286.381545 
L 231.20282 282.612623 
L 216.456424 280.282145 
L 199.717241 284.000149 
z
" style="fill:#134a71;stroke:#000000;stroke-width:1.5;"/>
    <path clip-path="url(#p9b15564fb2)" d="M 231.20282 282.612623 
L 216.456424 280.282145 
L 216.319993 112.903512 
L 231.279407 114.11529 
z
" style="fill:#1f77b4;stroke:#000000;stroke-width:1.5;"/>
    <path clip-path="url(#p9b15564fb2)" d="M 199.717241 284.000149 
L 216.456424 280.282145 
L 216.319993 112.903512 
L 199.335451 114.836875 
z
" style="fill:#103c5a;stroke:#000000;stroke-width:1.5;"/>
    <path clip-path="url(#p9b15564fb2)" d="M 229.506264 288.795845 
L 246.150758 284.974952 
L 231.20282 282.612623 
L 214.509558 286.381545 
z
" style="fill:#134a71;stroke:#000000;stroke-width:1.5;"/>
    <path clip-path="url(#p9b15564fb2)" d="M 246.150758 284.974952 
L 231.20282 282.612623 
L 231.279407 114.11529 
L 246.44626 115.343872 
z
" style="fill:#1f77b4;stroke:#000000;stroke-width:1.5;"/>
    <path clip-path="url(#p9b15564fb2)" d="M 214.509558 286.381545 
L 231.20282 282.612623 
L 231.279407 114.11529 
L 214.342108 116.075518 
z
" style="fill:#103c5a;stroke:#000000;stroke-width:1.5;"/>
    <path clip-path="url(#p9b15564fb2)" d="M 214.509558 286.381545 
L 231.20282 282.612623 
L 231.279407 114.11529 
L 214.342108 116.075518 
z
" style="fill:#103c5a;stroke:#000000;stroke-width:1.5;"/>
    <path clip-path="url(#p9b15564fb2)" d="M 197.448289 290.233554 
L 214.509558 286.381545 
L 199.717241 284.000149 
L 182.61158 287.799553 
z
" style="fill:#134a71;stroke:#000000;stroke-width:1.5;"/>
    <path clip-path="url(#p9b15564fb2)" d="M 214.509558 286.381545 
L 199.717241 284.000149 
L 199.335451 114.836875 
L 214.342108 116.075518 
z
" style="fill:#1f77b4;stroke:#000000;stroke-width:1.5;"/>
    <path clip-path="url(#p9b15564fb2)" d="M 214.509558 286.381545 
L 199.717241 284.000149 
L 199.335451 114.836875 
L 214.342108 116.075518 
z
" style="fill:#1f77b4;stroke:#000000;stroke-width:1.5;"/>
    <path clip-path="url(#p9b15564fb2)" d="M 244.711623 291.243737 
L 261.304396 287.36979 
L 246.150758 284.974952 
L 229.506264 288.795845 
z
" style="fill:#134a71;stroke:#000000;stroke-width:1.5;"/>
    <path clip-path="url(#p9b15564fb2)" d="M 214.342108 116.075518 
L 231.279407 114.11529 
L 216.319993 112.903512 
L 199.335451 114.836875 
z
" style="fill:#134a71;stroke:#000000;stroke-width:1.5;"/>
    <path clip-path="url(#p9b15564fb2)" d="M 182.61158 287.799553 
L 199.717241 284.000149 
L 199.335451 114.836875 
L 181.973582 116.813188 
z
" style="fill:#103c5a;stroke:#000000;stroke-width:1.5;"/>
    <path clip-path="url(#p9b15564fb2)" d="M 261.304396 287.36979 
L 246.150758 284.974952 
L 246.44626 115.343872 
L 261.824898 116.589609 
z
" style="fill:#1f77b4;stroke:#000000;stroke-width:1.5;"/>
    <path clip-path="url(#p9b15564fb2)" d="M 229.506264 288.795845 
L 246.150758 284.974952 
L 246.44626 115.343872 
L 229.559178 117.331528 
z
" style="fill:#103c5a;stroke:#000000;stroke-width:1.5;"/>
    <path clip-path="url(#p9b15564fb2)" d="M 229.506264 288.795845 
L 246.150758 284.974952 
L 246.44626 115.343872 
L 229.559178 117.331528 
z
" style="fill:#103c5a;stroke:#000000;stroke-width:1.5;"/>
    <path clip-path="url(#p9b15564fb2)" d="M 212.492275 292.70156 
L 229.506264 288.795845 
L 214.509558 286.381545 
L 197.448289 290.233554 
z
" style="fill:#134a71;stroke:#000000;stroke-width:1.5;"/>
    <path clip-path="url(#p9b15564fb2)" d="M 229.506264 288.795845 
L 214.509558 286.381545 
L 214.342108 116.075518 
L 229.559178 117.331528 
z
" style="fill:#1f77b4;stroke:#000000;stroke-width:1.5;"/>
    <path clip-path="url(#p9b15564fb2)" d="M 229.506264 288.795845 
L 214.509558 286.381545 
L 214.342108 116.075518 
L 229.559178 117.331528 
z
" style="fill:#1f77b4;stroke:#000000;stroke-width:1.5;"/>
    <path clip-path="url(#p9b15564fb2)" d="M 260.130021 293.725924 
L 276.668011 289.797811 
L 261.304396 287.36979 
L 244.711623 291.243737 
z
" style="fill:#134a71;stroke:#000000;stroke-width:1.5;"/>
    <path clip-path="url(#p9b15564fb2)" d="M 229.559178 117.331528 
L 246.44626 115.343872 
L 231.279407 114.11529 
L 214.342108 116.075518 
z
" style="fill:#134a71;stroke:#000000;stroke-width:1.5;"/>
    <path clip-path="url(#p9b15564fb2)" d="M 197.448289 290.233554 
L 214.509558 286.381545 
L 214.342108 116.075518 
L 197.025883 118.0796 
z
" style="fill:#103c5a;stroke:#000000;stroke-width:1.5;"/>
    <path clip-path="url(#p9b15564fb2)" d="M 197.448289 290.233554 
L 214.509558 286.381545 
L 214.342108 116.075518 
L 197.025883 118.0796 
z
" style="fill:#103c5a;stroke:#000000;stroke-width:1.5;"/>
    <path clip-path="url(#p9b15564fb2)" d="M 180.006707 294.171429 
L 197.448289 290.233554 
L 182.61158 287.799553 
L 165.127273 291.68306 
z
" style="fill:#134a71;stroke:#000000;stroke-width:1.5;"/>
    <path clip-path="url(#p9b15564fb2)" d="M 276.668011 289.797811 
L 261.304396 287.36979 
L 261.824898 116.589609 
L 277.419787 117.852863 
z
" style="fill:#1f77b4;stroke:#000000;stroke-width:1.5;"/>
    <path clip-path="url(#p9b15564fb2)" d="M 197.448289 290.233554 
L 182.61158 287.799553 
L 181.973582 116.813188 
L 197.025883 118.0796 
z
" style="fill:#1f77b4;stroke:#000000;stroke-width:1.5;"/>
    <path clip-path="url(#p9b15564fb2)" d="M 197.448289 290.233554 
L 182.61158 287.799553 
L 181.973582 116.813188 
L 197.025883 118.0796 
z
" style="fill:#1f77b4;stroke:#000000;stroke-width:1.5;"/>
    <path clip-path="url(#p9b15564fb2)" d="M 244.711623 291.243737 
L 261.304396 287.36979 
L 261.824898 116.589609 
L 244.991117 118.605274 
z
" style="fill:#103c5a;stroke:#000000;stroke-width:1.5;"/>
    <path clip-path="url(#p9b15564fb2)" d="M 244.711623 291.243737 
L 261.304396 287.36979 
L 261.824898 116.589609 
L 244.991117 118.605274 
z
" style="fill:#103c5a;stroke:#000000;stroke-width:1.5;"/>
    <path clip-path="url(#p9b15564fb2)" d="M 227.747911 295.204287 
L 244.711623 291.243737 
L 229.506264 288.795845 
L 212.492275 292.70156 
z
" style="fill:#134a71;stroke:#000000;stroke-width:1.5;"/>
    <path clip-path="url(#p9b15564fb2)" d="M 197.025883 118.0796 
L 214.342108 116.075518 
L 199.335451 114.836875 
L 181.973582 116.813188 
z
" style="fill:#134a71;stroke:#000000;stroke-width:1.5;"/>
    <path clip-path="url(#p9b15564fb2)" d="M 165.127273 291.68306 
L 182.61158 287.799553 
L 181.973582 116.813188 
L 164.221671 118.833901 
z
" style="fill:#103c5a;stroke:#000000;stroke-width:1.5;"/>
    <path clip-path="url(#p9b15564fb2)" d="M 244.711623 291.243737 
L 229.506264 288.795845 
L 229.559178 117.331528 
L 244.991117 118.605274 
z
" style="fill:#1f77b4;stroke:#000000;stroke-width:1.5;"/>
    <path clip-path="url(#p9b15564fb2)" d="M 244.711623 291.243737 
L 229.506264 288.795845 
L 229.559178 117.331528 
L 244.991117 118.605274 
z
" style="fill:#1f77b4;stroke:#000000;stroke-width:1.5;"/>
    <path clip-path="url(#p9b15564fb2)" d="M 275.765966 296.243135 
L 292.245997 292.259712 
L 276.668011 289.797811 
L 260.130021 293.725924 
z
" style="fill:#134a71;stroke:#000000;stroke-width:1.5;"/>
    <path clip-path="url(#p9b15564fb2)" d="M 244.991117 118.605274 
L 261.824898 116.589609 
L 246.44626 115.343872 
L 229.559178 117.331528 
z
" style="fill:#134a71;stroke:#000000;stroke-width:1.5;"/>
    <path clip-path="url(#p9b15564fb2)" d="M 212.492275 292.70156 
L 229.506264 288.795845 
L 229.559178 117.331528 
L 212.291615 119.363968 
z
" style="fill:#103c5a;stroke:#000000;stroke-width:1.5;"/>
    <path clip-path="url(#p9b15564fb2)" d="M 212.492275 292.70156 
L 229.506264 288.795845 
L 229.559178 117.331528 
L 212.291615 119.363968 
z
" style="fill:#103c5a;stroke:#000000;stroke-width:1.5;"/>
    <path clip-path="url(#p9b15564fb2)" d="M 195.096348 296.694951 
L 212.492275 292.70156 
L 197.448289 290.233554 
L 180.006707 294.171429 
z
" style="fill:#134a71;stroke:#000000;stroke-width:1.5;"/>
    <path clip-path="url(#p9b15564fb2)" d="M 292.245997 292.259712 
L 276.668011 289.797811 
L 277.419787 117.852863 
L 293.235521 119.134007 
z
" style="fill:#1f77b4;stroke:#000000;stroke-width:1.5;"/>
    <path clip-path="url(#p9b15564fb2)" d="M 212.492275 292.70156 
L 197.448289 290.233554 
L 197.025883 118.0796 
L 212.291615 119.363968 
z
" style="fill:#1f77b4;stroke:#000000;stroke-width:1.5;"/>
    <path clip-path="url(#p9b15564fb2)" d="M 212.492275 292.70156 
L 197.448289 290.233554 
L 197.025883 118.0796 
L 212.291615 119.363968 
z
" style="fill:#1f77b4;stroke:#000000;stroke-width:1.5;"/>
    <path clip-path="url(#p9b15564fb2)" d="M 260.130021 293.725924 
L 276.668011 289.797811 
L 277.419787 117.852863 
L 260.642509 119.897133 
z
" style="fill:#103c5a;stroke:#000000;stroke-width:1.5;"/>
    <path clip-path="url(#p9b15564fb2)" d="M 260.130021 293.725924 
L 276.668011 289.797811 
L 277.419787 117.852863 
L 260.642509 119.897133 
z
" style="fill:#103c5a;stroke:#000000;stroke-width:1.5;"/>
    <path clip-path="url(#p9b15564fb2)" d="M 243.219697 297.742474 
L 260.130021 293.725924 
L 244.711623 291.243737 
L 227.747911 295.204287 
z
" style="fill:#134a71;stroke:#000000;stroke-width:1.5;"/>
    <path clip-path="url(#p9b15564fb2)" d="M 212.291615 119.363968 
L 229.559178 117.331528 
L 214.342108 116.075518 
L 197.025883 118.0796 
z
" style="fill:#134a71;stroke:#000000;stroke-width:1.5;"/>
    <path clip-path="url(#p9b15564fb2)" d="M 180.006707 294.171429 
L 197.448289 290.233554 
L 197.025883 118.0796 
L 179.317873 120.129025 
z
" style="fill:#103c5a;stroke:#000000;stroke-width:1.5;"/>
    <path clip-path="url(#p9b15564fb2)" d="M 180.006707 294.171429 
L 197.448289 290.233554 
L 197.025883 118.0796 
L 179.317873 120.129025 
z
" style="fill:#103c5a;stroke:#000000;stroke-width:1.5;"/>
    <path clip-path="url(#p9b15564fb2)" d="M 162.171954 298.198071 
L 180.006707 294.171429 
L 165.127273 291.68306 
L 147.251608 295.653493 
z
" style="fill:#134a71;stroke:#000000;stroke-width:1.5;"/>
    <path clip-path="url(#p9b15564fb2)" d="M 260.130021 293.725924 
L 244.711623 291.243737 
L 244.991117 118.605274 
L 260.642509 119.897133 
z
" style="fill:#1f77b4;stroke:#000000;stroke-width:1.5;"/>
    <path clip-path="url(#p9b15564fb2)" d="M 260.130021 293.725924 
L 244.711623 291.243737 
L 244.991117 118.605274 
L 260.642509 119.897133 
z
" style="fill:#1f77b4;stroke:#000000;stroke-width:1.5;"/>
    <path clip-path="url(#p9b15564fb2)" d="M 291.624096 298.796115 
L 308.042874 294.756205 
L 292.245997 292.259712 
L 275.765966 296.243135 
z
" style="fill:#134a71;stroke:#000000;stroke-width:1.5;"/>
    <path clip-path="url(#p9b15564fb2)" d="M 180.006707 294.171429 
L 165.127273 291.68306 
L 164.221671 118.833901 
L 179.317873 120.129025 
z
" style="fill:#1f77b4;stroke:#000000;stroke-width:1.5;"/>
    <path clip-path="url(#p9b15564fb2)" d="M 180.006707 294.171429 
L 165.127273 291.68306 
L 164.221671 118.833901 
L 179.317873 120.129025 
z
" style="fill:#1f77b4;stroke:#000000;stroke-width:1.5;"/>
    <path clip-path="url(#p9b15564fb2)" d="M 260.642509 119.897133 
L 277.419787 117.852863 
L 261.824898 116.589609 
L 244.991117 118.605274 
z
" style="fill:#134a71;stroke:#000000;stroke-width:1.5;"/>
    <path clip-path="url(#p9b15564fb2)" d="M 227.747911 295.204287 
L 244.711623 291.243737 
L 244.991117 118.605274 
L 227.775348 120.666677 
z
" style="fill:#103c5a;stroke:#000000;stroke-width:1.5;"/>
    <path clip-path="url(#p9b15564fb2)" d="M 227.747911 295.204287 
L 244.711623 291.243737 
L 244.991117 118.605274 
L 227.775348 120.666677 
z
" style="fill:#103c5a;stroke:#000000;stroke-width:1.5;"/>
    <path clip-path="url(#p9b15564fb2)" d="M 210.400682 299.254378 
L 227.747911 295.204287 
L 212.492275 292.70156 
L 195.096348 296.694951 
z
" style="fill:#134a71;stroke:#000000;stroke-width:1.5;"/>
    <path clip-path="url(#p9b15564fb2)" d="M 308.042874 294.756205 
L 292.245997 292.259712 
L 293.235521 119.134007 
L 309.276825 120.433423 
z
" style="fill:#1f77b4;stroke:#000000;stroke-width:1.5;"/>
    <path clip-path="url(#p9b15564fb2)" d="M 179.317873 120.129025 
L 197.025883 118.0796 
L 181.973582 116.813188 
L 164.221671 118.833901 
z
" style="fill:#134a71;stroke:#000000;stroke-width:1.5;"/>
    <path clip-path="url(#p9b15564fb2)" d="M 147.251608 295.653493 
L 165.127273 291.68306 
L 164.221671 118.833901 
L 146.066426 120.900525 
z
" style="fill:#103c5a;stroke:#000000;stroke-width:1.5;"/>
    <path clip-path="url(#p9b15564fb2)" d="M 227.747911 295.204287 
L 212.492275 292.70156 
L 212.291615 119.363968 
L 227.775348 120.666677 
z
" style="fill:#1f77b4;stroke:#000000;stroke-width:1.5;"/>
    <path clip-path="url(#p9b15564fb2)" d="M 227.747911 295.204287 
L 212.492275 292.70156 
L 212.291615 119.363968 
L 227.775348 120.666677 
z
" style="fill:#1f77b4;stroke:#000000;stroke-width:1.5;"/>
    <path clip-path="url(#p9b15564fb2)" d="M 275.765966 296.243135 
L 292.245997 292.259712 
L 293.235521 119.134007 
L 276.518068 121.207495 
z
" style="fill:#103c5a;stroke:#000000;stroke-width:1.5;"/>
    <path clip-path="url(#p9b15564fb2)" d="M 275.765966 296.243135 
L 292.245997 292.259712 
L 293.235521 119.134007 
L 276.518068 121.207495 
z
" style="fill:#103c5a;stroke:#000000;stroke-width:1.5;"/>
    <path clip-path="url(#p9b15564fb2)" d="M 258.912259 300.31688 
L 275.765966 296.243135 
L 260.130021 293.725924 
L 243.219697 297.742474 
z
" style="fill:#134a71;stroke:#000000;stroke-width:1.5;"/>
    <path clip-path="url(#p9b15564fb2)" d="M 227.775348 120.666677 
L 244.991117 118.605274 
L 229.559178 117.331528 
L 212.291615 119.363968 
z
" style="fill:#134a71;stroke:#000000;stroke-width:1.5;"/>
    <path clip-path="url(#p9b15564fb2)" d="M 195.096348 296.694951 
L 212.492275 292.70156 
L 212.291615 119.363968 
L 194.630565 121.442722 
z
" style="fill:#103c5a;stroke:#000000;stroke-width:1.5;"/>
    <path clip-path="url(#p9b15564fb2)" d="M 195.096348 296.694951 
L 212.492275 292.70156 
L 212.291615 119.363968 
L 194.630565 121.442722 
z
" style="fill:#103c5a;stroke:#000000;stroke-width:1.5;"/>
    <path clip-path="url(#p9b15564fb2)" d="M 177.305478 300.779006 
L 195.096348 296.694951 
L 180.006707 294.171429 
L 162.171954 298.198071 
z
" style="fill:#134a71;stroke:#000000;stroke-width:1.5;"/>
    <path clip-path="url(#p9b15564fb2)" d="M 275.765966 296.243135 
L 260.130021 293.725924 
L 260.642509 119.897133 
L 276.518068 121.207495 
z
" style="fill:#1f77b4;stroke:#000000;stroke-width:1.5;"/>
    <path clip-path="url(#p9b15564fb2)" d="M 275.765966 296.243135 
L 260.130021 293.725924 
L 260.642509 119.897133 
L 276.518068 121.207495 
z
" style="fill:#1f77b4;stroke:#000000;stroke-width:1.5;"/>
    <path clip-path="url(#p9b15564fb2)" d="M 307.709179 301.385632 
L 324.063286 297.288025 
L 308.042874 294.756205 
L 291.624096 298.796115 
z
" style="fill:#134a71;stroke:#000000;stroke-width:1.5;"/>
    <path clip-path="url(#p9b15564fb2)" d="M 195.096348 296.694951 
L 180.006707 294.171429 
L 179.317873 120.129025 
L 194.630565 121.442722 
z
" style="fill:#1f77b4;stroke:#000000;stroke-width:1.5;"/>
    <path clip-path="url(#p9b15564fb2)" d="M 195.096348 296.694951 
L 180.006707 294.171429 
L 179.317873 120.129025 
L 194.630565 121.442722 
z
" style="fill:#1f77b4;stroke:#000000;stroke-width:1.5;"/>
    <path clip-path="url(#p9b15564fb2)" d="M 276.518068 121.207495 
L 293.235521 119.134007 
L 277.419787 117.852863 
L 260.642509 119.897133 
z
" style="fill:#134a71;stroke:#000000;stroke-width:1.5;"/>
    <path clip-path="url(#p9b15564fb2)" d="M 243.219697 297.742474 
L 260.130021 293.725924 
L 260.642509 119.897133 
L 243.481787 121.988124 
z
" style="fill:#103c5a;stroke:#000000;stroke-width:1.5;"/>
    <path clip-path="url(#p9b15564fb2)" d="M 243.219697 297.742474 
L 260.130021 293.725924 
L 260.642509 119.897133 
L 243.481787 121.988124 
z
" style="fill:#103c5a;stroke:#000000;stroke-width:1.5;"/>
    <path clip-path="url(#p9b15564fb2)" d="M 225.924324 301.850481 
L 243.219697 297.742474 
L 227.747911 295.204287 
L 210.400682 299.254378 
z
" style="fill:#134a71;stroke:#000000;stroke-width:1.5;"/>
    <path clip-path="url(#p9b15564fb2)" d="M 324.063286 297.288025 
L 308.042874 294.756205 
L 309.276825 120.433423 
L 325.548559 121.751505 
z
" style="fill:#1f77b4;stroke:#000000;stroke-width:1.5;"/>
    <path clip-path="url(#p9b15564fb2)" d="M 194.630565 121.442722 
L 212.291615 119.363968 
L 197.025883 118.0796 
L 179.317873 120.129025 
z
" style="fill:#134a71;stroke:#000000;stroke-width:1.5;"/>
    <path clip-path="url(#p9b15564fb2)" d="M 162.171954 298.198071 
L 180.006707 294.171429 
L 179.317873 120.129025 
L 161.204627 122.22535 
z
" style="fill:#103c5a;stroke:#000000;stroke-width:1.5;"/>
    <path clip-path="url(#p9b15564fb2)" d="M 162.171954 298.198071 
L 180.006707 294.171429 
L 179.317873 120.129025 
L 161.204627 122.22535 
z
" style="fill:#103c5a;stroke:#000000;stroke-width:1.5;"/>
    <path clip-path="url(#p9b15564fb2)" d="M 143.930583 302.316518 
L 162.171954 298.198071 
L 147.251608 295.653493 
L 128.971294 299.713804 
z
" style="fill:#134a71;stroke:#000000;stroke-width:1.5;"/>
    <path clip-path="url(#p9b15564fb2)" d="M 243.219697 297.742474 
L 227.747911 295.204287 
L 227.775348 120.666677 
L 243.481787 121.988124 
z
" style="fill:#1f77b4;stroke:#000000;stroke-width:1.5;"/>
    <path clip-path="url(#p9b15564fb2)" d="M 243.219697 297.742474 
L 227.747911 295.204287 
L 227.775348 120.666677 
L 243.481787 121.988124 
z
" style="fill:#1f77b4;stroke:#000000;stroke-width:1.5;"/>
    <path clip-path="url(#p9b15564fb2)" d="M 291.624096 298.796115 
L 308.042874 294.756205 
L 309.276825 120.433423 
L 292.622646 122.53676 
z
" style="fill:#103c5a;stroke:#000000;stroke-width:1.5;"/>
    <path clip-path="url(#p9b15564fb2)" d="M 291.624096 298.796115 
L 308.042874 294.756205 
L 309.276825 120.433423 
L 292.622646 122.53676 
z
" style="fill:#103c5a;stroke:#000000;stroke-width:1.5;"/>
    <path clip-path="url(#p9b15564fb2)" d="M 274.830356 302.928286 
L 291.624096 298.796115 
L 275.765966 296.243135 
L 258.912259 300.31688 
z
" style="fill:#134a71;stroke:#000000;stroke-width:1.5;"/>
    <path clip-path="url(#p9b15564fb2)" d="M 162.171954 298.198071 
L 147.251608 295.653493 
L 146.066426 120.900525 
L 161.204627 122.22535 
z
" style="fill:#1f77b4;stroke:#000000;stroke-width:1.5;"/>
    <path clip-path="url(#p9b15564fb2)" d="M 162.171954 298.198071 
L 147.251608 295.653493 
L 146.066426 120.900525 
L 161.204627 122.22535 
z
" style="fill:#1f77b4;stroke:#000000;stroke-width:1.5;"/>
    <path clip-path="url(#p9b15564fb2)" d="M 243.481787 121.988124 
L 260.642509 119.897133 
L 244.991117 118.605274 
L 227.775348 120.666677 
z
" style="fill:#134a71;stroke:#000000;stroke-width:1.5;"/>
    <path clip-path="url(#p9b15564fb2)" d="M 210.400682 299.254378 
L 227.747911 295.204287 
L 227.775348 120.666677 
L 210.16444 122.775395 
z
" style="fill:#103c5a;stroke:#000000;stroke-width:1.5;"/>
    <path clip-path="url(#p9b15564fb2)" d="M 210.400682 299.254378 
L 227.747911 295.204287 
L 227.775348 120.666677 
L 210.16444 122.775395 
z
" style="fill:#103c5a;stroke:#000000;stroke-width:1.5;"/>
    <path clip-path="url(#p9b15564fb2)" d="M 192.656781 303.397081 
L 210.400682 299.254378 
L 195.096348 296.694951 
L 177.305478 300.779006 
z
" style="fill:#134a71;stroke:#000000;stroke-width:1.5;"/>
    <path clip-path="url(#p9b15564fb2)" d="M 291.624096 298.796115 
L 275.765966 296.243135 
L 276.518068 121.207495 
L 292.622646 122.53676 
z
" style="fill:#1f77b4;stroke:#000000;stroke-width:1.5;"/>
    <path clip-path="url(#p9b15564fb2)" d="M 291.624096 298.796115 
L 275.765966 296.243135 
L 276.518068 121.207495 
L 292.622646 122.53676 
z
" style="fill:#1f77b4;stroke:#000000;stroke-width:1.5;"/>
    <path clip-path="url(#p9b15564fb2)" d="M 161.204627 122.22535 
L 179.317873 120.129025 
L 164.221671 118.833901 
L 146.066426 120.900525 
z
" style="fill:#134a71;stroke:#000000;stroke-width:1.5;"/>
    <path clip-path="url(#p9b15564fb2)" d="M 128.971294 299.713804 
L 147.251608 295.653493 
L 146.066426 120.900525 
L 127.493942 123.014644 
z
" style="fill:#103c5a;stroke:#000000;stroke-width:1.5;"/>
    <path clip-path="url(#p9b15564fb2)" d="M 324.026125 304.012476 
L 340.312012 299.855927 
L 324.063286 297.288025 
L 307.709179 301.385632 
z
" style="fill:#134a71;stroke:#000000;stroke-width:1.5;"/>
    <path clip-path="url(#p9b15564fb2)" d="M 210.400682 299.254378 
L 195.096348 296.694951 
L 194.630565 121.442722 
L 210.16444 122.775395 
z
" style="fill:#1f77b4;stroke:#000000;stroke-width:1.5;"/>
    <path clip-path="url(#p9b15564fb2)" d="M 210.400682 299.254378 
L 195.096348 296.694951 
L 194.630565 121.442722 
L 210.16444 122.775395 
z
" style="fill:#1f77b4;stroke:#000000;stroke-width:1.5;"/>
    <path clip-path="url(#p9b15564fb2)" d="M 292.622646 122.53676 
L 309.276825 120.433423 
L 293.235521 119.134007 
L 276.518068 121.207495 
z
" style="fill:#134a71;stroke:#000000;stroke-width:1.5;"/>
    <path clip-path="url(#p9b15564fb2)" d="M 340.312012 299.855927 
L 324.063286 297.288025 
L 325.33792 146.645801 
L 341.808411 148.159817 
z
" style="fill:#1f77b4;stroke:#000000;stroke-width:1.5;"/>
    <path clip-path="url(#p9b15564fb2)" d="M 258.912259 300.31688 
L 275.765966 296.243135 
L 276.518068 121.207495 
L 259.415771 123.328715 
z
" style="fill:#103c5a;stroke:#000000;stroke-width:1.5;"/>
    <path clip-path="url(#p9b15564fb2)" d="M 258.912259 300.31688 
L 275.765966 296.243135 
L 276.518068 121.207495 
L 259.415771 123.328715 
z
" style="fill:#103c5a;stroke:#000000;stroke-width:1.5;"/>
    <path clip-path="url(#p9b15564fb2)" d="M 241.672022 304.484054 
L 258.912259 300.31688 
L 243.219697 297.742474 
L 225.924324 301.850481 
z
" style="fill:#134a71;stroke:#000000;stroke-width:1.5;"/>
    <path clip-path="url(#p9b15564fb2)" d="M 210.16444 122.775395 
L 227.775348 120.666677 
L 212.291615 119.363968 
L 194.630565 121.442722 
z
" style="fill:#134a71;stroke:#000000;stroke-width:1.5;"/>
    <path clip-path="url(#p9b15564fb2)" d="M 177.305478 300.779006 
L 195.096348 296.694951 
L 194.630565 121.442722 
L 176.562424 123.569392 
z
" style="fill:#103c5a;stroke:#000000;stroke-width:1.5;"/>
    <path clip-path="url(#p9b15564fb2)" d="M 177.305478 300.779006 
L 195.096348 296.694951 
L 194.630565 121.442722 
L 176.562424 123.569392 
z
" style="fill:#103c5a;stroke:#000000;stroke-width:1.5;"/>
    <path clip-path="url(#p9b15564fb2)" d="M 159.106059 304.956846 
L 177.305478 300.779006 
L 162.171954 298.198071 
L 143.930583 302.316518 
z
" style="fill:#134a71;stroke:#000000;stroke-width:1.5;"/>
    <path clip-path="url(#p9b15564fb2)" d="M 307.709179 301.385632 
L 324.063286 297.288025 
L 325.33792 146.645801 
L 308.783642 149.061852 
z
" style="fill:#103c5a;stroke:#000000;stroke-width:1.5;"/>
    <path clip-path="url(#p9b15564fb2)" d="M 258.912259 300.31688 
L 243.219697 297.742474 
L 243.481787 121.988124 
L 259.415771 123.328715 
z
" style="fill:#1f77b4;stroke:#000000;stroke-width:1.5;"/>
    <path clip-path="url(#p9b15564fb2)" d="M 258.912259 300.31688 
L 243.219697 297.742474 
L 243.481787 121.988124 
L 259.415771 123.328715 
z
" style="fill:#1f77b4;stroke:#000000;stroke-width:1.5;"/>
    <path clip-path="url(#p9b15564fb2)" d="M 307.709179 301.385632 
L 324.063286 297.288025 
L 325.548559 121.751505 
L 308.961233 123.88534 
z
" style="fill:#103c5a;stroke:#000000;stroke-width:1.5;"/>
    <path clip-path="url(#p9b15564fb2)" d="M 290.978885 305.577494 
L 307.709179 301.385632 
L 291.624096 298.796115 
L 274.830356 302.928286 
z
" style="fill:#134a71;stroke:#000000;stroke-width:1.5;"/>
    <path clip-path="url(#p9b15564fb2)" d="M 177.305478 300.779006 
L 162.171954 298.198071 
L 161.204627 122.22535 
L 176.562424 123.569392 
z
" style="fill:#1f77b4;stroke:#000000;stroke-width:1.5;"/>
    <path clip-path="url(#p9b15564fb2)" d="M 177.305478 300.779006 
L 162.171954 298.198071 
L 161.204627 122.22535 
L 176.562424 123.569392 
z
" style="fill:#1f77b4;stroke:#000000;stroke-width:1.5;"/>
    <path clip-path="url(#p9b15564fb2)" d="M 259.415771 123.328715 
L 276.518068 121.207495 
L 260.642509 119.897133 
L 243.481787 121.988124 
z
" style="fill:#134a71;stroke:#000000;stroke-width:1.5;"/>
    <path clip-path="url(#p9b15564fb2)" d="M 225.924324 301.850481 
L 243.219697 297.742474 
L 243.481787 121.988124 
L 225.924324 124.127457 
z
" style="fill:#103c5a;stroke:#000000;stroke-width:1.5;"/>
    <path clip-path="url(#p9b15564fb2)" d="M 225.924324 301.850481 
L 243.219697 297.742474 
L 243.481787 121.988124 
L 225.924324 124.127457 
z
" style="fill:#103c5a;stroke:#000000;stroke-width:1.5;"/>
    <path clip-path="url(#p9b15564fb2)" d="M 143.930583 302.316518 
L 128.971294 299.713804 
L 128.134685 199.650921 
L 143.217938 201.552162 
z
" style="fill:#1f77b4;stroke:#000000;stroke-width:1.5;"/>
    <path clip-path="url(#p9b15564fb2)" d="M 208.230599 306.053105 
L 225.924324 301.850481 
L 210.400682 299.254378 
L 192.656781 303.397081 
z
" style="fill:#134a71;stroke:#000000;stroke-width:1.5;"/>
    <path clip-path="url(#p9b15564fb2)" d="M 307.709179 301.385632 
L 291.624096 298.796115 
L 292.622646 122.53676 
L 308.961233 123.88534 
z
" style="fill:#1f77b4;stroke:#000000;stroke-width:1.5;"/>
    <path clip-path="url(#p9b15564fb2)" d="M 307.709179 301.385632 
L 291.624096 298.796115 
L 292.622646 122.53676 
L 308.961233 123.88534 
z
" style="fill:#1f77b4;stroke:#000000;stroke-width:1.5;"/>
    <path clip-path="url(#p9b15564fb2)" d="M 176.562424 123.569392 
L 194.630565 121.442722 
L 179.317873 120.129025 
L 161.204627 122.22535 
z
" style="fill:#134a71;stroke:#000000;stroke-width:1.5;"/>
    <path clip-path="url(#p9b15564fb2)" d="M 143.930583 302.316518 
L 162.171954 298.198071 
L 161.204627 122.22535 
L 142.672076 124.370202 
z
" style="fill:#103c5a;stroke:#000000;stroke-width:1.5;"/>
    <path clip-path="url(#p9b15564fb2)" d="M 143.930583 302.316518 
L 162.171954 298.198071 
L 161.204627 122.22535 
L 142.672076 124.370202 
z
" style="fill:#103c5a;stroke:#000000;stroke-width:1.5;"/>
    <path clip-path="url(#p9b15564fb2)" d="M 125.268527 306.529945 
L 143.930583 302.316518 
L 128.971294 299.713804 
L 110.272436 303.867079 
z
" style="fill:#134a71;stroke:#000000;stroke-width:1.5;"/>
    <path clip-path="url(#p9b15564fb2)" d="M 225.924324 301.850481 
L 210.400682 299.254378 
L 210.16444 122.775395 
L 225.924324 124.127457 
z
" style="fill:#1f77b4;stroke:#000000;stroke-width:1.5;"/>
    <path clip-path="url(#p9b15564fb2)" d="M 225.924324 301.850481 
L 210.400682 299.254378 
L 210.16444 122.775395 
L 225.924324 124.127457 
z
" style="fill:#1f77b4;stroke:#000000;stroke-width:1.5;"/>
    <path clip-path="url(#p9b15564fb2)" d="M 110.272436 303.867079 
L 128.971294 299.713804 
L 128.134685 199.650921 
L 109.26295 202.684933 
z
" style="fill:#103c5a;stroke:#000000;stroke-width:1.5;"/>
    <path clip-path="url(#p9b15564fb2)" d="M 308.961233 123.88534 
L 325.548559 121.751505 
L 309.276825 120.433423 
L 292.622646 122.53676 
z
" style="fill:#134a71;stroke:#000000;stroke-width:1.5;"/>
    <path clip-path="url(#p9b15564fb2)" d="M 274.830356 302.928286 
L 291.624096 298.796115 
L 292.622646 122.53676 
L 275.582281 124.688869 
z
" style="fill:#103c5a;stroke:#000000;stroke-width:1.5;"/>
    <path clip-path="url(#p9b15564fb2)" d="M 274.830356 302.928286 
L 291.624096 298.796115 
L 292.622646 122.53676 
L 275.582281 124.688869 
z
" style="fill:#103c5a;stroke:#000000;stroke-width:1.5;"/>
    <path clip-path="url(#p9b15564fb2)" d="M 257.648662 307.155915 
L 274.830356 302.928286 
L 258.912259 300.31688 
L 241.672022 304.484054 
z
" style="fill:#134a71;stroke:#000000;stroke-width:1.5;"/>
    <path clip-path="url(#p9b15564fb2)" d="M 143.930583 302.316518 
L 128.971294 299.713804 
L 127.493942 123.014644 
L 142.672076 124.370202 
z
" style="fill:#1f77b4;stroke:#000000;stroke-width:1.5;"/>
    <path clip-path="url(#p9b15564fb2)" d="M 225.924324 124.127457 
L 243.481787 121.988124 
L 227.775348 120.666677 
L 210.16444 122.775395 
z
" style="fill:#134a71;stroke:#000000;stroke-width:1.5;"/>
    <path clip-path="url(#p9b15564fb2)" d="M 192.656781 303.397081 
L 210.400682 299.254378 
L 210.16444 122.775395 
L 192.144631 124.933074 
z
" style="fill:#103c5a;stroke:#000000;stroke-width:1.5;"/>
    <path clip-path="url(#p9b15564fb2)" d="M 192.656781 303.397081 
L 210.400682 299.254378 
L 210.16444 122.775395 
L 192.144631 124.933074 
z
" style="fill:#103c5a;stroke:#000000;stroke-width:1.5;"/>
    <path clip-path="url(#p9b15564fb2)" d="M 174.502444 307.635609 
L 192.656781 303.397081 
L 177.305478 300.779006 
L 159.106059 304.956846 
z
" style="fill:#134a71;stroke:#000000;stroke-width:1.5;"/>
    <path clip-path="url(#p9b15564fb2)" d="M 324.026125 304.012476 
L 340.312012 299.855927 
L 341.808411 148.159817 
L 325.324366 150.611081 
z
" style="fill:#103c5a;stroke:#000000;stroke-width:1.5;"/>
    <path clip-path="url(#p9b15564fb2)" d="M 274.830356 302.928286 
L 258.912259 300.31688 
L 259.415771 123.328715 
L 275.582281 124.688869 
z
" style="fill:#1f77b4;stroke:#000000;stroke-width:1.5;"/>
    <path clip-path="url(#p9b15564fb2)" d="M 274.830356 302.928286 
L 258.912259 300.31688 
L 259.415771 123.328715 
L 275.582281 124.688869 
z
" style="fill:#1f77b4;stroke:#000000;stroke-width:1.5;"/>
    <path clip-path="url(#p9b15564fb2)" d="M 142.672076 124.370202 
L 161.204627 122.22535 
L 146.066426 120.900525 
L 127.493942 123.014644 
z
" style="fill:#134a71;stroke:#000000;stroke-width:1.5;"/>
    <path clip-path="url(#p9b15564fb2)" d="M 324.026125 304.012476 
L 307.709179 301.385632 
L 308.644639 168.767977 
L 325.156399 170.458253 
z
" style="fill:#1f77b4;stroke:#000000;stroke-width:1.5;"/>
    <path clip-path="url(#p9b15564fb2)" d="M 307.362888 308.265333 
L 324.026125 304.012476 
L 307.709179 301.385632 
L 290.978885 305.577494 
z
" style="fill:#134a71;stroke:#000000;stroke-width:1.5;"/>
    <path clip-path="url(#p9b15564fb2)" d="M 192.656781 303.397081 
L 177.305478 300.779006 
L 176.562424 123.569392 
L 192.144631 124.933074 
z
" style="fill:#1f77b4;stroke:#000000;stroke-width:1.5;"/>
    <path clip-path="url(#p9b15564fb2)" d="M 192.656781 303.397081 
L 177.305478 300.779006 
L 176.562424 123.569392 
L 192.144631 124.933074 
z
" style="fill:#1f77b4;stroke:#000000;stroke-width:1.5;"/>
    <path clip-path="url(#p9b15564fb2)" d="M 275.582281 124.688869 
L 292.622646 122.53676 
L 276.518068 121.207495 
L 259.415771 123.328715 
z
" style="fill:#134a71;stroke:#000000;stroke-width:1.5;"/>
    <path clip-path="url(#p9b15564fb2)" d="M 324.026125 304.012476 
L 307.709179 301.385632 
L 308.783642 149.061852 
L 325.324366 150.611081 
z
" style="fill:#1f77b4;stroke:#000000;stroke-width:1.5;"/>
    <path clip-path="url(#p9b15564fb2)" d="M 241.672022 304.484054 
L 258.912259 300.31688 
L 259.415771 123.328715 
L 241.915187 125.499335 
z
" style="fill:#103c5a;stroke:#000000;stroke-width:1.5;"/>
    <path clip-path="url(#p9b15564fb2)" d="M 241.672022 304.484054 
L 258.912259 300.31688 
L 259.415771 123.328715 
L 241.915187 125.499335 
z
" style="fill:#103c5a;stroke:#000000;stroke-width:1.5;"/>
    <path clip-path="url(#p9b15564fb2)" d="M 224.031804 308.747909 
L 241.672022 304.484054 
L 225.924324 301.850481 
L 208.230599 306.053105 
z
" style="fill:#134a71;stroke:#000000;stroke-width:1.5;"/>
    <path clip-path="url(#p9b15564fb2)" d="M 325.324366 150.611081 
L 341.808411 148.159817 
L 325.33792 146.645801 
L 308.783642 149.061852 
z
" style="fill:#134a71;stroke:#000000;stroke-width:1.5;"/>
    <path clip-path="url(#p9b15564fb2)" d="M 192.144631 124.933074 
L 210.16444 122.775395 
L 194.630565 121.442722 
L 176.562424 123.569392 
z
" style="fill:#134a71;stroke:#000000;stroke-width:1.5;"/>
    <path clip-path="url(#p9b15564fb2)" d="M 290.978885 305.577494 
L 307.709179 301.385632 
L 308.644639 168.767977 
L 291.73164 171.465416 
z
" style="fill:#103c5a;stroke:#000000;stroke-width:1.5;"/>
    <path clip-path="url(#p9b15564fb2)" d="M 159.106059 304.956846 
L 177.305478 300.779006 
L 176.562424 123.569392 
L 158.072953 125.745654 
z
" style="fill:#103c5a;stroke:#000000;stroke-width:1.5;"/>
    <path clip-path="url(#p9b15564fb2)" d="M 159.106059 304.956846 
L 177.305478 300.779006 
L 176.562424 123.569392 
L 158.072953 125.745654 
z
" style="fill:#103c5a;stroke:#000000;stroke-width:1.5;"/>
    <path clip-path="url(#p9b15564fb2)" d="M 140.483856 309.23174 
L 159.106059 304.956846 
L 143.930583 302.316518 
L 125.268527 306.529945 
z
" style="fill:#134a71;stroke:#000000;stroke-width:1.5;"/>
    <path clip-path="url(#p9b15564fb2)" d="M 159.106059 304.956846 
L 143.930583 302.316518 
L 142.914157 158.599122 
L 158.271694 160.220967 
z
" style="fill:#1f77b4;stroke:#000000;stroke-width:1.5;"/>
    <path clip-path="url(#p9b15564fb2)" d="M 241.672022 304.484054 
L 225.924324 301.850481 
L 225.924324 124.127457 
L 241.915187 125.499335 
z
" style="fill:#1f77b4;stroke:#000000;stroke-width:1.5;"/>
    <path clip-path="url(#p9b15564fb2)" d="M 241.672022 304.484054 
L 225.924324 301.850481 
L 225.924324 124.127457 
L 241.915187 125.499335 
z
" style="fill:#1f77b4;stroke:#000000;stroke-width:1.5;"/>
    <path clip-path="url(#p9b15564fb2)" d="M 125.268527 306.529945 
L 143.930583 302.316518 
L 143.217938 201.552162 
L 124.383505 204.630501 
z
" style="fill:#103c5a;stroke:#000000;stroke-width:1.5;"/>
    <path clip-path="url(#p9b15564fb2)" d="M 124.383505 204.630501 
L 143.217938 201.552162 
L 128.134685 199.650921 
L 109.26295 202.684933 
z
" style="fill:#134a71;stroke:#000000;stroke-width:1.5;"/>
    <path clip-path="url(#p9b15564fb2)" d="M 290.978885 305.577494 
L 307.709179 301.385632 
L 308.961233 123.88534 
L 291.986445 126.069018 
z
" style="fill:#103c5a;stroke:#000000;stroke-width:1.5;"/>
    <path clip-path="url(#p9b15564fb2)" d="M 273.859273 309.866903 
L 290.978885 305.577494 
L 274.830356 302.928286 
L 257.648662 307.155915 
z
" style="fill:#134a71;stroke:#000000;stroke-width:1.5;"/>
    <path clip-path="url(#p9b15564fb2)" d="M 159.106059 304.956846 
L 143.930583 302.316518 
L 142.672076 124.370202 
L 158.072953 125.745654 
z
" style="fill:#1f77b4;stroke:#000000;stroke-width:1.5;"/>
    <path clip-path="url(#p9b15564fb2)" d="M 241.915187 125.499335 
L 259.415771 123.328715 
L 243.481787 121.988124 
L 225.924324 124.127457 
z
" style="fill:#134a71;stroke:#000000;stroke-width:1.5;"/>
    <path clip-path="url(#p9b15564fb2)" d="M 125.268527 306.529945 
L 143.930583 302.316518 
L 142.914157 158.599122 
L 124.006191 161.187395 
z
" style="fill:#103c5a;stroke:#000000;stroke-width:1.5;"/>
    <path clip-path="url(#p9b15564fb2)" d="M 208.230599 306.053105 
L 225.924324 301.850481 
L 225.924324 124.127457 
L 207.956201 126.316828 
z
" style="fill:#103c5a;stroke:#000000;stroke-width:1.5;"/>
    <path clip-path="url(#p9b15564fb2)" d="M 208.230599 306.053105 
L 225.924324 301.850481 
L 225.924324 124.127457 
L 207.956201 126.316828 
z
" style="fill:#103c5a;stroke:#000000;stroke-width:1.5;"/>
    <path clip-path="url(#p9b15564fb2)" d="M 125.268527 306.529945 
L 110.272436 303.867079 
L 109.26295 202.684933 
L 124.383505 204.630501 
z
" style="fill:#1f77b4;stroke:#000000;stroke-width:1.5;"/>
    <path clip-path="url(#p9b15564fb2)" d="M 190.124597 310.353653 
L 208.230599 306.053105 
L 192.656781 303.397081 
L 174.502444 307.635609 
z
" style="fill:#134a71;stroke:#000000;stroke-width:1.5;"/>
    <path clip-path="url(#p9b15564fb2)" d="M 290.978885 305.577494 
L 274.830356 302.928286 
L 275.582281 124.688869 
L 291.986445 126.069018 
z
" style="fill:#1f77b4;stroke:#000000;stroke-width:1.5;"/>
    <path clip-path="url(#p9b15564fb2)" d="M 290.978885 305.577494 
L 274.830356 302.928286 
L 275.582281 124.688869 
L 291.986445 126.069018 
z
" style="fill:#1f77b4;stroke:#000000;stroke-width:1.5;"/>
    <path clip-path="url(#p9b15564fb2)" d="M 158.072953 125.745654 
L 176.562424 123.569392 
L 161.204627 122.22535 
L 142.672076 124.370202 
z
" style="fill:#134a71;stroke:#000000;stroke-width:1.5;"/>
    <path clip-path="url(#p9b15564fb2)" d="M 208.230599 306.053105 
L 192.656781 303.397081 
L 192.144631 124.933074 
L 207.956201 126.316828 
z
" style="fill:#1f77b4;stroke:#000000;stroke-width:1.5;"/>
    <path clip-path="url(#p9b15564fb2)" d="M 208.230599 306.053105 
L 192.656781 303.397081 
L 192.144631 124.933074 
L 207.956201 126.316828 
z
" style="fill:#1f77b4;stroke:#000000;stroke-width:1.5;"/>
    <path clip-path="url(#p9b15564fb2)" d="M 291.986445 126.069018 
L 308.961233 123.88534 
L 292.622646 122.53676 
L 275.582281 124.688869 
z
" style="fill:#134a71;stroke:#000000;stroke-width:1.5;"/>
    <path clip-path="url(#p9b15564fb2)" d="M 257.648662 307.155915 
L 274.830356 302.928286 
L 275.582281 124.688869 
L 258.142142 126.891468 
z
" style="fill:#103c5a;stroke:#000000;stroke-width:1.5;"/>
    <path clip-path="url(#p9b15564fb2)" d="M 257.648662 307.155915 
L 274.830356 302.928286 
L 275.582281 124.688869 
L 258.142142 126.891468 
z
" style="fill:#103c5a;stroke:#000000;stroke-width:1.5;"/>
    <path clip-path="url(#p9b15564fb2)" d="M 240.065413 311.482348 
L 257.648662 307.155915 
L 241.672022 304.484054 
L 224.031804 308.747909 
z
" style="fill:#134a71;stroke:#000000;stroke-width:1.5;"/>
    <path clip-path="url(#p9b15564fb2)" d="M 207.956201 126.316828 
L 225.924324 124.127457 
L 210.16444 122.775395 
L 192.144631 124.933074 
z
" style="fill:#134a71;stroke:#000000;stroke-width:1.5;"/>
    <path clip-path="url(#p9b15564fb2)" d="M 307.362888 308.265333 
L 324.026125 304.012476 
L 325.156399 170.458253 
L 308.312174 173.195398 
z
" style="fill:#103c5a;stroke:#000000;stroke-width:1.5;"/>
    <path clip-path="url(#p9b15564fb2)" d="M 174.502444 307.635609 
L 192.656781 303.397081 
L 192.144631 124.933074 
L 173.701511 127.141439 
z
" style="fill:#103c5a;stroke:#000000;stroke-width:1.5;"/>
    <path clip-path="url(#p9b15564fb2)" d="M 174.502444 307.635609 
L 192.656781 303.397081 
L 192.144631 124.933074 
L 173.701511 127.141439 
z
" style="fill:#103c5a;stroke:#000000;stroke-width:1.5;"/>
    <path clip-path="url(#p9b15564fb2)" d="M 174.502444 307.635609 
L 159.106059 304.956846 
L 158.344622 172.871543 
L 173.912145 174.608641 
z
" style="fill:#1f77b4;stroke:#000000;stroke-width:1.5;"/>
    <path clip-path="url(#p9b15564fb2)" d="M 155.923265 311.973326 
L 174.502444 307.635609 
L 159.106059 304.956846 
L 140.483856 309.23174 
z
" style="fill:#134a71;stroke:#000000;stroke-width:1.5;"/>
    <path clip-path="url(#p9b15564fb2)" d="M 257.648662 307.155915 
L 241.672022 304.484054 
L 241.915187 125.499335 
L 258.142142 126.891468 
z
" style="fill:#1f77b4;stroke:#000000;stroke-width:1.5;"/>
    <path clip-path="url(#p9b15564fb2)" d="M 257.648662 307.155915 
L 241.672022 304.484054 
L 241.915187 125.499335 
L 258.142142 126.891468 
z
" style="fill:#1f77b4;stroke:#000000;stroke-width:1.5;"/>
    <path clip-path="url(#p9b15564fb2)" d="M 307.362888 308.265333 
L 290.978885 305.577494 
L 291.670779 182.308492 
L 308.235418 184.116764 
z
" style="fill:#1f77b4;stroke:#000000;stroke-width:1.5;"/>
    <path clip-path="url(#p9b15564fb2)" d="M 308.312174 173.195398 
L 325.156399 170.458253 
L 308.644639 168.767977 
L 291.73164 171.465416 
z
" style="fill:#134a71;stroke:#000000;stroke-width:1.5;"/>
    <path clip-path="url(#p9b15564fb2)" d="M 307.362888 308.265333 
L 290.978885 305.577494 
L 291.73164 171.465416 
L 308.312174 173.195398 
z
" style="fill:#1f77b4;stroke:#000000;stroke-width:1.5;"/>
    <path clip-path="url(#p9b15564fb2)" d="M 290.309032 312.617886 
L 307.362888 308.265333 
L 290.978885 305.577494 
L 273.859273 309.866903 
z
" style="fill:#134a71;stroke:#000000;stroke-width:1.5;"/>
    <path clip-path="url(#p9b15564fb2)" d="M 174.502444 307.635609 
L 159.106059 304.956846 
L 158.072953 125.745654 
L 173.701511 127.141439 
z
" style="fill:#1f77b4;stroke:#000000;stroke-width:1.5;"/>
    <path clip-path="url(#p9b15564fb2)" d="M 140.483856 309.23174 
L 159.106059 304.956846 
L 158.344622 172.871543 
L 139.498767 175.643822 
z
" style="fill:#103c5a;stroke:#000000;stroke-width:1.5;"/>
    <path clip-path="url(#p9b15564fb2)" d="M 258.142142 126.891468 
L 275.582281 124.688869 
L 259.415771 123.328715 
L 241.915187 125.499335 
z
" style="fill:#134a71;stroke:#000000;stroke-width:1.5;"/>
    <path clip-path="url(#p9b15564fb2)" d="M 140.483856 309.23174 
L 159.106059 304.956846 
L 158.271694 160.220967 
L 139.404405 162.847475 
z
" style="fill:#103c5a;stroke:#000000;stroke-width:1.5;"/>
    <path clip-path="url(#p9b15564fb2)" d="M 224.031804 308.747909 
L 241.672022 304.484054 
L 241.915187 125.499335 
L 224.002236 127.721102 
z
" style="fill:#103c5a;stroke:#000000;stroke-width:1.5;"/>
    <path clip-path="url(#p9b15564fb2)" d="M 224.031804 308.747909 
L 241.672022 304.484054 
L 241.915187 125.499335 
L 224.002236 127.721102 
z
" style="fill:#103c5a;stroke:#000000;stroke-width:1.5;"/>
    <path clip-path="url(#p9b15564fb2)" d="M 205.97752 313.111848 
L 224.031804 308.747909 
L 208.230599 306.053105 
L 190.124597 310.353653 
z
" style="fill:#134a71;stroke:#000000;stroke-width:1.5;"/>
    <path clip-path="url(#p9b15564fb2)" d="M 273.859273 309.866903 
L 290.978885 305.577494 
L 291.670779 182.308492 
L 274.375085 185.194371 
z
" style="fill:#103c5a;stroke:#000000;stroke-width:1.5;"/>
    <path clip-path="url(#p9b15564fb2)" d="M 173.701511 127.141439 
L 192.144631 124.933074 
L 176.562424 123.569392 
L 158.072953 125.745654 
z
" style="fill:#134a71;stroke:#000000;stroke-width:1.5;"/>
    <path clip-path="url(#p9b15564fb2)" d="M 140.483856 309.23174 
L 125.268527 306.529945 
L 124.006191 161.187395 
L 139.404405 162.847475 
z
" style="fill:#1f77b4;stroke:#000000;stroke-width:1.5;"/>
    <path clip-path="url(#p9b15564fb2)" d="M 224.031804 308.747909 
L 208.230599 306.053105 
L 207.958987 128.141782 
L 224.002537 129.559365 
z
" style="fill:#1f77b4;stroke:#000000;stroke-width:1.5;"/>
    <path clip-path="url(#p9b15564fb2)" d="M 224.031804 308.747909 
L 208.230599 306.053105 
L 207.956201 126.316828 
L 224.002236 127.721102 
z
" style="fill:#1f77b4;stroke:#000000;stroke-width:1.5;"/>
    <path clip-path="url(#p9b15564fb2)" d="M 139.404405 162.847475 
L 158.271694 160.220967 
L 142.914157 158.599122 
L 124.006191 161.187395 
z
" style="fill:#134a71;stroke:#000000;stroke-width:1.5;"/>
    <path clip-path="url(#p9b15564fb2)" d="M 273.859273 309.866903 
L 290.978885 305.577494 
L 291.986445 126.069018 
L 274.610458 128.304308 
z
" style="fill:#103c5a;stroke:#000000;stroke-width:1.5;"/>
    <path clip-path="url(#p9b15564fb2)" d="M 256.336592 314.257302 
L 273.859273 309.866903 
L 257.648662 307.155915 
L 240.065413 311.482348 
z
" style="fill:#134a71;stroke:#000000;stroke-width:1.5;"/>
    <path clip-path="url(#p9b15564fb2)" d="M 224.002236 127.721102 
L 241.915187 125.499335 
L 225.924324 124.127457 
L 207.956201 126.316828 
z
" style="fill:#134a71;stroke:#000000;stroke-width:1.5;"/>
    <path clip-path="url(#p9b15564fb2)" d="M 190.124597 310.353653 
L 208.230599 306.053105 
L 207.958987 128.141782 
L 189.568543 130.404207 
z
" style="fill:#103c5a;stroke:#000000;stroke-width:1.5;"/>
    <path clip-path="url(#p9b15564fb2)" d="M 190.124597 310.353653 
L 208.230599 306.053105 
L 207.956201 126.316828 
L 189.562838 128.558014 
z
" style="fill:#103c5a;stroke:#000000;stroke-width:1.5;"/>
    <path clip-path="url(#p9b15564fb2)" d="M 190.124597 310.353653 
L 174.502444 307.635609 
L 173.904075 172.790061 
L 189.704924 174.539712 
z
" style="fill:#1f77b4;stroke:#000000;stroke-width:1.5;"/>
    <path clip-path="url(#p9b15564fb2)" d="M 171.591741 314.755588 
L 190.124597 310.353653 
L 174.502444 307.635609 
L 155.923265 311.973326 
z
" style="fill:#134a71;stroke:#000000;stroke-width:1.5;"/>
    <path clip-path="url(#p9b15564fb2)" d="M 273.859273 309.866903 
L 257.648662 307.155915 
L 258.132122 130.5517 
L 274.595204 131.99131 
z
" style="fill:#1f77b4;stroke:#000000;stroke-width:1.5;"/>
    <path clip-path="url(#p9b15564fb2)" d="M 273.859273 309.866903 
L 257.648662 307.155915 
L 258.142142 126.891468 
L 274.610458 128.304308 
z
" style="fill:#1f77b4;stroke:#000000;stroke-width:1.5;"/>
    <path clip-path="url(#p9b15564fb2)" d="M 190.124597 310.353653 
L 174.502444 307.635609 
L 173.701511 127.141439 
L 189.562838 128.558014 
z
" style="fill:#1f77b4;stroke:#000000;stroke-width:1.5;"/>
    <path clip-path="url(#p9b15564fb2)" d="M 155.923265 311.973326 
L 174.502444 307.635609 
L 173.912145 174.608641 
L 155.110173 177.422133 
z
" style="fill:#103c5a;stroke:#000000;stroke-width:1.5;"/>
    <path clip-path="url(#p9b15564fb2)" d="M 155.923265 311.973326 
L 174.502444 307.635609 
L 173.904075 172.790061 
L 155.099056 175.582465 
z
" style="fill:#103c5a;stroke:#000000;stroke-width:1.5;"/>
    <path clip-path="url(#p9b15564fb2)" d="M 290.309032 312.617886 
L 273.859273 309.866903 
L 274.052342 263.20178 
L 290.570277 265.618313 
z
" style="fill:#1f77b4;stroke:#000000;stroke-width:1.5;"/>
    <path clip-path="url(#p9b15564fb2)" d="M 274.610458 128.304308 
L 291.986445 126.069018 
L 275.582281 124.688869 
L 258.142142 126.891468 
z
" style="fill:#134a71;stroke:#000000;stroke-width:1.5;"/>
    <path clip-path="url(#p9b15564fb2)" d="M 240.065413 311.482348 
L 257.648662 307.155915 
L 258.132122 130.5517 
L 240.283472 132.849308 
z
" style="fill:#103c5a;stroke:#000000;stroke-width:1.5;"/>
    <path clip-path="url(#p9b15564fb2)" d="M 240.065413 311.482348 
L 257.648662 307.155915 
L 258.142142 126.891468 
L 240.287992 129.146355 
z
" style="fill:#103c5a;stroke:#000000;stroke-width:1.5;"/>
    <path clip-path="url(#p9b15564fb2)" d="M 222.066365 315.91109 
L 240.065413 311.482348 
L 224.031804 308.747909 
L 205.97752 313.111848 
z
" style="fill:#134a71;stroke:#000000;stroke-width:1.5;"/>
    <path clip-path="url(#p9b15564fb2)" d="M 290.309032 312.617886 
L 307.362888 308.265333 
L 308.235418 184.116764 
L 291.007021 187.045585 
z
" style="fill:#103c5a;stroke:#000000;stroke-width:1.5;"/>
    <path clip-path="url(#p9b15564fb2)" d="M 189.562838 128.558014 
L 207.956201 126.316828 
L 192.144631 124.933074 
L 173.701511 127.141439 
z
" style="fill:#134a71;stroke:#000000;stroke-width:1.5;"/>
    <path clip-path="url(#p9b15564fb2)" d="M 155.110173 177.422133 
L 173.912145 174.608641 
L 158.344622 172.871543 
L 139.498767 175.643822 
z
" style="fill:#134a71;stroke:#000000;stroke-width:1.5;"/>
    <path clip-path="url(#p9b15564fb2)" d="M 155.923265 311.973326 
L 140.483856 309.23174 
L 139.498767 175.643822 
L 155.110173 177.422133 
z
" style="fill:#1f77b4;stroke:#000000;stroke-width:1.5;"/>
    <path clip-path="url(#p9b15564fb2)" d="M 256.336592 314.257302 
L 273.859273 309.866903 
L 274.052342 263.20178 
L 256.460532 267.058486 
z
" style="fill:#103c5a;stroke:#000000;stroke-width:1.5;"/>
    <path clip-path="url(#p9b15564fb2)" d="M 240.065413 311.482348 
L 224.031804 308.747909 
L 224.003137 133.234169 
L 240.281213 134.699911 
z
" style="fill:#1f77b4;stroke:#000000;stroke-width:1.5;"/>
    <path clip-path="url(#p9b15564fb2)" d="M 240.065413 311.482348 
L 224.031804 308.747909 
L 224.002236 127.721102 
L 240.287992 129.146355 
z
" style="fill:#1f77b4;stroke:#000000;stroke-width:1.5;"/>
    <path clip-path="url(#p9b15564fb2)" d="M 291.007021 187.045585 
L 308.235418 184.116764 
L 291.670779 182.308492 
L 274.375085 185.194371 
z
" style="fill:#134a71;stroke:#000000;stroke-width:1.5;"/>
    <path clip-path="url(#p9b15564fb2)" d="M 290.309032 312.617886 
L 273.859273 309.866903 
L 274.375085 185.194371 
L 291.007021 187.045585 
z
" style="fill:#1f77b4;stroke:#000000;stroke-width:1.5;"/>
    <path clip-path="url(#p9b15564fb2)" d="M 272.850659 317.073681 
L 290.309032 312.617886 
L 273.859273 309.866903 
L 256.336592 314.257302 
z
" style="fill:#134a71;stroke:#000000;stroke-width:1.5;"/>
    <path clip-path="url(#p9b15564fb2)" d="M 240.287992 129.146355 
L 258.142142 126.891468 
L 241.915187 125.499335 
L 224.002236 127.721102 
z
" style="fill:#134a71;stroke:#000000;stroke-width:1.5;"/>
    <path clip-path="url(#p9b15564fb2)" d="M 205.97752 313.111848 
L 224.031804 308.747909 
L 224.003137 133.234169 
L 205.671778 135.573528 
z
" style="fill:#103c5a;stroke:#000000;stroke-width:1.5;"/>
    <path clip-path="url(#p9b15564fb2)" d="M 205.97752 313.111848 
L 190.124597 310.353653 
L 189.727555 181.863456 
L 205.754645 183.692837 
z
" style="fill:#1f77b4;stroke:#000000;stroke-width:1.5;"/>
    <path clip-path="url(#p9b15564fb2)" d="M 205.97752 313.111848 
L 224.031804 308.747909 
L 224.002537 129.559365 
L 205.665375 131.85566 
z
" style="fill:#103c5a;stroke:#000000;stroke-width:1.5;"/>
    <path clip-path="url(#p9b15564fb2)" d="M 187.494421 317.579437 
L 205.97752 313.111848 
L 190.124597 310.353653 
L 171.591741 314.755588 
z
" style="fill:#134a71;stroke:#000000;stroke-width:1.5;"/>
    <path clip-path="url(#p9b15564fb2)" d="M 171.591741 314.755588 
L 190.124597 310.353653 
L 189.727555 181.863456 
L 170.981975 184.783196 
z
" style="fill:#103c5a;stroke:#000000;stroke-width:1.5;"/>
    <path clip-path="url(#p9b15564fb2)" d="M 205.97752 313.111848 
L 190.124597 310.353653 
L 189.568543 130.404207 
L 205.665375 131.85566 
z
" style="fill:#1f77b4;stroke:#000000;stroke-width:1.5;"/>
    <path clip-path="url(#p9b15564fb2)" d="M 171.591741 314.755588 
L 190.124597 310.353653 
L 189.704924 174.539712 
L 170.947214 177.373945 
z
" style="fill:#103c5a;stroke:#000000;stroke-width:1.5;"/>
    <path clip-path="url(#p9b15564fb2)" d="M 256.336592 314.257302 
L 273.859273 309.866903 
L 274.595204 131.99131 
L 256.809084 134.323415 
z
" style="fill:#103c5a;stroke:#000000;stroke-width:1.5;"/>
    <path clip-path="url(#p9b15564fb2)" d="M 256.336592 314.257302 
L 240.065413 311.482348 
L 240.222726 182.61203 
L 256.677449 184.452652 
z
" style="fill:#1f77b4;stroke:#000000;stroke-width:1.5;"/>
    <path clip-path="url(#p9b15564fb2)" d="M 273.043334 269.5327 
L 290.570277 265.618313 
L 274.052342 263.20178 
L 256.460532 267.058486 
z
" style="fill:#134a71;stroke:#000000;stroke-width:1.5;"/>
    <path clip-path="url(#p9b15564fb2)" d="M 238.396438 318.752302 
L 256.336592 314.257302 
L 240.065413 311.482348 
L 222.066365 315.91109 
z
" style="fill:#134a71;stroke:#000000;stroke-width:1.5;"/>
    <path clip-path="url(#p9b15564fb2)" d="M 205.665375 131.85566 
L 224.002537 129.559365 
L 207.958987 128.141782 
L 189.568543 130.404207 
z
" style="fill:#134a71;stroke:#000000;stroke-width:1.5;"/>
    <path clip-path="url(#p9b15564fb2)" d="M 170.947214 177.373945 
L 189.704924 174.539712 
L 173.904075 172.790061 
L 155.099056 175.582465 
z
" style="fill:#134a71;stroke:#000000;stroke-width:1.5;"/>
    <path clip-path="url(#p9b15564fb2)" d="M 171.591741 314.755588 
L 155.923265 311.973326 
L 155.099056 175.582465 
L 170.947214 177.373945 
z
" style="fill:#1f77b4;stroke:#000000;stroke-width:1.5;"/>
    <path clip-path="url(#p9b15564fb2)" d="M 272.850659 317.073681 
L 290.309032 312.617886 
L 290.570277 265.618313 
L 273.043334 269.5327 
z
" style="fill:#103c5a;stroke:#000000;stroke-width:1.5;"/>
    <path clip-path="url(#p9b15564fb2)" d="M 256.336592 314.257302 
L 240.065413 311.482348 
L 240.283472 132.849308 
L 256.809084 134.323415 
z
" style="fill:#1f77b4;stroke:#000000;stroke-width:1.5;"/>
    <path clip-path="url(#p9b15564fb2)" d="M 222.066365 315.91109 
L 240.065413 311.482348 
L 240.222726 182.61203 
L 222.022934 185.54975 
z
" style="fill:#103c5a;stroke:#000000;stroke-width:1.5;"/>
    <path clip-path="url(#p9b15564fb2)" d="M 222.066365 315.91109 
L 205.97752 313.111848 
L 205.821083 222.27191 
L 222.035882 224.411994 
z
" style="fill:#1f77b4;stroke:#000000;stroke-width:1.5;"/>
    <path clip-path="url(#p9b15564fb2)" d="M 272.850659 317.073681 
L 256.336592 314.257302 
L 256.436619 276.165035 
L 273.006158 278.705492 
z
" style="fill:#1f77b4;stroke:#000000;stroke-width:1.5;"/>
    <path clip-path="url(#p9b15564fb2)" d="M 272.850659 317.073681 
L 256.336592 314.257302 
L 256.460532 267.058486 
L 273.043334 269.5327 
z
" style="fill:#1f77b4;stroke:#000000;stroke-width:1.5;"/>
    <path clip-path="url(#p9b15564fb2)" d="M 256.809084 134.323415 
L 274.595204 131.99131 
L 258.132122 130.5517 
L 240.283472 132.849308 
z
" style="fill:#134a71;stroke:#000000;stroke-width:1.5;"/>
    <path clip-path="url(#p9b15564fb2)" d="M 222.066365 315.91109 
L 240.065413 311.482348 
L 240.281213 134.699911 
L 222.006784 137.074544 
z
" style="fill:#103c5a;stroke:#000000;stroke-width:1.5;"/>
    <path clip-path="url(#p9b15564fb2)" d="M 203.636594 320.445813 
L 222.066365 315.91109 
L 205.97752 313.111848 
L 187.494421 317.579437 
z
" style="fill:#134a71;stroke:#000000;stroke-width:1.5;"/>
    <path clip-path="url(#p9b15564fb2)" d="M 187.494421 317.579437 
L 205.97752 313.111848 
L 205.821083 222.27191 
L 187.189418 225.687602 
z
" style="fill:#103c5a;stroke:#000000;stroke-width:1.5;"/>
    <path clip-path="url(#p9b15564fb2)" d="M 238.396438 318.752302 
L 256.336592 314.257302 
L 256.436619 276.165035 
L 238.43795 280.219717 
z
" style="fill:#103c5a;stroke:#000000;stroke-width:1.5;"/>
    <path clip-path="url(#p9b15564fb2)" d="M 222.066365 315.91109 
L 205.97752 313.111848 
L 205.671778 135.573528 
L 222.006784 137.074544 
z
" style="fill:#1f77b4;stroke:#000000;stroke-width:1.5;"/>
    <path clip-path="url(#p9b15564fb2)" d="M 187.494421 317.579437 
L 205.97752 313.111848 
L 205.754645 183.692837 
L 187.059868 186.656616 
z
" style="fill:#103c5a;stroke:#000000;stroke-width:1.5;"/>
    <path clip-path="url(#p9b15564fb2)" d="M 238.396438 318.752302 
L 222.066365 315.91109 
L 222.060307 297.726221 
L 238.416171 300.435386 
z
" style="fill:#1f77b4;stroke:#000000;stroke-width:1.5;"/>
    <path clip-path="url(#p9b15564fb2)" d="M 254.973204 321.636435 
L 272.850659 317.073681 
L 256.336592 314.257302 
L 238.396438 318.752302 
z
" style="fill:#134a71;stroke:#000000;stroke-width:1.5;"/>
    <path clip-path="url(#p9b15564fb2)" d="M 222.006784 137.074544 
L 240.281213 134.699911 
L 224.003137 133.234169 
L 205.671778 135.573528 
z
" style="fill:#134a71;stroke:#000000;stroke-width:1.5;"/>
    <path clip-path="url(#p9b15564fb2)" d="M 187.059868 186.656616 
L 205.754645 183.692837 
L 189.727555 181.863456 
L 170.981975 184.783196 
z
" style="fill:#134a71;stroke:#000000;stroke-width:1.5;"/>
    <path clip-path="url(#p9b15564fb2)" d="M 187.494421 317.579437 
L 171.591741 314.755588 
L 170.981975 184.783196 
L 187.059868 186.656616 
z
" style="fill:#1f77b4;stroke:#000000;stroke-width:1.5;"/>
    <path clip-path="url(#p9b15564fb2)" d="M 203.636594 320.445813 
L 222.066365 315.91109 
L 222.060307 297.726221 
L 203.601174 302.05022 
z
" style="fill:#103c5a;stroke:#000000;stroke-width:1.5;"/>
    <path clip-path="url(#p9b15564fb2)" d="M 238.396438 318.752302 
L 256.336592 314.257302 
L 256.677449 184.452652 
L 238.537908 187.43482 
z
" style="fill:#103c5a;stroke:#000000;stroke-width:1.5;"/>
    <path clip-path="url(#p9b15564fb2)" d="M 255.070622 282.821496 
L 273.006158 278.705492 
L 256.436619 276.165035 
L 238.43795 280.219717 
z
" style="fill:#134a71;stroke:#000000;stroke-width:1.5;"/>
    <path clip-path="url(#p9b15564fb2)" d="M 238.537908 187.43482 
L 256.677449 184.452652 
L 240.222726 182.61203 
L 222.022934 185.54975 
z
" style="fill:#134a71;stroke:#000000;stroke-width:1.5;"/>
    <path clip-path="url(#p9b15564fb2)" d="M 238.396438 318.752302 
L 222.066365 315.91109 
L 222.022934 185.54975 
L 238.537908 187.43482 
z
" style="fill:#1f77b4;stroke:#000000;stroke-width:1.5;"/>
    <path clip-path="url(#p9b15564fb2)" d="M 220.023713 323.355684 
L 238.396438 318.752302 
L 222.066365 315.91109 
L 203.636594 320.445813 
z
" style="fill:#134a71;stroke:#000000;stroke-width:1.5;"/>
    <path clip-path="url(#p9b15564fb2)" d="M 203.636594 320.445813 
L 222.066365 315.91109 
L 222.035882 224.411994 
L 203.458363 227.879422 
z
" style="fill:#103c5a;stroke:#000000;stroke-width:1.5;"/>
    <path clip-path="url(#p9b15564fb2)" d="M 203.458363 227.879422 
L 222.035882 224.411994 
L 205.821083 222.27191 
L 187.189418 225.687602 
z
" style="fill:#134a71;stroke:#000000;stroke-width:1.5;"/>
    <path clip-path="url(#p9b15564fb2)" d="M 254.973204 321.636435 
L 272.850659 317.073681 
L 273.006158 278.705492 
L 255.070622 282.821496 
z
" style="fill:#103c5a;stroke:#000000;stroke-width:1.5;"/>
    <path clip-path="url(#p9b15564fb2)" d="M 220.014264 304.824958 
L 238.416171 300.435386 
L 222.060307 297.726221 
L 203.601174 302.05022 
z
" style="fill:#134a71;stroke:#000000;stroke-width:1.5;"/>
    <path clip-path="url(#p9b15564fb2)" d="M 254.973204 321.636435 
L 238.396438 318.752302 
L 238.40038 315.09355 
L 254.982454 317.950957 
z
" style="fill:#1f77b4;stroke:#000000;stroke-width:1.5;"/>
    <path clip-path="url(#p9b15564fb2)" d="M 203.636594 320.445813 
L 187.494421 317.579437 
L 187.189418 225.687602 
L 203.458363 227.879422 
z
" style="fill:#1f77b4;stroke:#000000;stroke-width:1.5;"/>
    <path clip-path="url(#p9b15564fb2)" d="M 254.973204 321.636435 
L 238.396438 318.752302 
L 238.43795 280.219717 
L 255.070622 282.821496 
z
" style="fill:#1f77b4;stroke:#000000;stroke-width:1.5;"/>
    <path clip-path="url(#p9b15564fb2)" d="M 220.023713 323.355684 
L 238.396438 318.752302 
L 238.40038 315.09355 
L 220.021825 319.654281 
z
" style="fill:#103c5a;stroke:#000000;stroke-width:1.5;"/>
    <path clip-path="url(#p9b15564fb2)" d="M 220.023713 323.355684 
L 238.396438 318.752302 
L 238.416171 300.435386 
L 220.014264 304.824958 
z
" style="fill:#103c5a;stroke:#000000;stroke-width:1.5;"/>
    <path clip-path="url(#p9b15564fb2)" d="M 220.023713 323.355684 
L 203.636594 320.445813 
L 203.601174 302.05022 
L 220.014264 304.824958 
z
" style="fill:#1f77b4;stroke:#000000;stroke-width:1.5;"/>
    <path clip-path="url(#p9b15564fb2)" d="M 236.661394 326.310048 
L 254.973204 321.636435 
L 238.396438 318.752302 
L 220.023713 323.355684 
z
" style="fill:#134a71;stroke:#000000;stroke-width:1.5;"/>
    <path clip-path="url(#p9b15564fb2)" d="M 236.664855 322.58129 
L 254.982454 317.950957 
L 238.40038 315.09355 
L 220.021825 319.654281 
z
" style="fill:#134a71;stroke:#000000;stroke-width:1.5;"/>
    <path clip-path="url(#p9b15564fb2)" d="M 236.661394 326.310048 
L 254.973204 321.636435 
L 254.982454 317.950957 
L 236.664855 322.58129 
z
" style="fill:#103c5a;stroke:#000000;stroke-width:1.5;"/>
    <path clip-path="url(#p9b15564fb2)" d="M 236.661394 326.310048 
L 220.023713 323.355684 
L 220.021825 319.654281 
L 236.664855 322.58129 
z
" style="fill:#1f77b4;stroke:#000000;stroke-width:1.5;"/>
   </g>
   <g id="text_29">
    <!-- Timeout(=15m) result out of 100 trials -->
    <defs>
     <path d="M -0.296875 72.90625 
L 61.375 72.90625 
L 61.375 64.59375 
L 35.5 64.59375 
L 35.5 0 
L 25.59375 0 
L 25.59375 64.59375 
L -0.296875 64.59375 
z
" id="DejaVuSans-54"/>
     <path d="M 31 75.875 
Q 24.46875 64.65625 21.28125 53.65625 
Q 18.109375 42.671875 18.109375 31.390625 
Q 18.109375 20.125 21.3125 9.0625 
Q 24.515625 -2 31 -13.1875 
L 23.1875 -13.1875 
Q 15.875 -1.703125 12.234375 9.375 
Q 8.59375 20.453125 8.59375 31.390625 
Q 8.59375 42.28125 12.203125 53.3125 
Q 15.828125 64.359375 23.1875 75.875 
z
" id="DejaVuSans-28"/>
     <path d="M 10.59375 45.40625 
L 73.1875 45.40625 
L 73.1875 37.203125 
L 10.59375 37.203125 
z
M 10.59375 25.484375 
L 73.1875 25.484375 
L 73.1875 17.1875 
L 10.59375 17.1875 
z
" id="DejaVuSans-3d"/>
     <path d="M 8.015625 75.875 
L 15.828125 75.875 
Q 23.140625 64.359375 26.78125 53.3125 
Q 30.421875 42.28125 30.421875 31.390625 
Q 30.421875 20.453125 26.78125 9.375 
Q 23.140625 -1.703125 15.828125 -13.1875 
L 8.015625 -13.1875 
Q 14.5 -2 17.703125 9.0625 
Q 20.90625 20.125 20.90625 31.390625 
Q 20.90625 42.671875 17.703125 53.65625 
Q 14.5 64.65625 8.015625 75.875 
z
" id="DejaVuSans-29"/>
     <path id="DejaVuSans-20"/>
     <path d="M 41.109375 46.296875 
Q 39.59375 47.171875 37.8125 47.578125 
Q 36.03125 48 33.890625 48 
Q 26.265625 48 22.1875 43.046875 
Q 18.109375 38.09375 18.109375 28.8125 
L 18.109375 0 
L 9.078125 0 
L 9.078125 54.6875 
L 18.109375 54.6875 
L 18.109375 46.1875 
Q 20.953125 51.171875 25.484375 53.578125 
Q 30.03125 56 36.53125 56 
Q 37.453125 56 38.578125 55.875 
Q 39.703125 55.765625 41.0625 55.515625 
z
" id="DejaVuSans-72"/>
     <path d="M 37.109375 75.984375 
L 37.109375 68.5 
L 28.515625 68.5 
Q 23.6875 68.5 21.796875 66.546875 
Q 19.921875 64.59375 19.921875 59.515625 
L 19.921875 54.6875 
L 34.71875 54.6875 
L 34.71875 47.703125 
L 19.921875 47.703125 
L 19.921875 0 
L 10.890625 0 
L 10.890625 47.703125 
L 2.296875 47.703125 
L 2.296875 54.6875 
L 10.890625 54.6875 
L 10.890625 58.5 
Q 10.890625 67.625 15.140625 71.796875 
Q 19.390625 75.984375 28.609375 75.984375 
z
" id="DejaVuSans-66"/>
    </defs>
    <g transform="translate(104.865 72.4512)scale(0.12 -0.12)">
     <use xlink:href="#DejaVuSans-54"/>
     <use x="61.037109" xlink:href="#DejaVuSans-69"/>
     <use x="88.820312" xlink:href="#DejaVuSans-6d"/>
     <use x="186.232422" xlink:href="#DejaVuSans-65"/>
     <use x="247.755859" xlink:href="#DejaVuSans-6f"/>
     <use x="308.9375" xlink:href="#DejaVuSans-75"/>
     <use x="372.316406" xlink:href="#DejaVuSans-74"/>
     <use x="411.525391" xlink:href="#DejaVuSans-28"/>
     <use x="450.539062" xlink:href="#DejaVuSans-3d"/>
     <use x="534.328125" xlink:href="#DejaVuSans-31"/>
     <use x="597.951172" xlink:href="#DejaVuSans-35"/>
     <use x="661.574219" xlink:href="#DejaVuSans-6d"/>
     <use x="758.986328" xlink:href="#DejaVuSans-29"/>
     <use x="798" xlink:href="#DejaVuSans-20"/>
     <use x="829.787109" xlink:href="#DejaVuSans-72"/>
     <use x="870.869141" xlink:href="#DejaVuSans-65"/>
     <use x="932.392578" xlink:href="#DejaVuSans-73"/>
     <use x="984.492188" xlink:href="#DejaVuSans-75"/>
     <use x="1047.871094" xlink:href="#DejaVuSans-6c"/>
     <use x="1075.654297" xlink:href="#DejaVuSans-74"/>
     <use x="1114.863281" xlink:href="#DejaVuSans-20"/>
     <use x="1146.650391" xlink:href="#DejaVuSans-6f"/>
     <use x="1207.832031" xlink:href="#DejaVuSans-75"/>
     <use x="1271.210938" xlink:href="#DejaVuSans-74"/>
     <use x="1310.419922" xlink:href="#DejaVuSans-20"/>
     <use x="1342.207031" xlink:href="#DejaVuSans-6f"/>
     <use x="1403.388672" xlink:href="#DejaVuSans-66"/>
     <use x="1438.59375" xlink:href="#DejaVuSans-20"/>
     <use x="1470.380859" xlink:href="#DejaVuSans-31"/>
     <use x="1534.003906" xlink:href="#DejaVuSans-30"/>
     <use x="1597.626953" xlink:href="#DejaVuSans-30"/>
     <use x="1661.25" xlink:href="#DejaVuSans-20"/>
     <use x="1693.037109" xlink:href="#DejaVuSans-74"/>
     <use x="1732.246094" xlink:href="#DejaVuSans-72"/>
     <use x="1773.359375" xlink:href="#DejaVuSans-69"/>
     <use x="1801.142578" xlink:href="#DejaVuSans-61"/>
     <use x="1862.421875" xlink:href="#DejaVuSans-6c"/>
     <use x="1890.205078" xlink:href="#DejaVuSans-73"/>
    </g>
   </g>
  </g>
 </g>
 <defs>
  <clipPath id="p9b15564fb2">
   <rect height="332.64" width="334.8" x="54" y="51.84"/>
  </clipPath>
 </defs>
</svg>
