<?xml version="1.0" encoding="utf-8" standalone="no"?>
<!DOCTYPE svg PUBLIC "-//W3C//DTD SVG 1.1//EN"
  "http://www.w3.org/Graphics/SVG/1.1/DTD/svg11.dtd">
<!-- Created with matplotlib (http://matplotlib.org/) -->
<svg height="576pt" version="1.1" viewBox="0 0 576 576" width="576pt" xmlns="http://www.w3.org/2000/svg" xmlns:xlink="http://www.w3.org/1999/xlink">
 <defs>
  <style type="text/css">
*{stroke-linecap:butt;stroke-linejoin:round;}
  </style>
 </defs>
 <g id="figure_1">
  <g id="patch_1">
   <path d="M 0 576 
L 576 576 
L 576 0 
L 0 0 
z
" style="fill:none;"/>
  </g>
  <g id="patch_2">
   <path d="M 72 512.64 
L 518.4 512.64 
L 518.4 69.12 
L 72 69.12 
z
" style="fill:none;"/>
  </g>
  <g id="pane3d_1">
   <g id="patch_3">
    <path d="M 475.797655 404.253733 
L 286.8954 374.341277 
L 286.681999 143.826688 
L 478.568221 158.934838 
" style="fill:#f2f2f2;opacity:0.5;stroke:#f2f2f2;stroke-linejoin:miter;"/>
   </g>
  </g>
  <g id="pane3d_2">
   <g id="patch_4">
    <path d="M 124.455498 410.441212 
L 286.8954 374.341277 
L 286.681999 143.826688 
L 121.613711 162.063671 
" style="fill:#e6e6e6;opacity:0.5;stroke:#e6e6e6;stroke-linejoin:miter;"/>
   </g>
  </g>
  <g id="pane3d_3">
   <g id="patch_5">
    <path d="M 317.792598 445.429715 
L 475.797655 404.253733 
L 286.8954 374.341277 
L 124.455498 410.441212 
" style="fill:#ececec;opacity:0.5;stroke:#ececec;stroke-linejoin:miter;"/>
   </g>
  </g>
  <g id="axis3d_1">
   <g id="line2d_1">
    <path d="M 475.797655 404.253733 
L 317.792598 445.429715 
" style="fill:none;stroke:#000000;stroke-linecap:square;stroke-width:0.8;"/>
   </g>
   <g id="text_1">
    <!-- universe size -->
    <defs>
     <path d="M 8.5 21.578125 
L 8.5 54.6875 
L 17.484375 54.6875 
L 17.484375 21.921875 
Q 17.484375 14.15625 20.5 10.265625 
Q 23.53125 6.390625 29.59375 6.390625 
Q 36.859375 6.390625 41.078125 11.03125 
Q 45.3125 15.671875 45.3125 23.6875 
L 45.3125 54.6875 
L 54.296875 54.6875 
L 54.296875 0 
L 45.3125 0 
L 45.3125 8.40625 
Q 42.046875 3.421875 37.71875 1 
Q 33.40625 -1.421875 27.6875 -1.421875 
Q 18.265625 -1.421875 13.375 4.4375 
Q 8.5 10.296875 8.5 21.578125 
z
M 31.109375 56 
z
" id="DejaVuSans-75"/>
     <path d="M 54.890625 33.015625 
L 54.890625 0 
L 45.90625 0 
L 45.90625 32.71875 
Q 45.90625 40.484375 42.875 44.328125 
Q 39.84375 48.1875 33.796875 48.1875 
Q 26.515625 48.1875 22.3125 43.546875 
Q 18.109375 38.921875 18.109375 30.90625 
L 18.109375 0 
L 9.078125 0 
L 9.078125 54.6875 
L 18.109375 54.6875 
L 18.109375 46.1875 
Q 21.34375 51.125 25.703125 53.5625 
Q 30.078125 56 35.796875 56 
Q 45.21875 56 50.046875 50.171875 
Q 54.890625 44.34375 54.890625 33.015625 
z
" id="DejaVuSans-6e"/>
     <path d="M 9.421875 54.6875 
L 18.40625 54.6875 
L 18.40625 0 
L 9.421875 0 
z
M 9.421875 75.984375 
L 18.40625 75.984375 
L 18.40625 64.59375 
L 9.421875 64.59375 
z
" id="DejaVuSans-69"/>
     <path d="M 2.984375 54.6875 
L 12.5 54.6875 
L 29.59375 8.796875 
L 46.6875 54.6875 
L 56.203125 54.6875 
L 35.6875 0 
L 23.484375 0 
z
" id="DejaVuSans-76"/>
     <path d="M 56.203125 29.59375 
L 56.203125 25.203125 
L 14.890625 25.203125 
Q 15.484375 15.921875 20.484375 11.0625 
Q 25.484375 6.203125 34.421875 6.203125 
Q 39.59375 6.203125 44.453125 7.46875 
Q 49.3125 8.734375 54.109375 11.28125 
L 54.109375 2.78125 
Q 49.265625 0.734375 44.1875 -0.34375 
Q 39.109375 -1.421875 33.890625 -1.421875 
Q 20.796875 -1.421875 13.15625 6.1875 
Q 5.515625 13.8125 5.515625 26.8125 
Q 5.515625 40.234375 12.765625 48.109375 
Q 20.015625 56 32.328125 56 
Q 43.359375 56 49.78125 48.890625 
Q 56.203125 41.796875 56.203125 29.59375 
z
M 47.21875 32.234375 
Q 47.125 39.59375 43.09375 43.984375 
Q 39.0625 48.390625 32.421875 48.390625 
Q 24.90625 48.390625 20.390625 44.140625 
Q 15.875 39.890625 15.1875 32.171875 
z
" id="DejaVuSans-65"/>
     <path d="M 41.109375 46.296875 
Q 39.59375 47.171875 37.8125 47.578125 
Q 36.03125 48 33.890625 48 
Q 26.265625 48 22.1875 43.046875 
Q 18.109375 38.09375 18.109375 28.8125 
L 18.109375 0 
L 9.078125 0 
L 9.078125 54.6875 
L 18.109375 54.6875 
L 18.109375 46.1875 
Q 20.953125 51.171875 25.484375 53.578125 
Q 30.03125 56 36.53125 56 
Q 37.453125 56 38.578125 55.875 
Q 39.703125 55.765625 41.0625 55.515625 
z
" id="DejaVuSans-72"/>
     <path d="M 44.28125 53.078125 
L 44.28125 44.578125 
Q 40.484375 46.53125 36.375 47.5 
Q 32.28125 48.484375 27.875 48.484375 
Q 21.1875 48.484375 17.84375 46.4375 
Q 14.5 44.390625 14.5 40.28125 
Q 14.5 37.15625 16.890625 35.375 
Q 19.28125 33.59375 26.515625 31.984375 
L 29.59375 31.296875 
Q 39.15625 29.25 43.1875 25.515625 
Q 47.21875 21.78125 47.21875 15.09375 
Q 47.21875 7.46875 41.1875 3.015625 
Q 35.15625 -1.421875 24.609375 -1.421875 
Q 20.21875 -1.421875 15.453125 -0.5625 
Q 10.6875 0.296875 5.421875 2 
L 5.421875 11.28125 
Q 10.40625 8.6875 15.234375 7.390625 
Q 20.0625 6.109375 24.8125 6.109375 
Q 31.15625 6.109375 34.5625 8.28125 
Q 37.984375 10.453125 37.984375 14.40625 
Q 37.984375 18.0625 35.515625 20.015625 
Q 33.0625 21.96875 24.703125 23.78125 
L 21.578125 24.515625 
Q 13.234375 26.265625 9.515625 29.90625 
Q 5.8125 33.546875 5.8125 39.890625 
Q 5.8125 47.609375 11.28125 51.796875 
Q 16.75 56 26.8125 56 
Q 31.78125 56 36.171875 55.265625 
Q 40.578125 54.546875 44.28125 53.078125 
z
" id="DejaVuSans-73"/>
     <path id="DejaVuSans-20"/>
     <path d="M 5.515625 54.6875 
L 48.1875 54.6875 
L 48.1875 46.484375 
L 14.40625 7.171875 
L 48.1875 7.171875 
L 48.1875 0 
L 4.296875 0 
L 4.296875 8.203125 
L 38.09375 47.515625 
L 5.515625 47.515625 
z
" id="DejaVuSans-7a"/>
    </defs>
    <g transform="translate(384.737559 468.096562)rotate(-14.606366)scale(0.12 -0.12)">
     <use xlink:href="#DejaVuSans-75"/>
     <use x="63.378906" xlink:href="#DejaVuSans-6e"/>
     <use x="126.757812" xlink:href="#DejaVuSans-69"/>
     <use x="154.541016" xlink:href="#DejaVuSans-76"/>
     <use x="213.720703" xlink:href="#DejaVuSans-65"/>
     <use x="275.244141" xlink:href="#DejaVuSans-72"/>
     <use x="316.357422" xlink:href="#DejaVuSans-73"/>
     <use x="368.457031" xlink:href="#DejaVuSans-65"/>
     <use x="429.980469" xlink:href="#DejaVuSans-20"/>
     <use x="461.767578" xlink:href="#DejaVuSans-73"/>
     <use x="513.867188" xlink:href="#DejaVuSans-69"/>
     <use x="541.650391" xlink:href="#DejaVuSans-7a"/>
     <use x="594.140625" xlink:href="#DejaVuSans-65"/>
    </g>
   </g>
   <g id="Line3DCollection_1">
    <path d="M 340.889831 439.410596 
L 148.096775 405.187278 
L 145.661604 159.406825 
" style="fill:none;stroke:#b0b0b0;stroke-width:0.8;"/>
    <path d="M 364.955059 433.139218 
L 172.766681 399.704746 
L 170.747061 156.635347 
" style="fill:none;stroke:#b0b0b0;stroke-width:0.8;"/>
    <path d="M 388.450545 427.016315 
L 196.889863 394.343715 
L 195.267945 153.926245 
" style="fill:none;stroke:#b0b0b0;stroke-width:0.8;"/>
    <path d="M 411.396286 421.036675 
L 220.484298 389.100191 
L 219.243103 151.277435 
" style="fill:none;stroke:#b0b0b0;stroke-width:0.8;"/>
    <path d="M 433.811352 415.195328 
L 243.567181 383.970352 
L 242.690552 148.686927 
" style="fill:none;stroke:#b0b0b0;stroke-width:0.8;"/>
    <path d="M 455.713944 409.487531 
L 266.15497 378.95054 
L 265.627526 146.152817 
" style="fill:none;stroke:#b0b0b0;stroke-width:0.8;"/>
   </g>
   <g id="xtick_1">
    <g id="line2d_2">
     <path d="M 339.240532 439.117823 
L 344.193973 439.997125 
" style="fill:none;stroke:#000000;stroke-linecap:square;stroke-width:0.8;"/>
    </g>
    <g id="text_2">
     <!-- 5 -->
     <defs>
      <path d="M 10.796875 72.90625 
L 49.515625 72.90625 
L 49.515625 64.59375 
L 19.828125 64.59375 
L 19.828125 46.734375 
Q 21.96875 47.46875 24.109375 47.828125 
Q 26.265625 48.1875 28.421875 48.1875 
Q 40.625 48.1875 47.75 41.5 
Q 54.890625 34.8125 54.890625 23.390625 
Q 54.890625 11.625 47.5625 5.09375 
Q 40.234375 -1.421875 26.90625 -1.421875 
Q 22.3125 -1.421875 17.546875 -0.640625 
Q 12.796875 0.140625 7.71875 1.703125 
L 7.71875 11.625 
Q 12.109375 9.234375 16.796875 8.0625 
Q 21.484375 6.890625 26.703125 6.890625 
Q 35.15625 6.890625 40.078125 11.328125 
Q 45.015625 15.765625 45.015625 23.390625 
Q 45.015625 31 40.078125 35.4375 
Q 35.15625 39.890625 26.703125 39.890625 
Q 22.75 39.890625 18.8125 39.015625 
Q 14.890625 38.140625 10.796875 36.28125 
z
" id="DejaVuSans-35"/>
     </defs>
     <g transform="translate(347.938632 461.681363)scale(0.1 -0.1)">
      <use xlink:href="#DejaVuSans-35"/>
     </g>
    </g>
   </g>
   <g id="xtick_2">
    <g id="line2d_3">
     <path d="M 363.312209 432.853416 
L 368.246214 433.711771 
" style="fill:none;stroke:#000000;stroke-linecap:square;stroke-width:0.8;"/>
    </g>
    <g id="text_3">
     <!-- 6 -->
     <defs>
      <path d="M 33.015625 40.375 
Q 26.375 40.375 22.484375 35.828125 
Q 18.609375 31.296875 18.609375 23.390625 
Q 18.609375 15.53125 22.484375 10.953125 
Q 26.375 6.390625 33.015625 6.390625 
Q 39.65625 6.390625 43.53125 10.953125 
Q 47.40625 15.53125 47.40625 23.390625 
Q 47.40625 31.296875 43.53125 35.828125 
Q 39.65625 40.375 33.015625 40.375 
z
M 52.59375 71.296875 
L 52.59375 62.3125 
Q 48.875 64.0625 45.09375 64.984375 
Q 41.3125 65.921875 37.59375 65.921875 
Q 27.828125 65.921875 22.671875 59.328125 
Q 17.53125 52.734375 16.796875 39.40625 
Q 19.671875 43.65625 24.015625 45.921875 
Q 28.375 48.1875 33.59375 48.1875 
Q 44.578125 48.1875 50.953125 41.515625 
Q 57.328125 34.859375 57.328125 23.390625 
Q 57.328125 12.15625 50.6875 5.359375 
Q 44.046875 -1.421875 33.015625 -1.421875 
Q 20.359375 -1.421875 13.671875 8.265625 
Q 6.984375 17.96875 6.984375 36.375 
Q 6.984375 53.65625 15.1875 63.9375 
Q 23.390625 74.21875 37.203125 74.21875 
Q 40.921875 74.21875 44.703125 73.484375 
Q 48.484375 72.75 52.59375 71.296875 
z
" id="DejaVuSans-36"/>
     </defs>
     <g transform="translate(371.94392 455.217363)scale(0.1 -0.1)">
      <use xlink:href="#DejaVuSans-36"/>
     </g>
    </g>
   </g>
   <g id="xtick_3">
    <g id="line2d_4">
     <path d="M 386.814303 426.737237 
L 391.728398 427.575385 
" style="fill:none;stroke:#000000;stroke-linecap:square;stroke-width:0.8;"/>
    </g>
    <g id="text_4">
     <!-- 7 -->
     <defs>
      <path d="M 8.203125 72.90625 
L 55.078125 72.90625 
L 55.078125 68.703125 
L 28.609375 0 
L 18.3125 0 
L 43.21875 64.59375 
L 8.203125 64.59375 
z
" id="DejaVuSans-37"/>
     </defs>
     <g transform="translate(395.379416 448.906793)scale(0.1 -0.1)">
      <use xlink:href="#DejaVuSans-37"/>
     </g>
    </g>
   </g>
   <g id="xtick_4">
    <g id="line2d_5">
     <path d="M 409.766794 420.764087 
L 414.660554 421.582734 
" style="fill:none;stroke:#000000;stroke-linecap:square;stroke-width:0.8;"/>
    </g>
    <g id="text_5">
     <!-- 8 -->
     <defs>
      <path d="M 31.78125 34.625 
Q 24.75 34.625 20.71875 30.859375 
Q 16.703125 27.09375 16.703125 20.515625 
Q 16.703125 13.921875 20.71875 10.15625 
Q 24.75 6.390625 31.78125 6.390625 
Q 38.8125 6.390625 42.859375 10.171875 
Q 46.921875 13.96875 46.921875 20.515625 
Q 46.921875 27.09375 42.890625 30.859375 
Q 38.875 34.625 31.78125 34.625 
z
M 21.921875 38.8125 
Q 15.578125 40.375 12.03125 44.71875 
Q 8.5 49.078125 8.5 55.328125 
Q 8.5 64.0625 14.71875 69.140625 
Q 20.953125 74.21875 31.78125 74.21875 
Q 42.671875 74.21875 48.875 69.140625 
Q 55.078125 64.0625 55.078125 55.328125 
Q 55.078125 49.078125 51.53125 44.71875 
Q 48 40.375 41.703125 38.8125 
Q 48.828125 37.15625 52.796875 32.3125 
Q 56.78125 27.484375 56.78125 20.515625 
Q 56.78125 9.90625 50.3125 4.234375 
Q 43.84375 -1.421875 31.78125 -1.421875 
Q 19.734375 -1.421875 13.25 4.234375 
Q 6.78125 9.90625 6.78125 20.515625 
Q 6.78125 27.484375 10.78125 32.3125 
Q 14.796875 37.15625 21.921875 38.8125 
z
M 18.3125 54.390625 
Q 18.3125 48.734375 21.84375 45.5625 
Q 25.390625 42.390625 31.78125 42.390625 
Q 38.140625 42.390625 41.71875 45.5625 
Q 45.3125 48.734375 45.3125 54.390625 
Q 45.3125 60.0625 41.71875 63.234375 
Q 38.140625 66.40625 31.78125 66.40625 
Q 25.390625 66.40625 21.84375 63.234375 
Q 18.3125 60.0625 18.3125 54.390625 
z
" id="DejaVuSans-38"/>
     </defs>
     <g transform="translate(418.26517 442.744254)scale(0.1 -0.1)">
      <use xlink:href="#DejaVuSans-38"/>
     </g>
    </g>
   </g>
   <g id="xtick_5">
    <g id="line2d_6">
     <path d="M 432.188737 414.929006 
L 437.061783 415.728824 
" style="fill:none;stroke:#000000;stroke-linecap:square;stroke-width:0.8;"/>
    </g>
    <g id="text_6">
     <!-- 9 -->
     <defs>
      <path d="M 10.984375 1.515625 
L 10.984375 10.5 
Q 14.703125 8.734375 18.5 7.8125 
Q 22.3125 6.890625 25.984375 6.890625 
Q 35.75 6.890625 40.890625 13.453125 
Q 46.046875 20.015625 46.78125 33.40625 
Q 43.953125 29.203125 39.59375 26.953125 
Q 35.25 24.703125 29.984375 24.703125 
Q 19.046875 24.703125 12.671875 31.3125 
Q 6.296875 37.9375 6.296875 49.421875 
Q 6.296875 60.640625 12.9375 67.421875 
Q 19.578125 74.21875 30.609375 74.21875 
Q 43.265625 74.21875 49.921875 64.515625 
Q 56.59375 54.828125 56.59375 36.375 
Q 56.59375 19.140625 48.40625 8.859375 
Q 40.234375 -1.421875 26.421875 -1.421875 
Q 22.703125 -1.421875 18.890625 -0.6875 
Q 15.09375 0.046875 10.984375 1.515625 
z
M 30.609375 32.421875 
Q 37.25 32.421875 41.125 36.953125 
Q 45.015625 41.5 45.015625 49.421875 
Q 45.015625 57.28125 41.125 61.84375 
Q 37.25 66.40625 30.609375 66.40625 
Q 23.96875 66.40625 20.09375 61.84375 
Q 16.21875 57.28125 16.21875 49.421875 
Q 16.21875 41.5 20.09375 36.953125 
Q 23.96875 32.421875 30.609375 32.421875 
z
" id="DejaVuSans-39"/>
     </defs>
     <g transform="translate(440.620302 436.724599)scale(0.1 -0.1)">
      <use xlink:href="#DejaVuSans-39"/>
     </g>
    </g>
   </g>
   <g id="xtick_6">
    <g id="line2d_7">
     <path d="M 454.098319 409.227262 
L 458.950313 410.008894 
" style="fill:none;stroke:#000000;stroke-linecap:square;stroke-width:0.8;"/>
    </g>
    <g id="text_7">
     <!-- 10 -->
     <defs>
      <path d="M 12.40625 8.296875 
L 28.515625 8.296875 
L 28.515625 63.921875 
L 10.984375 60.40625 
L 10.984375 69.390625 
L 28.421875 72.90625 
L 38.28125 72.90625 
L 38.28125 8.296875 
L 54.390625 8.296875 
L 54.390625 0 
L 12.40625 0 
z
" id="DejaVuSans-31"/>
      <path d="M 31.78125 66.40625 
Q 24.171875 66.40625 20.328125 58.90625 
Q 16.5 51.421875 16.5 36.375 
Q 16.5 21.390625 20.328125 13.890625 
Q 24.171875 6.390625 31.78125 6.390625 
Q 39.453125 6.390625 43.28125 13.890625 
Q 47.125 21.390625 47.125 36.375 
Q 47.125 51.421875 43.28125 58.90625 
Q 39.453125 66.40625 31.78125 66.40625 
z
M 31.78125 74.21875 
Q 44.046875 74.21875 50.515625 64.515625 
Q 56.984375 54.828125 56.984375 36.375 
Q 56.984375 17.96875 50.515625 8.265625 
Q 44.046875 -1.421875 31.78125 -1.421875 
Q 19.53125 -1.421875 13.0625 8.265625 
Q 6.59375 17.96875 6.59375 36.375 
Q 6.59375 54.828125 13.0625 64.515625 
Q 19.53125 74.21875 31.78125 74.21875 
z
" id="DejaVuSans-30"/>
     </defs>
     <g transform="translate(459.281803 430.842914)scale(0.1 -0.1)">
      <use xlink:href="#DejaVuSans-31"/>
      <use x="63.623047" xlink:href="#DejaVuSans-30"/>
     </g>
    </g>
   </g>
  </g>
  <g id="axis3d_2">
   <g id="line2d_8">
    <path d="M 124.455498 410.441212 
L 317.792598 445.429715 
" style="fill:none;stroke:#000000;stroke-linecap:square;stroke-width:0.8;"/>
   </g>
   <g id="text_8">
    <!-- # of linearizations -->
    <defs>
     <path d="M 51.125 44 
L 36.921875 44 
L 32.8125 27.6875 
L 47.125 27.6875 
z
M 43.796875 71.78125 
L 38.71875 51.515625 
L 52.984375 51.515625 
L 58.109375 71.78125 
L 65.921875 71.78125 
L 60.890625 51.515625 
L 76.125 51.515625 
L 76.125 44 
L 58.984375 44 
L 54.984375 27.6875 
L 70.515625 27.6875 
L 70.515625 20.21875 
L 53.078125 20.21875 
L 48 0 
L 40.1875 0 
L 45.21875 20.21875 
L 30.90625 20.21875 
L 25.875 0 
L 18.015625 0 
L 23.09375 20.21875 
L 7.71875 20.21875 
L 7.71875 27.6875 
L 24.90625 27.6875 
L 29 44 
L 13.28125 44 
L 13.28125 51.515625 
L 30.90625 51.515625 
L 35.890625 71.78125 
z
" id="DejaVuSans-23"/>
     <path d="M 30.609375 48.390625 
Q 23.390625 48.390625 19.1875 42.75 
Q 14.984375 37.109375 14.984375 27.296875 
Q 14.984375 17.484375 19.15625 11.84375 
Q 23.34375 6.203125 30.609375 6.203125 
Q 37.796875 6.203125 41.984375 11.859375 
Q 46.1875 17.53125 46.1875 27.296875 
Q 46.1875 37.015625 41.984375 42.703125 
Q 37.796875 48.390625 30.609375 48.390625 
z
M 30.609375 56 
Q 42.328125 56 49.015625 48.375 
Q 55.71875 40.765625 55.71875 27.296875 
Q 55.71875 13.875 49.015625 6.21875 
Q 42.328125 -1.421875 30.609375 -1.421875 
Q 18.84375 -1.421875 12.171875 6.21875 
Q 5.515625 13.875 5.515625 27.296875 
Q 5.515625 40.765625 12.171875 48.375 
Q 18.84375 56 30.609375 56 
z
" id="DejaVuSans-6f"/>
     <path d="M 37.109375 75.984375 
L 37.109375 68.5 
L 28.515625 68.5 
Q 23.6875 68.5 21.796875 66.546875 
Q 19.921875 64.59375 19.921875 59.515625 
L 19.921875 54.6875 
L 34.71875 54.6875 
L 34.71875 47.703125 
L 19.921875 47.703125 
L 19.921875 0 
L 10.890625 0 
L 10.890625 47.703125 
L 2.296875 47.703125 
L 2.296875 54.6875 
L 10.890625 54.6875 
L 10.890625 58.5 
Q 10.890625 67.625 15.140625 71.796875 
Q 19.390625 75.984375 28.609375 75.984375 
z
" id="DejaVuSans-66"/>
     <path d="M 9.421875 75.984375 
L 18.40625 75.984375 
L 18.40625 0 
L 9.421875 0 
z
" id="DejaVuSans-6c"/>
     <path d="M 34.28125 27.484375 
Q 23.390625 27.484375 19.1875 25 
Q 14.984375 22.515625 14.984375 16.5 
Q 14.984375 11.71875 18.140625 8.90625 
Q 21.296875 6.109375 26.703125 6.109375 
Q 34.1875 6.109375 38.703125 11.40625 
Q 43.21875 16.703125 43.21875 25.484375 
L 43.21875 27.484375 
z
M 52.203125 31.203125 
L 52.203125 0 
L 43.21875 0 
L 43.21875 8.296875 
Q 40.140625 3.328125 35.546875 0.953125 
Q 30.953125 -1.421875 24.3125 -1.421875 
Q 15.921875 -1.421875 10.953125 3.296875 
Q 6 8.015625 6 15.921875 
Q 6 25.140625 12.171875 29.828125 
Q 18.359375 34.515625 30.609375 34.515625 
L 43.21875 34.515625 
L 43.21875 35.40625 
Q 43.21875 41.609375 39.140625 45 
Q 35.0625 48.390625 27.6875 48.390625 
Q 23 48.390625 18.546875 47.265625 
Q 14.109375 46.140625 10.015625 43.890625 
L 10.015625 52.203125 
Q 14.9375 54.109375 19.578125 55.046875 
Q 24.21875 56 28.609375 56 
Q 40.484375 56 46.34375 49.84375 
Q 52.203125 43.703125 52.203125 31.203125 
z
" id="DejaVuSans-61"/>
     <path d="M 18.3125 70.21875 
L 18.3125 54.6875 
L 36.8125 54.6875 
L 36.8125 47.703125 
L 18.3125 47.703125 
L 18.3125 18.015625 
Q 18.3125 11.328125 20.140625 9.421875 
Q 21.96875 7.515625 27.59375 7.515625 
L 36.8125 7.515625 
L 36.8125 0 
L 27.59375 0 
Q 17.1875 0 13.234375 3.875 
Q 9.28125 7.765625 9.28125 18.015625 
L 9.28125 47.703125 
L 2.6875 47.703125 
L 2.6875 54.6875 
L 9.28125 54.6875 
L 9.28125 70.21875 
z
" id="DejaVuSans-74"/>
    </defs>
    <g transform="translate(144.685489 452.811894)rotate(-349.74212)scale(0.12 -0.12)">
     <use xlink:href="#DejaVuSans-23"/>
     <use x="83.789062" xlink:href="#DejaVuSans-20"/>
     <use x="115.576172" xlink:href="#DejaVuSans-6f"/>
     <use x="176.757812" xlink:href="#DejaVuSans-66"/>
     <use x="211.962891" xlink:href="#DejaVuSans-20"/>
     <use x="243.75" xlink:href="#DejaVuSans-6c"/>
     <use x="271.533203" xlink:href="#DejaVuSans-69"/>
     <use x="299.316406" xlink:href="#DejaVuSans-6e"/>
     <use x="362.695312" xlink:href="#DejaVuSans-65"/>
     <use x="424.21875" xlink:href="#DejaVuSans-61"/>
     <use x="485.498047" xlink:href="#DejaVuSans-72"/>
     <use x="526.611328" xlink:href="#DejaVuSans-69"/>
     <use x="554.394531" xlink:href="#DejaVuSans-7a"/>
     <use x="606.884766" xlink:href="#DejaVuSans-61"/>
     <use x="668.164062" xlink:href="#DejaVuSans-74"/>
     <use x="707.373047" xlink:href="#DejaVuSans-69"/>
     <use x="735.15625" xlink:href="#DejaVuSans-6f"/>
     <use x="796.337891" xlink:href="#DejaVuSans-6e"/>
     <use x="859.716797" xlink:href="#DejaVuSans-73"/>
    </g>
   </g>
   <g id="Line3DCollection_2">
    <path d="M 454.575585 157.04578 
L 452.198195 400.516786 
L 293.530013 441.038879 
" style="fill:none;stroke:#b0b0b0;stroke-width:0.8;"/>
    <path d="M 432.757213 155.327911 
L 430.732391 397.1177 
L 271.488194 437.049938 
" style="fill:none;stroke:#b0b0b0;stroke-width:0.8;"/>
    <path d="M 411.247488 153.634345 
L 409.565605 393.765964 
L 249.778703 433.121139 
" style="fill:none;stroke:#b0b0b0;stroke-width:0.8;"/>
    <path d="M 390.039908 151.964567 
L 388.691631 390.460594 
L 228.394079 429.251132 
" style="fill:none;stroke:#b0b0b0;stroke-width:0.8;"/>
    <path d="M 369.128149 150.318081 
L 368.104436 387.200635 
L 207.327086 425.438606 
" style="fill:none;stroke:#b0b0b0;stroke-width:0.8;"/>
    <path d="M 348.506067 148.694402 
L 347.798151 383.985158 
L 186.570698 421.682292 
" style="fill:none;stroke:#b0b0b0;stroke-width:0.8;"/>
    <path d="M 328.167682 147.093061 
L 327.767063 380.813258 
L 166.118097 417.980954 
" style="fill:none;stroke:#b0b0b0;stroke-width:0.8;"/>
    <path d="M 308.107181 145.513598 
L 308.005618 377.684056 
L 145.962662 414.333395 
" style="fill:none;stroke:#b0b0b0;stroke-width:0.8;"/>
   </g>
   <g id="xtick_7">
    <g id="line2d_9">
     <path d="M 294.904576 440.687831 
L 290.775364 441.742385 
" style="fill:none;stroke:#000000;stroke-linecap:square;stroke-width:0.8;"/>
    </g>
    <g id="text_9">
     <!-- 30 -->
     <defs>
      <path d="M 40.578125 39.3125 
Q 47.65625 37.796875 51.625 33 
Q 55.609375 28.21875 55.609375 21.1875 
Q 55.609375 10.40625 48.1875 4.484375 
Q 40.765625 -1.421875 27.09375 -1.421875 
Q 22.515625 -1.421875 17.65625 -0.515625 
Q 12.796875 0.390625 7.625 2.203125 
L 7.625 11.71875 
Q 11.71875 9.328125 16.59375 8.109375 
Q 21.484375 6.890625 26.8125 6.890625 
Q 36.078125 6.890625 40.9375 10.546875 
Q 45.796875 14.203125 45.796875 21.1875 
Q 45.796875 27.640625 41.28125 31.265625 
Q 36.765625 34.90625 28.71875 34.90625 
L 20.21875 34.90625 
L 20.21875 43.015625 
L 29.109375 43.015625 
Q 36.375 43.015625 40.234375 45.921875 
Q 44.09375 48.828125 44.09375 54.296875 
Q 44.09375 59.90625 40.109375 62.90625 
Q 36.140625 65.921875 28.71875 65.921875 
Q 24.65625 65.921875 20.015625 65.03125 
Q 15.375 64.15625 9.8125 62.3125 
L 9.8125 71.09375 
Q 15.4375 72.65625 20.34375 73.4375 
Q 25.25 74.21875 29.59375 74.21875 
Q 40.828125 74.21875 47.359375 69.109375 
Q 53.90625 64.015625 53.90625 55.328125 
Q 53.90625 49.265625 50.4375 45.09375 
Q 46.96875 40.921875 40.578125 39.3125 
z
" id="DejaVuSans-33"/>
     </defs>
     <g transform="translate(278.613728 463.721344)scale(0.1 -0.1)">
      <use xlink:href="#DejaVuSans-33"/>
      <use x="63.623047" xlink:href="#DejaVuSans-30"/>
     </g>
    </g>
   </g>
   <g id="xtick_8">
    <g id="line2d_10">
     <path d="M 272.866945 436.704201 
L 268.725193 437.742791 
" style="fill:none;stroke:#000000;stroke-linecap:square;stroke-width:0.8;"/>
    </g>
    <g id="text_10">
     <!-- 40 -->
     <defs>
      <path d="M 37.796875 64.3125 
L 12.890625 25.390625 
L 37.796875 25.390625 
z
M 35.203125 72.90625 
L 47.609375 72.90625 
L 47.609375 25.390625 
L 58.015625 25.390625 
L 58.015625 17.1875 
L 47.609375 17.1875 
L 47.609375 0 
L 37.796875 0 
L 37.796875 17.1875 
L 4.890625 17.1875 
L 4.890625 26.703125 
z
" id="DejaVuSans-34"/>
     </defs>
     <g transform="translate(256.564332 459.604281)scale(0.1 -0.1)">
      <use xlink:href="#DejaVuSans-34"/>
      <use x="63.623047" xlink:href="#DejaVuSans-30"/>
     </g>
    </g>
   </g>
   <g id="xtick_9">
    <g id="line2d_11">
     <path d="M 251.16136 432.780593 
L 247.007914 433.803578 
" style="fill:none;stroke:#000000;stroke-linecap:square;stroke-width:0.8;"/>
    </g>
    <g id="text_11">
     <!-- 50 -->
     <g transform="translate(234.848467 455.549495)scale(0.1 -0.1)">
      <use xlink:href="#DejaVuSans-35"/>
      <use x="63.623047" xlink:href="#DejaVuSans-30"/>
     </g>
    </g>
   </g>
   <g id="xtick_10">
    <g id="line2d_12">
     <path d="M 229.780373 428.915661 
L 225.616046 429.92339 
" style="fill:none;stroke:#000000;stroke-linecap:square;stroke-width:0.8;"/>
    </g>
    <g id="text_12">
     <!-- 60 -->
     <g transform="translate(213.458622 451.555583)scale(0.1 -0.1)">
      <use xlink:href="#DejaVuSans-36"/>
      <use x="63.623047" xlink:href="#DejaVuSans-30"/>
     </g>
    </g>
   </g>
   <g id="xtick_11">
    <g id="line2d_13">
     <path d="M 208.716755 425.108099 
L 204.542328 426.10091 
" style="fill:none;stroke:#000000;stroke-linecap:square;stroke-width:0.8;"/>
    </g>
    <g id="text_13">
     <!-- 70 -->
     <g transform="translate(192.38751 447.621185)scale(0.1 -0.1)">
      <use xlink:href="#DejaVuSans-37"/>
      <use x="63.623047" xlink:href="#DejaVuSans-30"/>
     </g>
    </g>
   </g>
   <g id="xtick_12">
    <g id="line2d_14">
     <path d="M 187.963494 421.356638 
L 183.779716 422.334861 
" style="fill:none;stroke:#000000;stroke-linecap:square;stroke-width:0.8;"/>
    </g>
    <g id="text_14">
     <!-- 80 -->
     <g transform="translate(171.62806 443.74498)scale(0.1 -0.1)">
      <use xlink:href="#DejaVuSans-38"/>
      <use x="63.623047" xlink:href="#DejaVuSans-30"/>
     </g>
    </g>
   </g>
   <g id="xtick_13">
    <g id="line2d_15">
     <path d="M 167.513779 417.660048 
L 163.321371 418.624001 
" style="fill:none;stroke:#000000;stroke-linecap:square;stroke-width:0.8;"/>
    </g>
    <g id="text_15">
     <!-- 90 -->
     <g transform="translate(151.173408 439.925688)scale(0.1 -0.1)">
      <use xlink:href="#DejaVuSans-39"/>
      <use x="63.623047" xlink:href="#DejaVuSans-30"/>
     </g>
    </g>
   </g>
   <g id="xtick_14">
    <g id="line2d_16">
     <path d="M 147.361 414.017133 
L 143.160654 414.967127 
" style="fill:none;stroke:#000000;stroke-linecap:square;stroke-width:0.8;"/>
    </g>
    <g id="text_16">
     <!-- 100 -->
     <g transform="translate(127.835639 436.162063)scale(0.1 -0.1)">
      <use xlink:href="#DejaVuSans-31"/>
      <use x="63.623047" xlink:href="#DejaVuSans-30"/>
      <use x="127.246094" xlink:href="#DejaVuSans-30"/>
     </g>
    </g>
   </g>
  </g>
  <g id="axis3d_3">
   <g id="line2d_17">
    <path d="M 124.455498 410.441212 
L 121.613711 162.063671 
" style="fill:none;stroke:#000000;stroke-linecap:square;stroke-width:0.8;"/>
   </g>
   <g id="text_17">
    <!-- # of timeouts -->
    <defs>
     <path d="M 52 44.1875 
Q 55.375 50.25 60.0625 53.125 
Q 64.75 56 71.09375 56 
Q 79.640625 56 84.28125 50.015625 
Q 88.921875 44.046875 88.921875 33.015625 
L 88.921875 0 
L 79.890625 0 
L 79.890625 32.71875 
Q 79.890625 40.578125 77.09375 44.375 
Q 74.3125 48.1875 68.609375 48.1875 
Q 61.625 48.1875 57.5625 43.546875 
Q 53.515625 38.921875 53.515625 30.90625 
L 53.515625 0 
L 44.484375 0 
L 44.484375 32.71875 
Q 44.484375 40.625 41.703125 44.40625 
Q 38.921875 48.1875 33.109375 48.1875 
Q 26.21875 48.1875 22.15625 43.53125 
Q 18.109375 38.875 18.109375 30.90625 
L 18.109375 0 
L 9.078125 0 
L 9.078125 54.6875 
L 18.109375 54.6875 
L 18.109375 46.1875 
Q 21.1875 51.21875 25.484375 53.609375 
Q 29.78125 56 35.6875 56 
Q 41.65625 56 45.828125 52.96875 
Q 50 49.953125 52 44.1875 
z
" id="DejaVuSans-6d"/>
    </defs>
    <g transform="translate(80.521784 246.663684)rotate(-270.655515)scale(0.12 -0.12)">
     <use xlink:href="#DejaVuSans-23"/>
     <use x="83.789062" xlink:href="#DejaVuSans-20"/>
     <use x="115.576172" xlink:href="#DejaVuSans-6f"/>
     <use x="176.757812" xlink:href="#DejaVuSans-66"/>
     <use x="211.962891" xlink:href="#DejaVuSans-20"/>
     <use x="243.75" xlink:href="#DejaVuSans-74"/>
     <use x="282.958984" xlink:href="#DejaVuSans-69"/>
     <use x="310.742188" xlink:href="#DejaVuSans-6d"/>
     <use x="408.154297" xlink:href="#DejaVuSans-65"/>
     <use x="469.677734" xlink:href="#DejaVuSans-6f"/>
     <use x="530.859375" xlink:href="#DejaVuSans-75"/>
     <use x="594.238281" xlink:href="#DejaVuSans-74"/>
     <use x="633.447266" xlink:href="#DejaVuSans-73"/>
    </g>
   </g>
   <g id="Line3DCollection_3">
    <path d="M 124.399544 405.550706 
L 286.891194 369.797269 
L 475.852218 399.4225 
" style="fill:none;stroke:#b0b0b0;stroke-width:0.8;"/>
    <path d="M 124.13047 382.033118 
L 286.870967 347.948857 
L 476.114594 376.190474 
" style="fill:none;stroke:#b0b0b0;stroke-width:0.8;"/>
    <path d="M 123.860576 358.443852 
L 286.850684 326.03873 
L 476.37776 352.888528 
" style="fill:none;stroke:#b0b0b0;stroke-width:0.8;"/>
    <path d="M 123.589858 334.782577 
L 286.830343 304.066625 
L 476.641719 329.516347 
" style="fill:none;stroke:#b0b0b0;stroke-width:0.8;"/>
    <path d="M 123.318312 311.048965 
L 286.809944 282.032279 
L 476.906475 306.073611 
" style="fill:none;stroke:#b0b0b0;stroke-width:0.8;"/>
    <path d="M 123.045935 287.242683 
L 286.789488 259.935428 
L 477.172031 282.560001 
" style="fill:none;stroke:#b0b0b0;stroke-width:0.8;"/>
    <path d="M 122.772722 263.363397 
L 286.768973 237.775804 
L 477.438392 258.975195 
" style="fill:none;stroke:#b0b0b0;stroke-width:0.8;"/>
    <path d="M 122.498671 239.410771 
L 286.7484 215.553141 
L 477.70556 235.318869 
" style="fill:none;stroke:#b0b0b0;stroke-width:0.8;"/>
    <path d="M 122.223776 215.384466 
L 286.727769 193.267168 
L 477.973539 211.590698 
" style="fill:none;stroke:#b0b0b0;stroke-width:0.8;"/>
    <path d="M 121.948035 191.284142 
L 286.707078 170.917615 
L 478.242334 187.790353 
" style="fill:none;stroke:#b0b0b0;stroke-width:0.8;"/>
    <path d="M 121.671442 167.109455 
L 286.686329 148.50421 
L 478.511948 163.917505 
" style="fill:none;stroke:#b0b0b0;stroke-width:0.8;"/>
   </g>
   <g id="xtick_15">
    <g id="line2d_18">
     <path d="M 125.800988 405.242343 
L 121.591352 406.1686 
" style="fill:none;stroke:#000000;stroke-linecap:square;stroke-width:0.8;"/>
    </g>
    <g id="text_18">
     <!-- 0 -->
     <g transform="translate(103.54621 413.457288)scale(0.1 -0.1)">
      <use xlink:href="#DejaVuSans-30"/>
     </g>
    </g>
   </g>
   <g id="xtick_16">
    <g id="line2d_19">
     <path d="M 125.534214 381.739119 
L 121.317659 382.622232 
" style="fill:none;stroke:#000000;stroke-linecap:square;stroke-width:0.8;"/>
    </g>
    <g id="text_19">
     <!-- 10 -->
     <g transform="translate(100.068809 389.925347)scale(0.1 -0.1)">
      <use xlink:href="#DejaVuSans-31"/>
      <use x="63.623047" xlink:href="#DejaVuSans-30"/>
     </g>
    </g>
   </g>
   <g id="xtick_17">
    <g id="line2d_20">
     <path d="M 125.266628 358.164305 
L 121.043131 359.004006 
" style="fill:none;stroke:#000000;stroke-linecap:square;stroke-width:0.8;"/>
    </g>
    <g id="text_20">
     <!-- 20 -->
     <defs>
      <path d="M 19.1875 8.296875 
L 53.609375 8.296875 
L 53.609375 0 
L 7.328125 0 
L 7.328125 8.296875 
Q 12.9375 14.109375 22.625 23.890625 
Q 32.328125 33.6875 34.8125 36.53125 
Q 39.546875 41.84375 41.421875 45.53125 
Q 43.3125 49.21875 43.3125 52.78125 
Q 43.3125 58.59375 39.234375 62.25 
Q 35.15625 65.921875 28.609375 65.921875 
Q 23.96875 65.921875 18.8125 64.3125 
Q 13.671875 62.703125 7.8125 59.421875 
L 7.8125 69.390625 
Q 13.765625 71.78125 18.9375 73 
Q 24.125 74.21875 28.421875 74.21875 
Q 39.75 74.21875 46.484375 68.546875 
Q 53.21875 62.890625 53.21875 53.421875 
Q 53.21875 48.921875 51.53125 44.890625 
Q 49.859375 40.875 45.40625 35.40625 
Q 44.1875 33.984375 37.640625 27.21875 
Q 31.109375 20.453125 19.1875 8.296875 
z
" id="DejaVuSans-32"/>
     </defs>
     <g transform="translate(99.771755 366.321638)scale(0.1 -0.1)">
      <use xlink:href="#DejaVuSans-32"/>
      <use x="63.623047" xlink:href="#DejaVuSans-30"/>
     </g>
    </g>
   </g>
   <g id="xtick_18">
    <g id="line2d_21">
     <path d="M 124.998226 334.517573 
L 120.767764 335.313593 
" style="fill:none;stroke:#000000;stroke-linecap:square;stroke-width:0.8;"/>
    </g>
    <g id="text_21">
     <!-- 30 -->
     <g transform="translate(99.473794 342.645832)scale(0.1 -0.1)">
      <use xlink:href="#DejaVuSans-33"/>
      <use x="63.623047" xlink:href="#DejaVuSans-30"/>
     </g>
    </g>
   </g>
   <g id="xtick_19">
    <g id="line2d_22">
     <path d="M 124.729004 310.798594 
L 120.491554 311.550661 
" style="fill:none;stroke:#000000;stroke-linecap:square;stroke-width:0.8;"/>
    </g>
    <g id="text_22">
     <!-- 40 -->
     <g transform="translate(99.174921 318.897598)scale(0.1 -0.1)">
      <use xlink:href="#DejaVuSans-34"/>
      <use x="63.623047" xlink:href="#DejaVuSans-30"/>
     </g>
    </g>
   </g>
   <g id="xtick_20">
    <g id="line2d_23">
     <path d="M 124.458958 287.007036 
L 120.214498 287.714878 
" style="fill:none;stroke:#000000;stroke-linecap:square;stroke-width:0.8;"/>
    </g>
    <g id="text_23">
     <!-- 50 -->
     <g transform="translate(98.875132 295.076604)scale(0.1 -0.1)">
      <use xlink:href="#DejaVuSans-35"/>
      <use x="63.623047" xlink:href="#DejaVuSans-30"/>
     </g>
    </g>
   </g>
   <g id="xtick_21">
    <g id="line2d_24">
     <path d="M 124.188084 263.142565 
L 119.93659 263.805906 
" style="fill:none;stroke:#000000;stroke-linecap:square;stroke-width:0.8;"/>
    </g>
    <g id="text_24">
     <!-- 60 -->
     <g transform="translate(98.574423 271.182514)scale(0.1 -0.1)">
      <use xlink:href="#DejaVuSans-36"/>
      <use x="63.623047" xlink:href="#DejaVuSans-30"/>
     </g>
    </g>
   </g>
   <g id="xtick_22">
    <g id="line2d_25">
     <path d="M 123.916379 239.204846 
L 119.657828 239.82341 
" style="fill:none;stroke:#000000;stroke-linecap:square;stroke-width:0.8;"/>
    </g>
    <g id="text_25">
     <!-- 70 -->
     <g transform="translate(98.27279 247.214991)scale(0.1 -0.1)">
      <use xlink:href="#DejaVuSans-37"/>
      <use x="63.623047" xlink:href="#DejaVuSans-30"/>
     </g>
    </g>
   </g>
   <g id="xtick_23">
    <g id="line2d_26">
     <path d="M 123.643839 215.193541 
L 119.378208 215.767048 
" style="fill:none;stroke:#000000;stroke-linecap:square;stroke-width:0.8;"/>
    </g>
    <g id="text_26">
     <!-- 80 -->
     <g transform="translate(97.970229 223.173696)scale(0.1 -0.1)">
      <use xlink:href="#DejaVuSans-38"/>
      <use x="63.623047" xlink:href="#DejaVuSans-30"/>
     </g>
    </g>
   </g>
   <g id="xtick_24">
    <g id="line2d_27">
     <path d="M 123.37046 191.10831 
L 119.097725 191.63648 
" style="fill:none;stroke:#000000;stroke-linecap:square;stroke-width:0.8;"/>
    </g>
    <g id="text_27">
     <!-- 90 -->
     <g transform="translate(97.666735 199.058289)scale(0.1 -0.1)">
      <use xlink:href="#DejaVuSans-39"/>
      <use x="63.623047" xlink:href="#DejaVuSans-30"/>
     </g>
    </g>
   </g>
   <g id="xtick_25">
    <g id="line2d_28">
     <path d="M 123.096237 166.948811 
L 118.816375 167.431361 
" style="fill:none;stroke:#000000;stroke-linecap:square;stroke-width:0.8;"/>
    </g>
    <g id="text_28">
     <!-- 100 -->
     <g transform="translate(94.181054 174.868426)scale(0.1 -0.1)">
      <use xlink:href="#DejaVuSans-31"/>
      <use x="63.623047" xlink:href="#DejaVuSans-30"/>
      <use x="127.246094" xlink:href="#DejaVuSans-30"/>
     </g>
    </g>
   </g>
  </g>
  <g id="axes_1">
   <g id="Poly3DCollection_1">
    <path clip-path="url(#p4879f087f5)" d="M 286.012745 381.84206 
L 308.270427 376.816831 
L 288.608566 373.709526 
L 266.289655 378.666866 
z
" style="fill:#8a8a8a;stroke:#000000;stroke-width:1.5;"/>
    <path clip-path="url(#p4879f087f5)" d="M 308.270427 376.816831 
L 288.608566 373.709526 
L 288.426657 150.538016 
L 308.372542 152.15372 
z
" style="fill:#dcdcdc;stroke:#000000;stroke-width:1.5;"/>
    <path clip-path="url(#p4879f087f5)" d="M 266.289655 378.666866 
L 288.608566 373.709526 
L 288.426657 150.538016 
L 265.780601 153.115833 
z
" style="fill:#6e6e6e;stroke:#000000;stroke-width:1.5;"/>
    <path clip-path="url(#p4879f087f5)" d="M 306.008352 385.061127 
L 328.20101 379.966603 
L 308.270427 376.816831 
L 286.012745 381.84206 
z
" style="fill:#8a8a8a;stroke:#000000;stroke-width:1.5;"/>
    <path clip-path="url(#p4879f087f5)" d="M 328.20101 379.966603 
L 308.270427 376.816831 
L 308.372542 152.15372 
L 328.595014 153.791829 
z
" style="fill:#dcdcdc;stroke:#000000;stroke-width:1.5;"/>
    <path clip-path="url(#p4879f087f5)" d="M 286.012745 381.84206 
L 308.270427 376.816831 
L 308.372542 152.15372 
L 285.789477 154.767357 
z
" style="fill:#6e6e6e;stroke:#000000;stroke-width:1.5;"/>
    <path clip-path="url(#p4879f087f5)" d="M 286.012745 381.84206 
L 308.270427 376.816831 
L 308.372542 152.15372 
L 285.789477 154.767357 
z
" style="fill:#6e6e6e;stroke:#000000;stroke-width:1.5;"/>
    <path clip-path="url(#p4879f087f5)" d="M 263.264385 386.978073 
L 286.012745 381.84206 
L 266.289655 378.666866 
L 243.482107 383.732738 
z
" style="fill:#8a8a8a;stroke:#000000;stroke-width:1.5;"/>
    <path clip-path="url(#p4879f087f5)" d="M 286.012745 381.84206 
L 266.289655 378.666866 
L 265.780601 153.115833 
L 285.789477 154.767357 
z
" style="fill:#dcdcdc;stroke:#000000;stroke-width:1.5;"/>
    <path clip-path="url(#p4879f087f5)" d="M 286.012745 381.84206 
L 266.289655 378.666866 
L 265.780601 153.115833 
L 285.789477 154.767357 
z
" style="fill:#dcdcdc;stroke:#000000;stroke-width:1.5;"/>
    <path clip-path="url(#p4879f087f5)" d="M 326.282164 388.324982 
L 348.405861 383.15972 
L 328.20101 379.966603 
L 306.008352 385.061127 
z
" style="fill:#8a8a8a;stroke:#000000;stroke-width:1.5;"/>
    <path clip-path="url(#p4879f087f5)" d="M 285.789477 154.767357 
L 308.372542 152.15372 
L 288.426657 150.538016 
L 265.780601 153.115833 
z
" style="fill:#8a8a8a;stroke:#000000;stroke-width:1.5;"/>
    <path clip-path="url(#p4879f087f5)" d="M 243.482107 383.732738 
L 266.289655 378.666866 
L 265.780601 153.115833 
L 242.631443 155.750918 
z
" style="fill:#6e6e6e;stroke:#000000;stroke-width:1.5;"/>
    <path clip-path="url(#p4879f087f5)" d="M 348.405861 383.15972 
L 328.20101 379.966603 
L 328.595014 153.791829 
L 349.099864 155.452812 
z
" style="fill:#dcdcdc;stroke:#000000;stroke-width:1.5;"/>
    <path clip-path="url(#p4879f087f5)" d="M 306.008352 385.061127 
L 328.20101 379.966603 
L 328.595014 153.791829 
L 306.078904 156.442037 
z
" style="fill:#6e6e6e;stroke:#000000;stroke-width:1.5;"/>
    <path clip-path="url(#p4879f087f5)" d="M 306.008352 385.061127 
L 328.20101 379.966603 
L 328.595014 153.791829 
L 306.078904 156.442037 
z
" style="fill:#6e6e6e;stroke:#000000;stroke-width:1.5;"/>
    <path clip-path="url(#p4879f087f5)" d="M 283.323033 390.268746 
L 306.008352 385.061127 
L 286.012745 381.84206 
L 263.264385 386.978073 
z
" style="fill:#8a8a8a;stroke:#000000;stroke-width:1.5;"/>
    <path clip-path="url(#p4879f087f5)" d="M 306.008352 385.061127 
L 286.012745 381.84206 
L 285.789477 154.767357 
L 306.078904 156.442037 
z
" style="fill:#dcdcdc;stroke:#000000;stroke-width:1.5;"/>
    <path clip-path="url(#p4879f087f5)" d="M 306.008352 385.061127 
L 286.012745 381.84206 
L 285.789477 154.767357 
L 306.078904 156.442037 
z
" style="fill:#dcdcdc;stroke:#000000;stroke-width:1.5;"/>
    <path clip-path="url(#p4879f087f5)" d="M 346.840027 391.634566 
L 368.890681 386.397082 
L 348.405861 383.15972 
L 326.282164 388.324982 
z
" style="fill:#8a8a8a;stroke:#000000;stroke-width:1.5;"/>
    <path clip-path="url(#p4879f087f5)" d="M 306.078904 156.442037 
L 328.595014 153.791829 
L 308.372542 152.15372 
L 285.789477 154.767357 
z
" style="fill:#8a8a8a;stroke:#000000;stroke-width:1.5;"/>
    <path clip-path="url(#p4879f087f5)" d="M 263.264385 386.978073 
L 286.012745 381.84206 
L 285.789477 154.767357 
L 262.701178 157.439466 
z
" style="fill:#6e6e6e;stroke:#000000;stroke-width:1.5;"/>
    <path clip-path="url(#p4879f087f5)" d="M 263.264385 386.978073 
L 286.012745 381.84206 
L 285.789477 154.767357 
L 262.701178 157.439466 
z
" style="fill:#6e6e6e;stroke:#000000;stroke-width:1.5;"/>
    <path clip-path="url(#p4879f087f5)" d="M 240.008943 392.228571 
L 263.264385 386.978073 
L 243.482107 383.732738 
L 220.169698 388.910747 
z
" style="fill:#8a8a8a;stroke:#000000;stroke-width:1.5;"/>
    <path clip-path="url(#p4879f087f5)" d="M 368.890681 386.397082 
L 348.405861 383.15972 
L 349.099864 155.452812 
L 369.893049 157.137151 
z
" style="fill:#dcdcdc;stroke:#000000;stroke-width:1.5;"/>
    <path clip-path="url(#p4879f087f5)" d="M 263.264385 386.978073 
L 243.482107 383.732738 
L 242.631443 155.750918 
L 262.701178 157.439466 
z
" style="fill:#dcdcdc;stroke:#000000;stroke-width:1.5;"/>
    <path clip-path="url(#p4879f087f5)" d="M 263.264385 386.978073 
L 243.482107 383.732738 
L 242.631443 155.750918 
L 262.701178 157.439466 
z
" style="fill:#dcdcdc;stroke:#000000;stroke-width:1.5;"/>
    <path clip-path="url(#p4879f087f5)" d="M 326.282164 388.324982 
L 348.405861 383.15972 
L 349.099864 155.452812 
L 326.654823 158.140365 
z
" style="fill:#6e6e6e;stroke:#000000;stroke-width:1.5;"/>
    <path clip-path="url(#p4879f087f5)" d="M 326.282164 388.324982 
L 348.405861 383.15972 
L 349.099864 155.452812 
L 326.654823 158.140365 
z
" style="fill:#6e6e6e;stroke:#000000;stroke-width:1.5;"/>
    <path clip-path="url(#p4879f087f5)" d="M 303.663882 393.605716 
L 326.282164 388.324982 
L 306.008352 385.061127 
L 283.323033 390.268746 
z
" style="fill:#8a8a8a;stroke:#000000;stroke-width:1.5;"/>
    <path clip-path="url(#p4879f087f5)" d="M 262.701178 157.439466 
L 285.789477 154.767357 
L 265.780601 153.115833 
L 242.631443 155.750918 
z
" style="fill:#8a8a8a;stroke:#000000;stroke-width:1.5;"/>
    <path clip-path="url(#p4879f087f5)" d="M 220.169698 388.910747 
L 243.482107 383.732738 
L 242.631443 155.750918 
L 218.962229 158.445201 
z
" style="fill:#6e6e6e;stroke:#000000;stroke-width:1.5;"/>
    <path clip-path="url(#p4879f087f5)" d="M 326.282164 388.324982 
L 306.008352 385.061127 
L 306.078904 156.442037 
L 326.654823 158.140365 
z
" style="fill:#dcdcdc;stroke:#000000;stroke-width:1.5;"/>
    <path clip-path="url(#p4879f087f5)" d="M 326.282164 388.324982 
L 306.008352 385.061127 
L 306.078904 156.442037 
L 326.654823 158.140365 
z
" style="fill:#dcdcdc;stroke:#000000;stroke-width:1.5;"/>
    <path clip-path="url(#p4879f087f5)" d="M 367.687954 394.990847 
L 389.66133 389.679616 
L 368.890681 386.397082 
L 346.840027 391.634566 
z
" style="fill:#8a8a8a;stroke:#000000;stroke-width:1.5;"/>
    <path clip-path="url(#p4879f087f5)" d="M 326.654823 158.140365 
L 349.099864 155.452812 
L 328.595014 153.791829 
L 306.078904 156.442037 
z
" style="fill:#8a8a8a;stroke:#000000;stroke-width:1.5;"/>
    <path clip-path="url(#p4879f087f5)" d="M 283.323033 390.268746 
L 306.008352 385.061127 
L 306.078904 156.442037 
L 283.055486 159.151957 
z
" style="fill:#6e6e6e;stroke:#000000;stroke-width:1.5;"/>
    <path clip-path="url(#p4879f087f5)" d="M 283.323033 390.268746 
L 306.008352 385.061127 
L 306.078904 156.442037 
L 283.055486 159.151957 
z
" style="fill:#6e6e6e;stroke:#000000;stroke-width:1.5;"/>
    <path clip-path="url(#p4879f087f5)" d="M 260.128464 395.593268 
L 283.323033 390.268746 
L 263.264385 386.978073 
L 240.008943 392.228571 
z
" style="fill:#8a8a8a;stroke:#000000;stroke-width:1.5;"/>
    <path clip-path="url(#p4879f087f5)" d="M 389.66133 389.679616 
L 368.890681 386.397082 
L 369.893049 157.137151 
L 390.980695 158.845343 
z
" style="fill:#dcdcdc;stroke:#000000;stroke-width:1.5;"/>
    <path clip-path="url(#p4879f087f5)" d="M 283.323033 390.268746 
L 263.264385 386.978073 
L 262.701178 157.439466 
L 283.055486 159.151957 
z
" style="fill:#dcdcdc;stroke:#000000;stroke-width:1.5;"/>
    <path clip-path="url(#p4879f087f5)" d="M 283.323033 390.268746 
L 263.264385 386.978073 
L 262.701178 157.439466 
L 283.055486 159.151957 
z
" style="fill:#dcdcdc;stroke:#000000;stroke-width:1.5;"/>
    <path clip-path="url(#p4879f087f5)" d="M 346.840027 391.634566 
L 368.890681 386.397082 
L 369.893049 157.137151 
L 347.523345 159.862844 
z
" style="fill:#6e6e6e;stroke:#000000;stroke-width:1.5;"/>
    <path clip-path="url(#p4879f087f5)" d="M 346.840027 391.634566 
L 368.890681 386.397082 
L 369.893049 157.137151 
L 347.523345 159.862844 
z
" style="fill:#6e6e6e;stroke:#000000;stroke-width:1.5;"/>
    <path clip-path="url(#p4879f087f5)" d="M 324.29293 396.989966 
L 346.840027 391.634566 
L 326.282164 388.324982 
L 303.663882 393.605716 
z
" style="fill:#8a8a8a;stroke:#000000;stroke-width:1.5;"/>
    <path clip-path="url(#p4879f087f5)" d="M 283.055486 159.151957 
L 306.078904 156.442037 
L 285.789477 154.767357 
L 262.701178 157.439466 
z
" style="fill:#8a8a8a;stroke:#000000;stroke-width:1.5;"/>
    <path clip-path="url(#p4879f087f5)" d="M 240.008943 392.228571 
L 263.264385 386.978073 
L 262.701178 157.439466 
L 239.090497 160.172033 
z
" style="fill:#6e6e6e;stroke:#000000;stroke-width:1.5;"/>
    <path clip-path="url(#p4879f087f5)" d="M 240.008943 392.228571 
L 263.264385 386.978073 
L 262.701178 157.439466 
L 239.090497 160.172033 
z
" style="fill:#6e6e6e;stroke:#000000;stroke-width:1.5;"/>
    <path clip-path="url(#p4879f087f5)" d="M 216.229272 397.597428 
L 240.008943 392.228571 
L 220.169698 388.910747 
L 196.335477 394.204657 
z
" style="fill:#8a8a8a;stroke:#000000;stroke-width:1.5;"/>
    <path clip-path="url(#p4879f087f5)" d="M 346.840027 391.634566 
L 326.282164 388.324982 
L 326.654823 158.140365 
L 347.523345 159.862844 
z
" style="fill:#dcdcdc;stroke:#000000;stroke-width:1.5;"/>
    <path clip-path="url(#p4879f087f5)" d="M 346.840027 391.634566 
L 326.282164 388.324982 
L 326.654823 158.140365 
L 347.523345 159.862844 
z
" style="fill:#dcdcdc;stroke:#000000;stroke-width:1.5;"/>
    <path clip-path="url(#p4879f087f5)" d="M 388.832127 398.39482 
L 410.723832 393.008273 
L 389.66133 389.679616 
L 367.687954 394.990847 
z
" style="fill:#8a8a8a;stroke:#000000;stroke-width:1.5;"/>
    <path clip-path="url(#p4879f087f5)" d="M 240.008943 392.228571 
L 220.169698 388.910747 
L 218.962229 158.445201 
L 239.090497 160.172033 
z
" style="fill:#dcdcdc;stroke:#000000;stroke-width:1.5;"/>
    <path clip-path="url(#p4879f087f5)" d="M 240.008943 392.228571 
L 220.169698 388.910747 
L 218.962229 158.445201 
L 239.090497 160.172033 
z
" style="fill:#dcdcdc;stroke:#000000;stroke-width:1.5;"/>
    <path clip-path="url(#p4879f087f5)" d="M 347.523345 159.862844 
L 369.893049 157.137151 
L 349.099864 155.452812 
L 326.654823 158.140365 
z
" style="fill:#8a8a8a;stroke:#000000;stroke-width:1.5;"/>
    <path clip-path="url(#p4879f087f5)" d="M 303.663882 393.605716 
L 326.282164 388.324982 
L 326.654823 158.140365 
L 303.700464 160.888903 
z
" style="fill:#6e6e6e;stroke:#000000;stroke-width:1.5;"/>
    <path clip-path="url(#p4879f087f5)" d="M 303.663882 393.605716 
L 326.282164 388.324982 
L 326.654823 158.140365 
L 303.700464 160.888903 
z
" style="fill:#6e6e6e;stroke:#000000;stroke-width:1.5;"/>
    <path clip-path="url(#p4879f087f5)" d="M 280.534243 399.005838 
L 303.663882 393.605716 
L 283.323033 390.268746 
L 260.128464 395.593268 
z
" style="fill:#8a8a8a;stroke:#000000;stroke-width:1.5;"/>
    <path clip-path="url(#p4879f087f5)" d="M 410.723832 393.008273 
L 389.66133 389.679616 
L 390.980695 158.845343 
L 412.3691 160.577898 
z
" style="fill:#dcdcdc;stroke:#000000;stroke-width:1.5;"/>
    <path clip-path="url(#p4879f087f5)" d="M 239.090497 160.172033 
L 262.701178 157.439466 
L 242.631443 155.750918 
L 218.962229 158.445201 
z
" style="fill:#8a8a8a;stroke:#000000;stroke-width:1.5;"/>
    <path clip-path="url(#p4879f087f5)" d="M 196.335477 394.204657 
L 220.169698 388.910747 
L 218.962229 158.445201 
L 194.755235 161.2007 
z
" style="fill:#6e6e6e;stroke:#000000;stroke-width:1.5;"/>
    <path clip-path="url(#p4879f087f5)" d="M 303.663882 393.605716 
L 283.323033 390.268746 
L 283.055486 159.151957 
L 303.700464 160.888903 
z
" style="fill:#dcdcdc;stroke:#000000;stroke-width:1.5;"/>
    <path clip-path="url(#p4879f087f5)" d="M 303.663882 393.605716 
L 283.323033 390.268746 
L 283.055486 159.151957 
L 303.700464 160.888903 
z
" style="fill:#dcdcdc;stroke:#000000;stroke-width:1.5;"/>
    <path clip-path="url(#p4879f087f5)" d="M 367.687954 394.990847 
L 389.66133 389.679616 
L 390.980695 158.845343 
L 368.690758 161.609993 
z
" style="fill:#6e6e6e;stroke:#000000;stroke-width:1.5;"/>
    <path clip-path="url(#p4879f087f5)" d="M 367.687954 394.990847 
L 389.66133 389.679616 
L 390.980695 158.845343 
L 368.690758 161.609993 
z
" style="fill:#6e6e6e;stroke:#000000;stroke-width:1.5;"/>
    <path clip-path="url(#p4879f087f5)" d="M 345.216345 400.422507 
L 367.687954 394.990847 
L 346.840027 391.634566 
L 324.29293 396.989966 
z
" style="fill:#8a8a8a;stroke:#000000;stroke-width:1.5;"/>
    <path clip-path="url(#p4879f087f5)" d="M 303.700464 160.888903 
L 326.654823 158.140365 
L 306.078904 156.442037 
L 283.055486 159.151957 
z
" style="fill:#8a8a8a;stroke:#000000;stroke-width:1.5;"/>
    <path clip-path="url(#p4879f087f5)" d="M 260.128464 395.593268 
L 283.323033 390.268746 
L 283.055486 159.151957 
L 259.50742 161.923629 
z
" style="fill:#6e6e6e;stroke:#000000;stroke-width:1.5;"/>
    <path clip-path="url(#p4879f087f5)" d="M 260.128464 395.593268 
L 283.323033 390.268746 
L 283.055486 159.151957 
L 259.50742 161.923629 
z
" style="fill:#6e6e6e;stroke:#000000;stroke-width:1.5;"/>
    <path clip-path="url(#p4879f087f5)" d="M 236.407304 401.038674 
L 260.128464 395.593268 
L 240.008943 392.228571 
L 216.229272 397.597428 
z
" style="fill:#8a8a8a;stroke:#000000;stroke-width:1.5;"/>
    <path clip-path="url(#p4879f087f5)" d="M 367.687954 394.990847 
L 346.840027 391.634566 
L 347.523345 159.862844 
L 368.690758 161.609993 
z
" style="fill:#dcdcdc;stroke:#000000;stroke-width:1.5;"/>
    <path clip-path="url(#p4879f087f5)" d="M 367.687954 394.990847 
L 346.840027 391.634566 
L 347.523345 159.862844 
L 368.690758 161.609993 
z
" style="fill:#dcdcdc;stroke:#000000;stroke-width:1.5;"/>
    <path clip-path="url(#p4879f087f5)" d="M 410.278906 401.847509 
L 432.084381 396.384033 
L 410.723832 393.008273 
L 388.832127 398.39482 
z
" style="fill:#8a8a8a;stroke:#000000;stroke-width:1.5;"/>
    <path clip-path="url(#p4879f087f5)" d="M 260.128464 395.593268 
L 240.008943 392.228571 
L 239.090497 160.172033 
L 259.50742 161.923629 
z
" style="fill:#dcdcdc;stroke:#000000;stroke-width:1.5;"/>
    <path clip-path="url(#p4879f087f5)" d="M 260.128464 395.593268 
L 240.008943 392.228571 
L 239.090497 160.172033 
L 259.50742 161.923629 
z
" style="fill:#dcdcdc;stroke:#000000;stroke-width:1.5;"/>
    <path clip-path="url(#p4879f087f5)" d="M 368.690758 161.609993 
L 390.980695 158.845343 
L 369.893049 157.137151 
L 347.523345 159.862844 
z
" style="fill:#8a8a8a;stroke:#000000;stroke-width:1.5;"/>
    <path clip-path="url(#p4879f087f5)" d="M 324.29293 396.989966 
L 346.840027 391.634566 
L 347.523345 159.862844 
L 324.642383 162.650832 
z
" style="fill:#6e6e6e;stroke:#000000;stroke-width:1.5;"/>
    <path clip-path="url(#p4879f087f5)" d="M 324.29293 396.989966 
L 346.840027 391.634566 
L 347.523345 159.862844 
L 324.642383 162.650832 
z
" style="fill:#6e6e6e;stroke:#000000;stroke-width:1.5;"/>
    <path clip-path="url(#p4879f087f5)" d="M 301.232432 402.467308 
L 324.29293 396.989966 
L 303.663882 393.605716 
L 280.534243 399.005838 
z
" style="fill:#8a8a8a;stroke:#000000;stroke-width:1.5;"/>
    <path clip-path="url(#p4879f087f5)" d="M 432.084381 396.384033 
L 410.723832 393.008273 
L 412.3691 160.577898 
L 434.064745 162.33534 
z
" style="fill:#dcdcdc;stroke:#000000;stroke-width:1.5;"/>
    <path clip-path="url(#p4879f087f5)" d="M 259.50742 161.923629 
L 283.055486 159.151957 
L 262.701178 157.439466 
L 239.090497 160.172033 
z
" style="fill:#8a8a8a;stroke:#000000;stroke-width:1.5;"/>
    <path clip-path="url(#p4879f087f5)" d="M 216.229272 397.597428 
L 240.008943 392.228571 
L 239.090497 160.172033 
L 214.939503 162.967133 
z
" style="fill:#6e6e6e;stroke:#000000;stroke-width:1.5;"/>
    <path clip-path="url(#p4879f087f5)" d="M 216.229272 397.597428 
L 240.008943 392.228571 
L 239.090497 160.172033 
L 214.939503 162.967133 
z
" style="fill:#6e6e6e;stroke:#000000;stroke-width:1.5;"/>
    <path clip-path="url(#p4879f087f5)" d="M 191.907444 403.088691 
L 216.229272 397.597428 
L 196.335477 394.204657 
L 171.961726 399.618405 
z
" style="fill:#8a8a8a;stroke:#000000;stroke-width:1.5;"/>
    <path clip-path="url(#p4879f087f5)" d="M 324.29293 396.989966 
L 303.663882 393.605716 
L 303.700464 160.888903 
L 324.642383 162.650832 
z
" style="fill:#dcdcdc;stroke:#000000;stroke-width:1.5;"/>
    <path clip-path="url(#p4879f087f5)" d="M 324.29293 396.989966 
L 303.663882 393.605716 
L 303.700464 160.888903 
L 324.642383 162.650832 
z
" style="fill:#dcdcdc;stroke:#000000;stroke-width:1.5;"/>
    <path clip-path="url(#p4879f087f5)" d="M 388.832127 398.39482 
L 410.723832 393.008273 
L 412.3691 160.577898 
L 390.163528 163.382346 
z
" style="fill:#6e6e6e;stroke:#000000;stroke-width:1.5;"/>
    <path clip-path="url(#p4879f087f5)" d="M 388.832127 398.39482 
L 410.723832 393.008273 
L 412.3691 160.577898 
L 390.163528 163.382346 
z
" style="fill:#6e6e6e;stroke:#000000;stroke-width:1.5;"/>
    <path clip-path="url(#p4879f087f5)" d="M 366.440475 403.904381 
L 388.832127 398.39482 
L 367.687954 394.990847 
L 345.216345 400.422507 
z
" style="fill:#8a8a8a;stroke:#000000;stroke-width:1.5;"/>
    <path clip-path="url(#p4879f087f5)" d="M 216.229272 397.597428 
L 196.335477 394.204657 
L 194.755235 161.2007 
L 214.939503 162.967133 
z
" style="fill:#dcdcdc;stroke:#000000;stroke-width:1.5;"/>
    <path clip-path="url(#p4879f087f5)" d="M 216.229272 397.597428 
L 196.335477 394.204657 
L 194.755235 161.2007 
L 214.939503 162.967133 
z
" style="fill:#dcdcdc;stroke:#000000;stroke-width:1.5;"/>
    <path clip-path="url(#p4879f087f5)" d="M 324.642383 162.650832 
L 347.523345 159.862844 
L 326.654823 158.140365 
L 303.700464 160.888903 
z
" style="fill:#8a8a8a;stroke:#000000;stroke-width:1.5;"/>
    <path clip-path="url(#p4879f087f5)" d="M 280.534243 399.005838 
L 303.663882 393.605716 
L 303.700464 160.888903 
L 280.219253 163.700526 
z
" style="fill:#6e6e6e;stroke:#000000;stroke-width:1.5;"/>
    <path clip-path="url(#p4879f087f5)" d="M 280.534243 399.005838 
L 303.663882 393.605716 
L 303.700464 160.888903 
L 280.219253 163.700526 
z
" style="fill:#6e6e6e;stroke:#000000;stroke-width:1.5;"/>
    <path clip-path="url(#p4879f087f5)" d="M 256.875708 404.529442 
L 280.534243 399.005838 
L 260.128464 395.593268 
L 236.407304 401.038674 
z
" style="fill:#8a8a8a;stroke:#000000;stroke-width:1.5;"/>
    <path clip-path="url(#p4879f087f5)" d="M 388.832127 398.39482 
L 367.687954 394.990847 
L 368.690758 161.609993 
L 390.163528 163.382346 
z
" style="fill:#dcdcdc;stroke:#000000;stroke-width:1.5;"/>
    <path clip-path="url(#p4879f087f5)" d="M 388.832127 398.39482 
L 367.687954 394.990847 
L 368.690758 161.609993 
L 390.163528 163.382346 
z
" style="fill:#dcdcdc;stroke:#000000;stroke-width:1.5;"/>
    <path clip-path="url(#p4879f087f5)" d="M 214.939503 162.967133 
L 239.090497 160.172033 
L 218.962229 158.445201 
L 194.755235 161.2007 
z
" style="fill:#8a8a8a;stroke:#000000;stroke-width:1.5;"/>
    <path clip-path="url(#p4879f087f5)" d="M 171.961726 399.618405 
L 196.335477 394.204657 
L 194.755235 161.2007 
L 169.991923 164.019526 
z
" style="fill:#6e6e6e;stroke:#000000;stroke-width:1.5;"/>
    <path clip-path="url(#p4879f087f5)" d="M 432.034833 405.349968 
L 453.749349 399.807903 
L 432.084381 396.384033 
L 410.278906 401.847509 
z
" style="fill:#8a8a8a;stroke:#000000;stroke-width:1.5;"/>
    <path clip-path="url(#p4879f087f5)" d="M 280.534243 399.005838 
L 260.128464 395.593268 
L 259.50742 161.923629 
L 280.219253 163.700526 
z
" style="fill:#dcdcdc;stroke:#000000;stroke-width:1.5;"/>
    <path clip-path="url(#p4879f087f5)" d="M 280.534243 399.005838 
L 260.128464 395.593268 
L 259.50742 161.923629 
L 280.219253 163.700526 
z
" style="fill:#dcdcdc;stroke:#000000;stroke-width:1.5;"/>
    <path clip-path="url(#p4879f087f5)" d="M 390.163528 163.382346 
L 412.3691 160.577898 
L 390.980695 158.845343 
L 368.690758 161.609993 
z
" style="fill:#8a8a8a;stroke:#000000;stroke-width:1.5;"/>
    <path clip-path="url(#p4879f087f5)" d="M 453.749349 399.807903 
L 432.084381 396.384033 
L 433.783893 195.527734 
L 455.744547 197.546422 
z
" style="fill:#dcdcdc;stroke:#000000;stroke-width:1.5;"/>
    <path clip-path="url(#p4879f087f5)" d="M 345.216345 400.422507 
L 367.687954 394.990847 
L 368.690758 161.609993 
L 345.887695 164.438287 
z
" style="fill:#6e6e6e;stroke:#000000;stroke-width:1.5;"/>
    <path clip-path="url(#p4879f087f5)" d="M 345.216345 400.422507 
L 367.687954 394.990847 
L 368.690758 161.609993 
L 345.887695 164.438287 
z
" style="fill:#6e6e6e;stroke:#000000;stroke-width:1.5;"/>
    <path clip-path="url(#p4879f087f5)" d="M 322.229363 405.978739 
L 345.216345 400.422507 
L 324.29293 396.989966 
L 301.232432 402.467308 
z
" style="fill:#8a8a8a;stroke:#000000;stroke-width:1.5;"/>
    <path clip-path="url(#p4879f087f5)" d="M 280.219253 163.700526 
L 303.700464 160.888903 
L 283.055486 159.151957 
L 259.50742 161.923629 
z
" style="fill:#8a8a8a;stroke:#000000;stroke-width:1.5;"/>
    <path clip-path="url(#p4879f087f5)" d="M 236.407304 401.038674 
L 260.128464 395.593268 
L 259.50742 161.923629 
L 235.416566 164.759189 
z
" style="fill:#6e6e6e;stroke:#000000;stroke-width:1.5;"/>
    <path clip-path="url(#p4879f087f5)" d="M 236.407304 401.038674 
L 260.128464 395.593268 
L 259.50742 161.923629 
L 235.416566 164.759189 
z
" style="fill:#6e6e6e;stroke:#000000;stroke-width:1.5;"/>
    <path clip-path="url(#p4879f087f5)" d="M 212.141412 406.609128 
L 236.407304 401.038674 
L 216.229272 397.597428 
L 191.907444 403.088691 
z
" style="fill:#8a8a8a;stroke:#000000;stroke-width:1.5;"/>
    <path clip-path="url(#p4879f087f5)" d="M 410.278906 401.847509 
L 432.084381 396.384033 
L 433.783893 195.527734 
L 411.711523 198.749137 
z
" style="fill:#6e6e6e;stroke:#000000;stroke-width:1.5;"/>
    <path clip-path="url(#p4879f087f5)" d="M 345.216345 400.422507 
L 324.29293 396.989966 
L 324.642383 162.650832 
L 345.887695 164.438287 
z
" style="fill:#dcdcdc;stroke:#000000;stroke-width:1.5;"/>
    <path clip-path="url(#p4879f087f5)" d="M 345.216345 400.422507 
L 324.29293 396.989966 
L 324.642383 162.650832 
L 345.887695 164.438287 
z
" style="fill:#dcdcdc;stroke:#000000;stroke-width:1.5;"/>
    <path clip-path="url(#p4879f087f5)" d="M 410.278906 401.847509 
L 432.084381 396.384033 
L 434.064745 162.33534 
L 411.94831 165.180453 
z
" style="fill:#6e6e6e;stroke:#000000;stroke-width:1.5;"/>
    <path clip-path="url(#p4879f087f5)" d="M 387.971847 407.436659 
L 410.278906 401.847509 
L 388.832127 398.39482 
L 366.440475 403.904381 
z
" style="fill:#8a8a8a;stroke:#000000;stroke-width:1.5;"/>
    <path clip-path="url(#p4879f087f5)" d="M 236.407304 401.038674 
L 216.229272 397.597428 
L 214.939503 162.967133 
L 235.416566 164.759189 
z
" style="fill:#dcdcdc;stroke:#000000;stroke-width:1.5;"/>
    <path clip-path="url(#p4879f087f5)" d="M 236.407304 401.038674 
L 216.229272 397.597428 
L 214.939503 162.967133 
L 235.416566 164.759189 
z
" style="fill:#dcdcdc;stroke:#000000;stroke-width:1.5;"/>
    <path clip-path="url(#p4879f087f5)" d="M 345.887695 164.438287 
L 368.690758 161.609993 
L 347.523345 159.862844 
L 324.642383 162.650832 
z
" style="fill:#8a8a8a;stroke:#000000;stroke-width:1.5;"/>
    <path clip-path="url(#p4879f087f5)" d="M 301.232432 402.467308 
L 324.29293 396.989966 
L 324.642383 162.650832 
L 301.232432 165.503276 
z
" style="fill:#6e6e6e;stroke:#000000;stroke-width:1.5;"/>
    <path clip-path="url(#p4879f087f5)" d="M 301.232432 402.467308 
L 324.29293 396.989966 
L 324.642383 162.650832 
L 301.232432 165.503276 
z
" style="fill:#6e6e6e;stroke:#000000;stroke-width:1.5;"/>
    <path clip-path="url(#p4879f087f5)" d="M 191.907444 403.088691 
L 171.961726 399.618405 
L 170.846247 266.201228 
L 190.95725 268.736215 
z
" style="fill:#dcdcdc;stroke:#000000;stroke-width:1.5;"/>
    <path clip-path="url(#p4879f087f5)" d="M 277.640798 408.070807 
L 301.232432 402.467308 
L 280.534243 399.005838 
L 256.875708 404.529442 
z
" style="fill:#8a8a8a;stroke:#000000;stroke-width:1.5;"/>
    <path clip-path="url(#p4879f087f5)" d="M 410.278906 401.847509 
L 388.832127 398.39482 
L 390.163528 163.382346 
L 411.94831 165.180453 
z
" style="fill:#dcdcdc;stroke:#000000;stroke-width:1.5;"/>
    <path clip-path="url(#p4879f087f5)" d="M 410.278906 401.847509 
L 388.832127 398.39482 
L 390.163528 163.382346 
L 411.94831 165.180453 
z
" style="fill:#dcdcdc;stroke:#000000;stroke-width:1.5;"/>
    <path clip-path="url(#p4879f087f5)" d="M 235.416566 164.759189 
L 259.50742 161.923629 
L 239.090497 160.172033 
L 214.939503 162.967133 
z
" style="fill:#8a8a8a;stroke:#000000;stroke-width:1.5;"/>
    <path clip-path="url(#p4879f087f5)" d="M 191.907444 403.088691 
L 216.229272 397.597428 
L 214.939503 162.967133 
L 190.229435 165.826937 
z
" style="fill:#6e6e6e;stroke:#000000;stroke-width:1.5;"/>
    <path clip-path="url(#p4879f087f5)" d="M 191.907444 403.088691 
L 216.229272 397.597428 
L 214.939503 162.967133 
L 190.229435 165.826937 
z
" style="fill:#6e6e6e;stroke:#000000;stroke-width:1.5;"/>
    <path clip-path="url(#p4879f087f5)" d="M 167.024703 408.706593 
L 191.907444 403.088691 
L 171.961726 399.618405 
L 147.029915 405.156105 
z
" style="fill:#8a8a8a;stroke:#000000;stroke-width:1.5;"/>
    <path clip-path="url(#p4879f087f5)" d="M 301.232432 402.467308 
L 280.534243 399.005838 
L 280.219253 163.700526 
L 301.232432 165.503276 
z
" style="fill:#dcdcdc;stroke:#000000;stroke-width:1.5;"/>
    <path clip-path="url(#p4879f087f5)" d="M 301.232432 402.467308 
L 280.534243 399.005838 
L 280.219253 163.700526 
L 301.232432 165.503276 
z
" style="fill:#dcdcdc;stroke:#000000;stroke-width:1.5;"/>
    <path clip-path="url(#p4879f087f5)" d="M 147.029915 405.156105 
L 171.961726 399.618405 
L 170.846247 266.201228 
L 145.683933 270.246578 
z
" style="fill:#6e6e6e;stroke:#000000;stroke-width:1.5;"/>
    <path clip-path="url(#p4879f087f5)" d="M 411.94831 165.180453 
L 434.064745 162.33534 
L 412.3691 160.577898 
L 390.163528 163.382346 
z
" style="fill:#8a8a8a;stroke:#000000;stroke-width:1.5;"/>
    <path clip-path="url(#p4879f087f5)" d="M 366.440475 403.904381 
L 388.832127 398.39482 
L 390.163528 163.382346 
L 367.443042 166.251826 
z
" style="fill:#6e6e6e;stroke:#000000;stroke-width:1.5;"/>
    <path clip-path="url(#p4879f087f5)" d="M 366.440475 403.904381 
L 388.832127 398.39482 
L 390.163528 163.382346 
L 367.443042 166.251826 
z
" style="fill:#6e6e6e;stroke:#000000;stroke-width:1.5;"/>
    <path clip-path="url(#p4879f087f5)" d="M 343.531549 409.541219 
L 366.440475 403.904381 
L 345.216345 400.422507 
L 322.229363 405.978739 
z
" style="fill:#8a8a8a;stroke:#000000;stroke-width:1.5;"/>
    <path clip-path="url(#p4879f087f5)" d="M 191.907444 403.088691 
L 171.961726 399.618405 
L 169.991923 164.019526 
L 190.229435 165.826937 
z
" style="fill:#dcdcdc;stroke:#000000;stroke-width:1.5;"/>
    <path clip-path="url(#p4879f087f5)" d="M 301.232432 165.503276 
L 324.642383 162.650832 
L 303.700464 160.888903 
L 280.219253 163.700526 
z
" style="fill:#8a8a8a;stroke:#000000;stroke-width:1.5;"/>
    <path clip-path="url(#p4879f087f5)" d="M 256.875708 404.529442 
L 280.534243 399.005838 
L 280.219253 163.700526 
L 256.192841 166.577432 
z
" style="fill:#6e6e6e;stroke:#000000;stroke-width:1.5;"/>
    <path clip-path="url(#p4879f087f5)" d="M 256.875708 404.529442 
L 280.534243 399.005838 
L 280.219253 163.700526 
L 256.192841 166.577432 
z
" style="fill:#6e6e6e;stroke:#000000;stroke-width:1.5;"/>
    <path clip-path="url(#p4879f087f5)" d="M 232.669926 410.180812 
L 256.875708 404.529442 
L 236.407304 401.038674 
L 212.141412 406.609128 
z
" style="fill:#8a8a8a;stroke:#000000;stroke-width:1.5;"/>
    <path clip-path="url(#p4879f087f5)" d="M 432.034833 405.349968 
L 453.749349 399.807903 
L 455.744547 197.546422 
L 433.765822 200.814774 
z
" style="fill:#6e6e6e;stroke:#000000;stroke-width:1.5;"/>
    <path clip-path="url(#p4879f087f5)" d="M 366.440475 403.904381 
L 345.216345 400.422507 
L 345.887695 164.438287 
L 367.443042 166.251826 
z
" style="fill:#dcdcdc;stroke:#000000;stroke-width:1.5;"/>
    <path clip-path="url(#p4879f087f5)" d="M 366.440475 403.904381 
L 345.216345 400.422507 
L 345.887695 164.438287 
L 367.443042 166.251826 
z
" style="fill:#dcdcdc;stroke:#000000;stroke-width:1.5;"/>
    <path clip-path="url(#p4879f087f5)" d="M 190.229435 165.826937 
L 214.939503 162.967133 
L 194.755235 161.2007 
L 169.991923 164.019526 
z
" style="fill:#8a8a8a;stroke:#000000;stroke-width:1.5;"/>
    <path clip-path="url(#p4879f087f5)" d="M 432.034833 405.349968 
L 410.278906 401.847509 
L 411.526185 225.02397 
L 433.541865 227.277671 
z
" style="fill:#dcdcdc;stroke:#000000;stroke-width:1.5;"/>
    <path clip-path="url(#p4879f087f5)" d="M 409.817184 411.020444 
L 432.034833 405.349968 
L 410.278906 401.847509 
L 387.971847 407.436659 
z
" style="fill:#8a8a8a;stroke:#000000;stroke-width:1.5;"/>
    <path clip-path="url(#p4879f087f5)" d="M 256.875708 404.529442 
L 236.407304 401.038674 
L 235.416566 164.759189 
L 256.192841 166.577432 
z
" style="fill:#dcdcdc;stroke:#000000;stroke-width:1.5;"/>
    <path clip-path="url(#p4879f087f5)" d="M 256.875708 404.529442 
L 236.407304 401.038674 
L 235.416566 164.759189 
L 256.192841 166.577432 
z
" style="fill:#dcdcdc;stroke:#000000;stroke-width:1.5;"/>
    <path clip-path="url(#p4879f087f5)" d="M 367.443042 166.251826 
L 390.163528 163.382346 
L 368.690758 161.609993 
L 345.887695 164.438287 
z
" style="fill:#8a8a8a;stroke:#000000;stroke-width:1.5;"/>
    <path clip-path="url(#p4879f087f5)" d="M 432.034833 405.349968 
L 410.278906 401.847509 
L 411.711523 198.749137 
L 433.765822 200.814774 
z
" style="fill:#dcdcdc;stroke:#000000;stroke-width:1.5;"/>
    <path clip-path="url(#p4879f087f5)" d="M 322.229363 405.978739 
L 345.216345 400.422507 
L 345.887695 164.438287 
L 322.553582 167.332447 
z
" style="fill:#6e6e6e;stroke:#000000;stroke-width:1.5;"/>
    <path clip-path="url(#p4879f087f5)" d="M 322.229363 405.978739 
L 345.216345 400.422507 
L 345.887695 164.438287 
L 322.553582 167.332447 
z
" style="fill:#6e6e6e;stroke:#000000;stroke-width:1.5;"/>
    <path clip-path="url(#p4879f087f5)" d="M 298.709072 411.663878 
L 322.229363 405.978739 
L 301.232432 402.467308 
L 277.640798 408.070807 
z
" style="fill:#8a8a8a;stroke:#000000;stroke-width:1.5;"/>
    <path clip-path="url(#p4879f087f5)" d="M 433.765822 200.814774 
L 455.744547 197.546422 
L 433.783893 195.527734 
L 411.711523 198.749137 
z
" style="fill:#8a8a8a;stroke:#000000;stroke-width:1.5;"/>
    <path clip-path="url(#p4879f087f5)" d="M 256.192841 166.577432 
L 280.219253 163.700526 
L 259.50742 161.923629 
L 235.416566 164.759189 
z
" style="fill:#8a8a8a;stroke:#000000;stroke-width:1.5;"/>
    <path clip-path="url(#p4879f087f5)" d="M 387.971847 407.436659 
L 410.278906 401.847509 
L 411.526185 225.02397 
L 388.97552 228.620555 
z
" style="fill:#6e6e6e;stroke:#000000;stroke-width:1.5;"/>
    <path clip-path="url(#p4879f087f5)" d="M 212.141412 406.609128 
L 236.407304 401.038674 
L 235.416566 164.759189 
L 210.763937 167.660872 
z
" style="fill:#6e6e6e;stroke:#000000;stroke-width:1.5;"/>
    <path clip-path="url(#p4879f087f5)" d="M 212.141412 406.609128 
L 236.407304 401.038674 
L 235.416566 164.759189 
L 210.763937 167.660872 
z
" style="fill:#6e6e6e;stroke:#000000;stroke-width:1.5;"/>
    <path clip-path="url(#p4879f087f5)" d="M 187.311808 412.308987 
L 212.141412 406.609128 
L 191.907444 403.088691 
L 167.024703 408.706593 
z
" style="fill:#8a8a8a;stroke:#000000;stroke-width:1.5;"/>
    <path clip-path="url(#p4879f087f5)" d="M 212.141412 406.609128 
L 191.907444 403.088691 
L 190.552209 211.465496 
L 211.028926 213.627956 
z
" style="fill:#dcdcdc;stroke:#000000;stroke-width:1.5;"/>
    <path clip-path="url(#p4879f087f5)" d="M 322.229363 405.978739 
L 301.232432 402.467308 
L 301.232432 165.503276 
L 322.553582 167.332447 
z
" style="fill:#dcdcdc;stroke:#000000;stroke-width:1.5;"/>
    <path clip-path="url(#p4879f087f5)" d="M 322.229363 405.978739 
L 301.232432 402.467308 
L 301.232432 165.503276 
L 322.553582 167.332447 
z
" style="fill:#dcdcdc;stroke:#000000;stroke-width:1.5;"/>
    <path clip-path="url(#p4879f087f5)" d="M 167.024703 408.706593 
L 191.907444 403.088691 
L 190.95725 268.736215 
L 165.844674 272.840668 
z
" style="fill:#6e6e6e;stroke:#000000;stroke-width:1.5;"/>
    <path clip-path="url(#p4879f087f5)" d="M 165.844674 272.840668 
L 190.95725 268.736215 
L 170.846247 266.201228 
L 145.683933 270.246578 
z
" style="fill:#8a8a8a;stroke:#000000;stroke-width:1.5;"/>
    <path clip-path="url(#p4879f087f5)" d="M 387.971847 407.436659 
L 410.278906 401.847509 
L 411.94831 165.180453 
L 389.31526 168.092025 
z
" style="fill:#6e6e6e;stroke:#000000;stroke-width:1.5;"/>
    <path clip-path="url(#p4879f087f5)" d="M 365.145697 413.155871 
L 387.971847 407.436659 
L 366.440475 403.904381 
L 343.531549 409.541219 
z
" style="fill:#8a8a8a;stroke:#000000;stroke-width:1.5;"/>
    <path clip-path="url(#p4879f087f5)" d="M 212.141412 406.609128 
L 191.907444 403.088691 
L 190.229435 165.826937 
L 210.763937 167.660872 
z
" style="fill:#dcdcdc;stroke:#000000;stroke-width:1.5;"/>
    <path clip-path="url(#p4879f087f5)" d="M 322.553582 167.332447 
L 345.887695 164.438287 
L 324.642383 162.650832 
L 301.232432 165.503276 
z
" style="fill:#8a8a8a;stroke:#000000;stroke-width:1.5;"/>
    <path clip-path="url(#p4879f087f5)" d="M 167.024703 408.706593 
L 191.907444 403.088691 
L 190.552209 211.465496 
L 165.341588 214.916527 
z
" style="fill:#6e6e6e;stroke:#000000;stroke-width:1.5;"/>
    <path clip-path="url(#p4879f087f5)" d="M 277.640798 408.070807 
L 301.232432 402.467308 
L 301.232432 165.503276 
L 277.274934 168.422438 
z
" style="fill:#6e6e6e;stroke:#000000;stroke-width:1.5;"/>
    <path clip-path="url(#p4879f087f5)" d="M 277.640798 408.070807 
L 301.232432 402.467308 
L 301.232432 165.503276 
L 277.274934 168.422438 
z
" style="fill:#6e6e6e;stroke:#000000;stroke-width:1.5;"/>
    <path clip-path="url(#p4879f087f5)" d="M 167.024703 408.706593 
L 147.029915 405.156105 
L 145.683933 270.246578 
L 165.844674 272.840668 
z
" style="fill:#dcdcdc;stroke:#000000;stroke-width:1.5;"/>
    <path clip-path="url(#p4879f087f5)" d="M 253.499463 413.804871 
L 277.640798 408.070807 
L 256.875708 404.529442 
L 232.669926 410.180812 
z
" style="fill:#8a8a8a;stroke:#000000;stroke-width:1.5;"/>
    <path clip-path="url(#p4879f087f5)" d="M 387.971847 407.436659 
L 366.440475 403.904381 
L 367.443042 166.251826 
L 389.31526 168.092025 
z
" style="fill:#dcdcdc;stroke:#000000;stroke-width:1.5;"/>
    <path clip-path="url(#p4879f087f5)" d="M 387.971847 407.436659 
L 366.440475 403.904381 
L 367.443042 166.251826 
L 389.31526 168.092025 
z
" style="fill:#dcdcdc;stroke:#000000;stroke-width:1.5;"/>
    <path clip-path="url(#p4879f087f5)" d="M 210.763937 167.660872 
L 235.416566 164.759189 
L 214.939503 162.967133 
L 190.229435 165.826937 
z
" style="fill:#8a8a8a;stroke:#000000;stroke-width:1.5;"/>
    <path clip-path="url(#p4879f087f5)" d="M 277.640798 408.070807 
L 256.875708 404.529442 
L 256.192841 166.577432 
L 277.274934 168.422438 
z
" style="fill:#dcdcdc;stroke:#000000;stroke-width:1.5;"/>
    <path clip-path="url(#p4879f087f5)" d="M 277.640798 408.070807 
L 256.875708 404.529442 
L 256.192841 166.577432 
L 277.274934 168.422438 
z
" style="fill:#dcdcdc;stroke:#000000;stroke-width:1.5;"/>
    <path clip-path="url(#p4879f087f5)" d="M 389.31526 168.092025 
L 411.94831 165.180453 
L 390.163528 163.382346 
L 367.443042 166.251826 
z
" style="fill:#8a8a8a;stroke:#000000;stroke-width:1.5;"/>
    <path clip-path="url(#p4879f087f5)" d="M 343.531549 409.541219 
L 366.440475 403.904381 
L 367.443042 166.251826 
L 344.189523 169.188625 
z
" style="fill:#6e6e6e;stroke:#000000;stroke-width:1.5;"/>
    <path clip-path="url(#p4879f087f5)" d="M 343.531549 409.541219 
L 366.440475 403.904381 
L 367.443042 166.251826 
L 344.189523 169.188625 
z
" style="fill:#6e6e6e;stroke:#000000;stroke-width:1.5;"/>
    <path clip-path="url(#p4879f087f5)" d="M 320.087217 415.309797 
L 343.531549 409.541219 
L 322.229363 405.978739 
L 298.709072 411.663878 
z
" style="fill:#8a8a8a;stroke:#000000;stroke-width:1.5;"/>
    <path clip-path="url(#p4879f087f5)" d="M 277.274934 168.422438 
L 301.232432 165.503276 
L 280.219253 163.700526 
L 256.192841 166.577432 
z
" style="fill:#8a8a8a;stroke:#000000;stroke-width:1.5;"/>
    <path clip-path="url(#p4879f087f5)" d="M 409.817184 411.020444 
L 432.034833 405.349968 
L 433.541865 227.277671 
L 411.082899 230.927198 
z
" style="fill:#6e6e6e;stroke:#000000;stroke-width:1.5;"/>
    <path clip-path="url(#p4879f087f5)" d="M 232.669926 410.180812 
L 256.875708 404.529442 
L 256.192841 166.577432 
L 231.602015 169.521919 
z
" style="fill:#6e6e6e;stroke:#000000;stroke-width:1.5;"/>
    <path clip-path="url(#p4879f087f5)" d="M 232.669926 410.180812 
L 256.875708 404.529442 
L 256.192841 166.577432 
L 231.602015 169.521919 
z
" style="fill:#6e6e6e;stroke:#000000;stroke-width:1.5;"/>
    <path clip-path="url(#p4879f087f5)" d="M 232.669926 410.180812 
L 212.141412 406.609128 
L 211.126162 230.495391 
L 231.882859 232.811522 
z
" style="fill:#dcdcdc;stroke:#000000;stroke-width:1.5;"/>
    <path clip-path="url(#p4879f087f5)" d="M 207.897686 415.964435 
L 232.669926 410.180812 
L 212.141412 406.609128 
L 187.311808 412.308987 
z
" style="fill:#8a8a8a;stroke:#000000;stroke-width:1.5;"/>
    <path clip-path="url(#p4879f087f5)" d="M 343.531549 409.541219 
L 322.229363 405.978739 
L 322.553582 167.332447 
L 344.189523 169.188625 
z
" style="fill:#dcdcdc;stroke:#000000;stroke-width:1.5;"/>
    <path clip-path="url(#p4879f087f5)" d="M 343.531549 409.541219 
L 322.229363 405.978739 
L 322.553582 167.332447 
L 344.189523 169.188625 
z
" style="fill:#dcdcdc;stroke:#000000;stroke-width:1.5;"/>
    <path clip-path="url(#p4879f087f5)" d="M 409.817184 411.020444 
L 387.971847 407.436659 
L 388.894372 243.077989 
L 410.980557 245.489018 
z
" style="fill:#dcdcdc;stroke:#000000;stroke-width:1.5;"/>
    <path clip-path="url(#p4879f087f5)" d="M 411.082899 230.927198 
L 433.541865 227.277671 
L 411.526185 225.02397 
L 388.97552 228.620555 
z
" style="fill:#8a8a8a;stroke:#000000;stroke-width:1.5;"/>
    <path clip-path="url(#p4879f087f5)" d="M 409.817184 411.020444 
L 387.971847 407.436659 
L 388.97552 228.620555 
L 411.082899 230.927198 
z
" style="fill:#dcdcdc;stroke:#000000;stroke-width:1.5;"/>
    <path clip-path="url(#p4879f087f5)" d="M 387.078709 416.823848 
L 409.817184 411.020444 
L 387.971847 407.436659 
L 365.145697 413.155871 
z
" style="fill:#8a8a8a;stroke:#000000;stroke-width:1.5;"/>
    <path clip-path="url(#p4879f087f5)" d="M 232.669926 410.180812 
L 212.141412 406.609128 
L 210.763937 167.660872 
L 231.602015 169.521919 
z
" style="fill:#dcdcdc;stroke:#000000;stroke-width:1.5;"/>
    <path clip-path="url(#p4879f087f5)" d="M 187.311808 412.308987 
L 212.141412 406.609128 
L 211.126162 230.495391 
L 185.998355 234.191762 
z
" style="fill:#6e6e6e;stroke:#000000;stroke-width:1.5;"/>
    <path clip-path="url(#p4879f087f5)" d="M 344.189523 169.188625 
L 367.443042 166.251826 
L 345.887695 164.438287 
L 322.553582 167.332447 
z
" style="fill:#8a8a8a;stroke:#000000;stroke-width:1.5;"/>
    <path clip-path="url(#p4879f087f5)" d="M 187.311808 412.308987 
L 212.141412 406.609128 
L 211.028926 213.627956 
L 185.87254 217.129967 
z
" style="fill:#6e6e6e;stroke:#000000;stroke-width:1.5;"/>
    <path clip-path="url(#p4879f087f5)" d="M 298.709072 411.663878 
L 322.229363 405.978739 
L 322.553582 167.332447 
L 298.669649 170.294803 
z
" style="fill:#6e6e6e;stroke:#000000;stroke-width:1.5;"/>
    <path clip-path="url(#p4879f087f5)" d="M 298.709072 411.663878 
L 322.229363 405.978739 
L 322.553582 167.332447 
L 298.669649 170.294803 
z
" style="fill:#6e6e6e;stroke:#000000;stroke-width:1.5;"/>
    <path clip-path="url(#p4879f087f5)" d="M 274.636694 417.482464 
L 298.709072 411.663878 
L 277.640798 408.070807 
L 253.499463 413.804871 
z
" style="fill:#8a8a8a;stroke:#000000;stroke-width:1.5;"/>
    <path clip-path="url(#p4879f087f5)" d="M 365.145697 413.155871 
L 387.971847 407.436659 
L 388.894372 243.077989 
L 365.833447 246.925828 
z
" style="fill:#6e6e6e;stroke:#000000;stroke-width:1.5;"/>
    <path clip-path="url(#p4879f087f5)" d="M 231.602015 169.521919 
L 256.192841 166.577432 
L 235.416566 164.759189 
L 210.763937 167.660872 
z
" style="fill:#8a8a8a;stroke:#000000;stroke-width:1.5;"/>
    <path clip-path="url(#p4879f087f5)" d="M 187.311808 412.308987 
L 167.024703 408.706593 
L 165.341588 214.916527 
L 185.87254 217.129967 
z
" style="fill:#dcdcdc;stroke:#000000;stroke-width:1.5;"/>
    <path clip-path="url(#p4879f087f5)" d="M 298.709072 411.663878 
L 277.640798 408.070807 
L 277.278649 170.855709 
L 298.670049 172.74582 
z
" style="fill:#dcdcdc;stroke:#000000;stroke-width:1.5;"/>
    <path clip-path="url(#p4879f087f5)" d="M 298.709072 411.663878 
L 277.640798 408.070807 
L 277.274934 168.422438 
L 298.669649 170.294803 
z
" style="fill:#dcdcdc;stroke:#000000;stroke-width:1.5;"/>
    <path clip-path="url(#p4879f087f5)" d="M 185.87254 217.129967 
L 211.028926 213.627956 
L 190.552209 211.465496 
L 165.341588 214.916527 
z
" style="fill:#8a8a8a;stroke:#000000;stroke-width:1.5;"/>
    <path clip-path="url(#p4879f087f5)" d="M 365.145697 413.155871 
L 387.971847 407.436659 
L 389.31526 168.092025 
L 366.147278 171.072411 
z
" style="fill:#6e6e6e;stroke:#000000;stroke-width:1.5;"/>
    <path clip-path="url(#p4879f087f5)" d="M 341.782122 419.009737 
L 365.145697 413.155871 
L 343.531549 409.541219 
L 320.087217 415.309797 
z
" style="fill:#8a8a8a;stroke:#000000;stroke-width:1.5;"/>
    <path clip-path="url(#p4879f087f5)" d="M 298.669649 170.294803 
L 322.553582 167.332447 
L 301.232432 165.503276 
L 277.274934 168.422438 
z
" style="fill:#8a8a8a;stroke:#000000;stroke-width:1.5;"/>
    <path clip-path="url(#p4879f087f5)" d="M 253.499463 413.804871 
L 277.640798 408.070807 
L 277.278649 170.855709 
L 252.758057 173.872276 
z
" style="fill:#6e6e6e;stroke:#000000;stroke-width:1.5;"/>
    <path clip-path="url(#p4879f087f5)" d="M 253.499463 413.804871 
L 277.640798 408.070807 
L 277.274934 168.422438 
L 252.750451 171.410685 
z
" style="fill:#6e6e6e;stroke:#000000;stroke-width:1.5;"/>
    <path clip-path="url(#p4879f087f5)" d="M 253.499463 413.804871 
L 232.669926 410.180812 
L 231.8721 230.386748 
L 252.939899 232.719616 
z
" style="fill:#dcdcdc;stroke:#000000;stroke-width:1.5;"/>
    <path clip-path="url(#p4879f087f5)" d="M 228.788988 419.674117 
L 253.499463 413.804871 
L 232.669926 410.180812 
L 207.897686 415.964435 
z
" style="fill:#8a8a8a;stroke:#000000;stroke-width:1.5;"/>
    <path clip-path="url(#p4879f087f5)" d="M 365.145697 413.155871 
L 343.531549 409.541219 
L 344.176163 174.068933 
L 366.126938 175.988413 
z
" style="fill:#dcdcdc;stroke:#000000;stroke-width:1.5;"/>
    <path clip-path="url(#p4879f087f5)" d="M 365.145697 413.155871 
L 343.531549 409.541219 
L 344.189523 169.188625 
L 366.147278 171.072411 
z
" style="fill:#dcdcdc;stroke:#000000;stroke-width:1.5;"/>
    <path clip-path="url(#p4879f087f5)" d="M 253.499463 413.804871 
L 232.669926 410.180812 
L 231.602015 169.521919 
L 252.750451 171.410685 
z
" style="fill:#dcdcdc;stroke:#000000;stroke-width:1.5;"/>
    <path clip-path="url(#p4879f087f5)" d="M 207.897686 415.964435 
L 232.669926 410.180812 
L 231.882859 232.811522 
L 206.813564 236.562844 
z
" style="fill:#6e6e6e;stroke:#000000;stroke-width:1.5;"/>
    <path clip-path="url(#p4879f087f5)" d="M 207.897686 415.964435 
L 232.669926 410.180812 
L 231.8721 230.386748 
L 206.798741 234.109953 
z
" style="fill:#6e6e6e;stroke:#000000;stroke-width:1.5;"/>
    <path clip-path="url(#p4879f087f5)" d="M 387.078709 416.823848 
L 365.145697 413.155871 
L 365.403123 350.935707 
L 387.427036 354.15775 
z
" style="fill:#dcdcdc;stroke:#000000;stroke-width:1.5;"/>
    <path clip-path="url(#p4879f087f5)" d="M 366.147278 171.072411 
L 389.31526 168.092025 
L 367.443042 166.251826 
L 344.189523 169.188625 
z
" style="fill:#8a8a8a;stroke:#000000;stroke-width:1.5;"/>
    <path clip-path="url(#p4879f087f5)" d="M 320.087217 415.309797 
L 343.531549 409.541219 
L 344.176163 174.068933 
L 320.377962 177.132411 
z
" style="fill:#6e6e6e;stroke:#000000;stroke-width:1.5;"/>
    <path clip-path="url(#p4879f087f5)" d="M 320.087217 415.309797 
L 343.531549 409.541219 
L 344.189523 169.188625 
L 320.383989 172.19514 
z
" style="fill:#6e6e6e;stroke:#000000;stroke-width:1.5;"/>
    <path clip-path="url(#p4879f087f5)" d="M 296.088487 421.214786 
L 320.087217 415.309797 
L 298.709072 411.663878 
L 274.636694 417.482464 
z
" style="fill:#8a8a8a;stroke:#000000;stroke-width:1.5;"/>
    <path clip-path="url(#p4879f087f5)" d="M 387.078709 416.823848 
L 409.817184 411.020444 
L 410.980557 245.489018 
L 388.009361 249.394114 
z
" style="fill:#6e6e6e;stroke:#000000;stroke-width:1.5;"/>
    <path clip-path="url(#p4879f087f5)" d="M 252.750451 171.410685 
L 277.274934 168.422438 
L 256.192841 166.577432 
L 231.602015 169.521919 
z
" style="fill:#8a8a8a;stroke:#000000;stroke-width:1.5;"/>
    <path clip-path="url(#p4879f087f5)" d="M 206.813564 236.562844 
L 231.882859 232.811522 
L 211.126162 230.495391 
L 185.998355 234.191762 
z
" style="fill:#8a8a8a;stroke:#000000;stroke-width:1.5;"/>
    <path clip-path="url(#p4879f087f5)" d="M 207.897686 415.964435 
L 187.311808 412.308987 
L 185.998355 234.191762 
L 206.813564 236.562844 
z
" style="fill:#dcdcdc;stroke:#000000;stroke-width:1.5;"/>
    <path clip-path="url(#p4879f087f5)" d="M 341.782122 419.009737 
L 365.145697 413.155871 
L 365.403123 350.935707 
L 341.947376 356.077981 
z
" style="fill:#6e6e6e;stroke:#000000;stroke-width:1.5;"/>
    <path clip-path="url(#p4879f087f5)" d="M 320.087217 415.309797 
L 298.709072 411.663878 
L 298.670849 177.645558 
L 320.37495 179.599881 
z
" style="fill:#dcdcdc;stroke:#000000;stroke-width:1.5;"/>
    <path clip-path="url(#p4879f087f5)" d="M 320.087217 415.309797 
L 298.709072 411.663878 
L 298.669649 170.294803 
L 320.383989 172.19514 
z
" style="fill:#dcdcdc;stroke:#000000;stroke-width:1.5;"/>
    <path clip-path="url(#p4879f087f5)" d="M 388.009361 249.394114 
L 410.980557 245.489018 
L 388.894372 243.077989 
L 365.833447 246.925828 
z
" style="fill:#8a8a8a;stroke:#000000;stroke-width:1.5;"/>
    <path clip-path="url(#p4879f087f5)" d="M 387.078709 416.823848 
L 365.145697 413.155871 
L 365.833447 246.925828 
L 388.009361 249.394114 
z
" style="fill:#dcdcdc;stroke:#000000;stroke-width:1.5;"/>
    <path clip-path="url(#p4879f087f5)" d="M 363.800879 422.764908 
L 387.078709 416.823848 
L 365.145697 413.155871 
L 341.782122 419.009737 
z
" style="fill:#8a8a8a;stroke:#000000;stroke-width:1.5;"/>
    <path clip-path="url(#p4879f087f5)" d="M 320.383989 172.19514 
L 344.189523 169.188625 
L 322.553582 167.332447 
L 298.669649 170.294803 
z
" style="fill:#8a8a8a;stroke:#000000;stroke-width:1.5;"/>
    <path clip-path="url(#p4879f087f5)" d="M 274.636694 417.482464 
L 298.709072 411.663878 
L 298.670849 177.645558 
L 274.229037 180.764704 
z
" style="fill:#6e6e6e;stroke:#000000;stroke-width:1.5;"/>
    <path clip-path="url(#p4879f087f5)" d="M 274.636694 417.482464 
L 253.499463 413.804871 
L 252.970074 242.484608 
L 274.339527 244.923783 
z
" style="fill:#dcdcdc;stroke:#000000;stroke-width:1.5;"/>
    <path clip-path="url(#p4879f087f5)" d="M 274.636694 417.482464 
L 298.709072 411.663878 
L 298.670049 172.74582 
L 274.220501 175.807546 
z
" style="fill:#6e6e6e;stroke:#000000;stroke-width:1.5;"/>
    <path clip-path="url(#p4879f087f5)" d="M 249.992561 423.439249 
L 274.636694 417.482464 
L 253.499463 413.804871 
L 228.788988 419.674117 
z
" style="fill:#8a8a8a;stroke:#000000;stroke-width:1.5;"/>
    <path clip-path="url(#p4879f087f5)" d="M 228.788988 419.674117 
L 253.499463 413.804871 
L 252.970074 242.484608 
L 227.975966 246.377594 
z
" style="fill:#6e6e6e;stroke:#000000;stroke-width:1.5;"/>
    <path clip-path="url(#p4879f087f5)" d="M 274.636694 417.482464 
L 253.499463 413.804871 
L 252.758057 173.872276 
L 274.220501 175.807546 
z
" style="fill:#dcdcdc;stroke:#000000;stroke-width:1.5;"/>
    <path clip-path="url(#p4879f087f5)" d="M 228.788988 419.674117 
L 253.499463 413.804871 
L 252.939899 232.719616 
L 227.929619 236.498593 
z
" style="fill:#6e6e6e;stroke:#000000;stroke-width:1.5;"/>
    <path clip-path="url(#p4879f087f5)" d="M 341.782122 419.009737 
L 365.145697 413.155871 
L 366.126938 175.988413 
L 342.412112 179.097886 
z
" style="fill:#6e6e6e;stroke:#000000;stroke-width:1.5;"/>
    <path clip-path="url(#p4879f087f5)" d="M 341.782122 419.009737 
L 320.087217 415.309797 
L 320.296968 243.482707 
L 342.236598 245.936869 
z
" style="fill:#dcdcdc;stroke:#000000;stroke-width:1.5;"/>
    <path clip-path="url(#p4879f087f5)" d="M 364.057778 359.376933 
L 387.427036 354.15775 
L 365.403123 350.935707 
L 341.947376 356.077981 
z
" style="fill:#8a8a8a;stroke:#000000;stroke-width:1.5;"/>
    <path clip-path="url(#p4879f087f5)" d="M 317.861917 425.003069 
L 341.782122 419.009737 
L 320.087217 415.309797 
L 296.088487 421.214786 
z
" style="fill:#8a8a8a;stroke:#000000;stroke-width:1.5;"/>
    <path clip-path="url(#p4879f087f5)" d="M 274.220501 175.807546 
L 298.670049 172.74582 
L 277.278649 170.855709 
L 252.758057 173.872276 
z
" style="fill:#8a8a8a;stroke:#000000;stroke-width:1.5;"/>
    <path clip-path="url(#p4879f087f5)" d="M 227.929619 236.498593 
L 252.939899 232.719616 
L 231.8721 230.386748 
L 206.798741 234.109953 
z
" style="fill:#8a8a8a;stroke:#000000;stroke-width:1.5;"/>
    <path clip-path="url(#p4879f087f5)" d="M 228.788988 419.674117 
L 207.897686 415.964435 
L 206.798741 234.109953 
L 227.929619 236.498593 
z
" style="fill:#dcdcdc;stroke:#000000;stroke-width:1.5;"/>
    <path clip-path="url(#p4879f087f5)" d="M 363.800879 422.764908 
L 387.078709 416.823848 
L 387.427036 354.15775 
L 364.057778 359.376933 
z
" style="fill:#6e6e6e;stroke:#000000;stroke-width:1.5;"/>
    <path clip-path="url(#p4879f087f5)" d="M 341.782122 419.009737 
L 320.087217 415.309797 
L 320.377962 177.132411 
L 342.412112 179.097886 
z
" style="fill:#dcdcdc;stroke:#000000;stroke-width:1.5;"/>
    <path clip-path="url(#p4879f087f5)" d="M 296.088487 421.214786 
L 320.087217 415.309797 
L 320.296968 243.482707 
L 296.030579 247.399667 
z
" style="fill:#6e6e6e;stroke:#000000;stroke-width:1.5;"/>
    <path clip-path="url(#p4879f087f5)" d="M 296.088487 421.214786 
L 274.636694 417.482464 
L 274.428111 296.362547 
L 296.047842 299.215992 
z
" style="fill:#dcdcdc;stroke:#000000;stroke-width:1.5;"/>
    <path clip-path="url(#p4879f087f5)" d="M 363.800879 422.764908 
L 341.782122 419.009737 
L 341.915492 368.220047 
L 364.008211 371.607322 
z
" style="fill:#dcdcdc;stroke:#000000;stroke-width:1.5;"/>
    <path clip-path="url(#p4879f087f5)" d="M 363.800879 422.764908 
L 341.782122 419.009737 
L 341.947376 356.077981 
L 364.057778 359.376933 
z
" style="fill:#dcdcdc;stroke:#000000;stroke-width:1.5;"/>
    <path clip-path="url(#p4879f087f5)" d="M 342.412112 179.097886 
L 366.126938 175.988413 
L 344.176163 174.068933 
L 320.377962 177.132411 
z
" style="fill:#8a8a8a;stroke:#000000;stroke-width:1.5;"/>
    <path clip-path="url(#p4879f087f5)" d="M 296.088487 421.214786 
L 320.087217 415.309797 
L 320.37495 179.599881 
L 296.009046 182.766058 
z
" style="fill:#6e6e6e;stroke:#000000;stroke-width:1.5;"/>
    <path clip-path="url(#p4879f087f5)" d="M 271.515459 427.261084 
L 296.088487 421.214786 
L 274.636694 417.482464 
L 249.992561 423.439249 
z
" style="fill:#8a8a8a;stroke:#000000;stroke-width:1.5;"/>
    <path clip-path="url(#p4879f087f5)" d="M 249.992561 423.439249 
L 274.636694 417.482464 
L 274.428111 296.362547 
L 249.58589 300.916802 
z
" style="fill:#6e6e6e;stroke:#000000;stroke-width:1.5;"/>
    <path clip-path="url(#p4879f087f5)" d="M 317.861917 425.003069 
L 341.782122 419.009737 
L 341.915492 368.220047 
L 317.917266 373.626289 
z
" style="fill:#6e6e6e;stroke:#000000;stroke-width:1.5;"/>
    <path clip-path="url(#p4879f087f5)" d="M 296.088487 421.214786 
L 274.636694 417.482464 
L 274.229037 180.764704 
L 296.009046 182.766058 
z
" style="fill:#dcdcdc;stroke:#000000;stroke-width:1.5;"/>
    <path clip-path="url(#p4879f087f5)" d="M 249.992561 423.439249 
L 274.636694 417.482464 
L 274.339527 244.923783 
L 249.413157 248.875488 
z
" style="fill:#6e6e6e;stroke:#000000;stroke-width:1.5;"/>
    <path clip-path="url(#p4879f087f5)" d="M 317.861917 425.003069 
L 296.088487 421.214786 
L 296.080409 396.968295 
L 317.888228 400.580515 
z
" style="fill:#dcdcdc;stroke:#000000;stroke-width:1.5;"/>
    <path clip-path="url(#p4879f087f5)" d="M 339.964273 428.848581 
L 363.800879 422.764908 
L 341.782122 419.009737 
L 317.861917 425.003069 
z
" style="fill:#8a8a8a;stroke:#000000;stroke-width:1.5;"/>
    <path clip-path="url(#p4879f087f5)" d="M 296.009046 182.766058 
L 320.37495 179.599881 
L 298.670849 177.645558 
L 274.229037 180.764704 
z
" style="fill:#8a8a8a;stroke:#000000;stroke-width:1.5;"/>
    <path clip-path="url(#p4879f087f5)" d="M 249.413157 248.875488 
L 274.339527 244.923783 
L 252.970074 242.484608 
L 227.975966 246.377594 
z
" style="fill:#8a8a8a;stroke:#000000;stroke-width:1.5;"/>
    <path clip-path="url(#p4879f087f5)" d="M 249.992561 423.439249 
L 228.788988 419.674117 
L 227.975966 246.377594 
L 249.413157 248.875488 
z
" style="fill:#dcdcdc;stroke:#000000;stroke-width:1.5;"/>
    <path clip-path="url(#p4879f087f5)" d="M 271.515459 427.261084 
L 296.088487 421.214786 
L 296.080409 396.968295 
L 271.468232 402.733627 
z
" style="fill:#6e6e6e;stroke:#000000;stroke-width:1.5;"/>
    <path clip-path="url(#p4879f087f5)" d="M 317.861917 425.003069 
L 341.782122 419.009737 
L 342.236598 245.936869 
L 318.050544 249.913093 
z
" style="fill:#6e6e6e;stroke:#000000;stroke-width:1.5;"/>
    <path clip-path="url(#p4879f087f5)" d="M 340.094163 377.095328 
L 364.008211 371.607322 
L 341.915492 368.220047 
L 317.917266 373.626289 
z
" style="fill:#8a8a8a;stroke:#000000;stroke-width:1.5;"/>
    <path clip-path="url(#p4879f087f5)" d="M 318.050544 249.913093 
L 342.236598 245.936869 
L 320.296968 243.482707 
L 296.030579 247.399667 
z
" style="fill:#8a8a8a;stroke:#000000;stroke-width:1.5;"/>
    <path clip-path="url(#p4879f087f5)" d="M 317.861917 425.003069 
L 296.088487 421.214786 
L 296.030579 247.399667 
L 318.050544 249.913093 
z
" style="fill:#dcdcdc;stroke:#000000;stroke-width:1.5;"/>
    <path clip-path="url(#p4879f087f5)" d="M 293.36495 431.140912 
L 317.861917 425.003069 
L 296.088487 421.214786 
L 271.515459 427.261084 
z
" style="fill:#8a8a8a;stroke:#000000;stroke-width:1.5;"/>
    <path clip-path="url(#p4879f087f5)" d="M 271.515459 427.261084 
L 296.088487 421.214786 
L 296.047842 299.215992 
L 271.277817 303.83923 
z
" style="fill:#6e6e6e;stroke:#000000;stroke-width:1.5;"/>
    <path clip-path="url(#p4879f087f5)" d="M 271.277817 303.83923 
L 296.047842 299.215992 
L 274.428111 296.362547 
L 249.58589 300.916802 
z
" style="fill:#8a8a8a;stroke:#000000;stroke-width:1.5;"/>
    <path clip-path="url(#p4879f087f5)" d="M 339.964273 428.848581 
L 363.800879 422.764908 
L 364.008211 371.607322 
L 340.094163 377.095328 
z
" style="fill:#6e6e6e;stroke:#000000;stroke-width:1.5;"/>
    <path clip-path="url(#p4879f087f5)" d="M 293.352352 406.433277 
L 317.888228 400.580515 
L 296.080409 396.968295 
L 271.468232 402.733627 
z
" style="fill:#8a8a8a;stroke:#000000;stroke-width:1.5;"/>
    <path clip-path="url(#p4879f087f5)" d="M 339.964273 428.848581 
L 317.861917 425.003069 
L 317.867173 420.124733 
L 339.976606 423.934609 
z
" style="fill:#dcdcdc;stroke:#000000;stroke-width:1.5;"/>
    <path clip-path="url(#p4879f087f5)" d="M 271.515459 427.261084 
L 249.992561 423.439249 
L 249.58589 300.916802 
L 271.277817 303.83923 
z
" style="fill:#dcdcdc;stroke:#000000;stroke-width:1.5;"/>
    <path clip-path="url(#p4879f087f5)" d="M 339.964273 428.848581 
L 317.861917 425.003069 
L 317.917266 373.626289 
L 340.094163 377.095328 
z
" style="fill:#dcdcdc;stroke:#000000;stroke-width:1.5;"/>
    <path clip-path="url(#p4879f087f5)" d="M 293.36495 431.140912 
L 317.861917 425.003069 
L 317.867173 420.124733 
L 293.362434 426.205708 
z
" style="fill:#6e6e6e;stroke:#000000;stroke-width:1.5;"/>
    <path clip-path="url(#p4879f087f5)" d="M 293.36495 431.140912 
L 317.861917 425.003069 
L 317.888228 400.580515 
L 293.352352 406.433277 
z
" style="fill:#6e6e6e;stroke:#000000;stroke-width:1.5;"/>
    <path clip-path="url(#p4879f087f5)" d="M 293.36495 431.140912 
L 271.515459 427.261084 
L 271.468232 402.733627 
L 293.352352 406.433277 
z
" style="fill:#dcdcdc;stroke:#000000;stroke-width:1.5;"/>
    <path clip-path="url(#p4879f087f5)" d="M 315.548526 435.080064 
L 339.964273 428.848581 
L 317.861917 425.003069 
L 293.36495 431.140912 
z
" style="fill:#8a8a8a;stroke:#000000;stroke-width:1.5;"/>
    <path clip-path="url(#p4879f087f5)" d="M 315.55314 430.108387 
L 339.976606 423.934609 
L 317.867173 420.124733 
L 293.362434 426.205708 
z
" style="fill:#8a8a8a;stroke:#000000;stroke-width:1.5;"/>
    <path clip-path="url(#p4879f087f5)" d="M 315.548526 435.080064 
L 339.964273 428.848581 
L 339.976606 423.934609 
L 315.55314 430.108387 
z
" style="fill:#6e6e6e;stroke:#000000;stroke-width:1.5;"/>
    <path clip-path="url(#p4879f087f5)" d="M 315.548526 435.080064 
L 293.36495 431.140912 
L 293.362434 426.205708 
L 315.55314 430.108387 
z
" style="fill:#dcdcdc;stroke:#000000;stroke-width:1.5;"/>
   </g>
  </g>
 </g>
 <defs>
  <clipPath id="p4879f087f5">
   <rect height="443.52" width="446.4" x="72" y="69.12"/>
  </clipPath>
 </defs>
</svg>
